<svg width="135" height="45" viewBox="0 0 135 45" fill="none" xmlns="http://www.w3.org/2000/svg">
<path d="M128.235 45.0006H6.20409C2.78586 45.0006 0 42.192 0 38.733V6.45702C0 3.00382 2.78016 0.189453 6.20409 0.189453H128.235C131.653 0.189453 134.433 2.99806 134.433 6.45702V38.7388C134.433 42.192 131.653 45.0006 128.235 45.0006ZM6.20409 0.764988C3.0992 0.764988 0.569705 3.32036 0.569705 6.45702V38.7388C0.569705 41.8754 3.0992 44.4308 6.20409 44.4308H128.235C131.34 44.4308 133.869 41.8754 133.869 38.7388V6.45702C133.869 3.32036 131.346 0.764988 128.235 0.764988H6.20409Z" fill="white"/>
<path d="M21.6886 23.8491L9.41716 36.154V11.5557L21.6886 23.8491Z" fill="white"/>
<path d="M25.0785 20.4682L21.9736 23.5646L10.2148 11.7949L25.0785 20.4682Z" fill="white"/>
<path d="M25.0784 27.2447L10.2205 35.9123L21.9735 24.1426L25.0043 27.1699L25.0784 27.2447Z" fill="white"/>
<path d="M30.895 23.8526L25.4315 27.0353L22.2582 23.8526L25.4315 20.6699L30.895 23.8526Z" fill="white"/>
<path d="M66.3705 24.0231C64.1429 24.0231 62.3255 25.7325 62.3255 28.0922C62.3255 30.4346 64.1429 32.1612 66.3705 32.1612C68.598 32.1612 70.4154 30.4346 70.4154 28.0922C70.4154 25.7325 68.598 24.0231 66.3705 24.0231ZM66.3705 30.5612C65.1513 30.5612 64.0973 29.5425 64.0973 28.0979C64.0973 26.6361 65.1513 25.6346 66.3705 25.6346C67.5896 25.6346 68.6436 26.6361 68.6436 28.0979C68.6436 29.5425 67.5896 30.5612 66.3705 30.5612ZM57.5514 24.0231C55.3239 24.0231 53.5065 25.7325 53.5065 28.0922C53.5065 30.4346 55.3239 32.1612 57.5514 32.1612C59.779 32.1612 61.5963 30.4346 61.5963 28.0922C61.5963 25.7325 59.779 24.0231 57.5514 24.0231ZM57.5514 30.5612C56.3322 30.5612 55.2783 29.5425 55.2783 28.0979C55.2783 26.6361 56.3322 25.6346 57.5514 25.6346C58.7706 25.6346 59.8245 26.6361 59.8245 28.0979C59.8245 29.5425 58.7706 30.5612 57.5514 30.5612ZM47.0631 25.272V26.9986H51.1536C51.034 27.9713 50.7093 28.6792 50.225 29.1742C49.6325 29.7727 48.6982 30.4404 47.0688 30.4404C44.5507 30.4404 42.5853 28.3914 42.5853 25.8476C42.5853 23.3037 44.5507 21.2548 47.0688 21.2548C48.4247 21.2548 49.416 21.7958 50.1509 22.4865L51.3587 21.2663C50.3389 20.2822 48.9774 19.5225 47.0745 19.5225C43.6278 19.5225 40.728 22.3598 40.728 25.8418C40.728 29.3238 43.6278 32.1612 47.0745 32.1612C48.9375 32.1612 50.3389 31.5454 51.4385 30.3885C52.5665 29.249 52.9197 27.6433 52.9197 26.3483C52.9197 25.9454 52.8912 25.5771 52.8286 25.272H47.0631ZM89.9676 26.613C89.6315 25.7037 88.6117 24.0231 86.5209 24.0231C84.4472 24.0231 82.721 25.6749 82.721 28.0922C82.721 30.3713 84.4301 32.1612 86.7203 32.1612C88.5662 32.1612 89.6315 31.0216 90.0759 30.3598L88.7029 29.4332C88.2471 30.1123 87.6205 30.5555 86.7203 30.5555C85.8202 30.5555 85.1821 30.1411 84.7662 29.3238L90.1499 27.0735L89.9676 26.613ZM84.4757 27.9713C84.4301 26.4001 85.6835 25.6001 86.5836 25.6001C87.2843 25.6001 87.8825 25.9569 88.0762 26.4634L84.4757 27.9713ZM80.0946 31.9137H81.8664V19.9541H80.0946V31.9137ZM77.1949 24.9325H77.1322C76.7334 24.4548 75.97 24.0231 75.0129 24.0231C73.0018 24.0231 71.156 25.8131 71.156 28.1094C71.156 30.3886 73.0018 32.1612 75.0129 32.1612C75.9757 32.1612 76.7391 31.7295 77.1322 31.2346H77.1949V31.8216C77.1949 33.3756 76.3688 34.2101 75.0414 34.2101C73.9589 34.2101 73.2867 33.4216 73.0132 32.7598L71.475 33.4043C71.9194 34.4806 73.093 35.8101 75.0471 35.8101C77.1208 35.8101 78.8755 34.5784 78.8755 31.5741V24.2706H77.1949V24.9325ZM75.1667 30.5612C73.9475 30.5612 72.9221 29.531 72.9221 28.1094C72.9221 26.6764 73.9418 25.6289 75.1667 25.6289C76.3745 25.6289 77.3202 26.6764 77.3202 28.1094C77.3202 29.5252 76.3745 30.5612 75.1667 30.5612ZM98.2568 19.9541H94.0239V31.9137H95.79V27.3843H98.2568C100.217 27.3843 102.142 25.9512 102.142 23.6721C102.137 21.3872 100.211 19.9541 98.2568 19.9541ZM98.3024 25.721H95.79V21.6232H98.3024C99.6241 21.6232 100.376 22.7282 100.376 23.6721C100.37 24.5987 99.6241 25.721 98.3024 25.721ZM109.218 24.0001C107.936 24.0001 106.614 24.5699 106.068 25.8303L107.634 26.4922C107.97 25.8303 108.591 25.6174 109.246 25.6174C110.158 25.6174 111.087 26.1699 111.104 27.154V27.2749C110.785 27.0907 110.101 26.8145 109.264 26.8145C107.572 26.8145 105.851 27.7526 105.851 29.508C105.851 31.108 107.235 32.1382 108.791 32.1382C109.981 32.1382 110.631 31.5972 111.047 30.9698H111.109V31.8907H112.813V27.3037C112.813 25.1857 111.246 24.0001 109.218 24.0001ZM109.007 30.5555C108.426 30.5555 107.623 30.2619 107.623 29.5425C107.623 28.6217 108.625 28.2648 109.497 28.2648C110.272 28.2648 110.637 28.4317 111.109 28.6677C110.973 29.7727 110.027 30.5555 109.007 30.5555ZM119.028 24.2649L117 29.4504H116.937L114.835 24.2649H112.932L116.083 31.5108L114.288 35.5396H116.129L120.988 24.2591H119.028V24.2649ZM103.111 31.9137H104.877V19.9541H103.111V31.9137Z" fill="white"/>
<path d="M47.2282 14.515H46.6585L45.764 12.2647H42.38L41.4855 14.515H40.9158L43.753 7.34961H44.3853L47.2282 14.515ZM42.5737 11.7697H45.5703L44.0663 7.8791L42.5737 11.7697Z" fill="white"/>
<path d="M51.0965 9.0835H51.6662L49.4216 14.5108H48.886L46.6414 9.0835H47.2453L49.1709 13.9468L51.0965 9.0835Z" fill="white"/>
<path d="M55.3122 10.9465C55.3122 10.4745 55.1869 10.1119 54.9362 9.85295C54.6855 9.59396 54.3266 9.46158 53.8594 9.46158C53.4493 9.46158 53.1017 9.54792 52.8055 9.72633C52.5093 9.90475 52.2928 10.1983 52.1503 10.6127L51.7117 10.3306C51.8712 9.90475 52.1332 9.57093 52.5036 9.33496C52.8739 9.09899 53.3296 8.98389 53.8765 8.98389C54.2696 8.98389 54.6172 9.05296 54.9134 9.19684C55.2097 9.34072 55.4432 9.54792 55.6084 9.81842C55.7737 10.0947 55.8534 10.44 55.8534 10.8486V13.5651C55.8534 13.9508 56.0243 14.1407 56.3719 14.1407C56.52 14.1407 56.651 14.1177 56.7593 14.0659L56.7251 14.4975C56.6054 14.5608 56.4459 14.5953 56.2522 14.5953C56.087 14.5953 55.9332 14.5608 55.7908 14.4975C55.6483 14.4342 55.5287 14.3249 55.4432 14.1695C55.3521 14.0198 55.3065 13.8126 55.3065 13.5479V13.2544L55.4546 13.2428C55.392 13.5536 55.2495 13.8126 55.0273 14.0198C54.8109 14.227 54.5545 14.3766 54.2696 14.4745C53.9848 14.5723 53.6942 14.6241 53.4094 14.6241C53.0733 14.6241 52.7713 14.5723 52.5093 14.463C52.2415 14.3536 52.0364 14.1982 51.8826 13.991C51.7345 13.7839 51.6547 13.5306 51.6547 13.2256C51.6547 12.8227 51.7914 12.4946 52.0592 12.2414C52.3269 11.9882 52.7029 11.8213 53.1929 11.7234L55.4204 11.2803V11.7349L53.4664 12.1263C53.0448 12.2126 52.7257 12.3393 52.5206 12.5062C52.3156 12.6731 52.2073 12.9033 52.2073 13.1911C52.2073 13.4903 52.3156 13.7205 52.5434 13.8932C52.7656 14.0659 53.079 14.1464 53.4891 14.1464C53.6942 14.1464 53.9107 14.1177 54.1215 14.0601C54.338 14.0026 54.5374 13.9105 54.7197 13.7839C54.902 13.6572 55.0501 13.4961 55.1527 13.3062C55.2609 13.1162 55.3122 12.8803 55.3122 12.604V10.9465Z" fill="white"/>
<path d="M57.483 8.03365C57.3462 8.03365 57.238 7.99336 57.1526 7.90703C57.0671 7.82646 57.0272 7.71135 57.0272 7.57322C57.0272 7.43509 57.0671 7.32574 57.1526 7.23941C57.2323 7.15884 57.3462 7.11279 57.483 7.11279C57.6197 7.11279 57.728 7.15308 57.8134 7.23941C57.8989 7.32574 57.9387 7.43509 57.9387 7.57322C57.9387 7.71135 57.8989 7.8207 57.8134 7.90703C57.728 7.99336 57.6197 8.03365 57.483 8.03365ZM57.7507 9.08688V14.5142H57.2152V9.08688H57.7507Z" fill="white"/>
<path d="M59.5167 6.58789V13.2353C59.5167 13.5691 59.5737 13.8051 59.6876 13.9432C59.8015 14.0813 59.9838 14.1504 60.2231 14.1504C60.3712 14.1504 60.4966 14.1389 60.582 14.1159C60.6732 14.0929 60.7757 14.0583 60.9011 14.0065L60.827 14.4842C60.7359 14.5245 60.6276 14.5648 60.508 14.5878C60.3883 14.6108 60.2573 14.6281 60.1149 14.6281C59.7332 14.6281 59.4483 14.5188 59.2603 14.2943C59.0723 14.0756 58.9755 13.7303 58.9755 13.2583V6.58789H59.5167Z" fill="white"/>
<path d="M64.6099 10.9465C64.6099 10.4745 64.4846 10.1119 64.2339 9.85295C63.9832 9.59396 63.6243 9.46158 63.1571 9.46158C62.747 9.46158 62.3994 9.54792 62.1032 9.72633C61.8069 9.90475 61.5905 10.1983 61.448 10.6127L61.0094 10.3306C61.1689 9.90475 61.4309 9.57093 61.8012 9.33496C62.1716 9.09899 62.6273 8.98389 63.1742 8.98389C63.5673 8.98389 63.9149 9.05296 64.2111 9.19684C64.5074 9.34072 64.7409 9.54792 64.9061 9.81842C65.0714 10.0947 65.1511 10.44 65.1511 10.8486V13.5651C65.1511 13.9508 65.322 14.1407 65.6696 14.1407C65.8177 14.1407 65.9487 14.1177 66.0569 14.0659L66.0228 14.4975C65.9031 14.5608 65.7436 14.5953 65.5499 14.5953C65.3847 14.5953 65.2309 14.5608 65.0884 14.4975C64.946 14.4342 64.8264 14.3249 64.7409 14.1695C64.6498 14.0198 64.6042 13.8126 64.6042 13.5479V13.2544L64.7523 13.2428C64.6897 13.5536 64.5472 13.8126 64.325 14.0198C64.1086 14.227 63.8522 14.3766 63.5673 14.4745C63.2825 14.5723 62.9919 14.6241 62.7071 14.6241C62.371 14.6241 62.069 14.5723 61.807 14.463C61.5392 14.3536 61.3341 14.1982 61.1803 13.991C61.0321 13.7839 60.9524 13.5306 60.9524 13.2256C60.9524 12.8227 61.0891 12.4946 61.3569 12.2414C61.6246 11.9882 62.0006 11.8213 62.4906 11.7234L64.7181 11.2803V11.7349L62.7641 12.1263C62.3425 12.2126 62.0234 12.3393 61.8183 12.5062C61.6075 12.6731 61.505 12.9033 61.505 13.1911C61.505 13.4903 61.6132 13.7205 61.8354 13.8932C62.0576 14.0659 62.371 14.1464 62.7811 14.1464C62.9862 14.1464 63.2027 14.1177 63.4135 14.0601C63.63 14.0026 63.8294 13.9105 64.0117 13.7839C64.194 13.6572 64.3421 13.4961 64.4447 13.3062C64.5529 13.1162 64.6042 12.8803 64.6042 12.604V10.9465H64.6099Z" fill="white"/>
<path d="M69.0421 14.6239C68.7117 14.6239 68.4041 14.5606 68.1249 14.4398C67.8401 14.3189 67.6008 14.1405 67.4071 13.9103C67.2077 13.68 67.0653 13.4095 66.9741 13.0988L67.0482 13.0124L67.0083 14.5203H66.524V6.59521H67.0596V10.5491L66.9969 10.4513C67.1393 10.0024 67.3957 9.64554 67.766 9.3808C68.1363 9.11605 68.5636 8.98368 69.0535 8.98368C69.5264 8.98368 69.948 9.09304 70.3126 9.32325C70.6772 9.54771 70.9677 9.87 71.1842 10.2901C71.4007 10.7103 71.509 11.2168 71.509 11.8096C71.509 12.3966 71.4007 12.9031 71.1842 13.3232C70.9677 13.7491 70.6772 14.0714 70.3069 14.2959C69.9252 14.5146 69.5036 14.6239 69.0421 14.6239ZM68.9738 14.1462C69.5834 14.1462 70.0676 13.9333 70.4208 13.5189C70.774 13.0988 70.9507 12.529 70.9507 11.8038C70.9507 11.0786 70.774 10.5089 70.4265 10.0887C70.0733 9.66857 69.5948 9.46137 68.9852 9.46137C68.6149 9.46137 68.2787 9.55921 67.9825 9.74914C67.6862 9.93907 67.4584 10.2153 67.2931 10.5722C67.1279 10.929 67.0482 11.3434 67.0482 11.8211C67.0482 12.2988 67.1336 12.7131 67.2931 13.0642C67.4527 13.4153 67.6862 13.6858 67.9768 13.8757C68.273 14.0541 68.6035 14.1462 68.9738 14.1462Z" fill="white"/>
<path d="M72.8875 6.58789V13.2353C72.8875 13.5691 72.9445 13.8051 73.0584 13.9432C73.1724 14.0813 73.3547 14.1504 73.594 14.1504C73.7421 14.1504 73.8674 14.1389 73.9529 14.1159C74.044 14.0929 74.1466 14.0583 74.2719 14.0065L74.1979 14.4842C74.1067 14.5245 73.9985 14.5648 73.8788 14.5878C73.7592 14.6108 73.6282 14.6281 73.4857 14.6281C73.104 14.6281 72.8192 14.5188 72.6312 14.2943C72.4432 14.0756 72.3463 13.7303 72.3463 13.2583V6.58789H72.8875Z" fill="white"/>
<path d="M76.8415 14.623C76.3458 14.623 75.9072 14.5137 75.5198 14.2892C75.1324 14.0648 74.8304 13.7425 74.6139 13.3166C74.3975 12.8907 74.2835 12.39 74.2835 11.8029C74.2835 11.2159 74.3918 10.7094 74.6139 10.2893C74.8304 9.86337 75.1267 9.54107 75.5027 9.31661C75.873 9.09216 76.3003 8.97705 76.7788 8.97705C77.2688 8.97705 77.6847 9.08641 78.0265 9.30511C78.3683 9.52381 78.6361 9.82308 78.8241 10.2144C79.0121 10.6001 79.1032 11.049 79.1032 11.5554C79.1032 11.6188 79.1032 11.6821 79.0975 11.7454C79.0918 11.8087 79.0861 11.8605 79.0804 11.9123H74.6196V11.4231H78.8468L78.5791 11.4979C78.5734 10.8763 78.4082 10.3814 78.0891 10.0073C77.7701 9.63892 77.3314 9.45475 76.7731 9.45475C76.3857 9.45475 76.0439 9.54683 75.7533 9.731C75.4571 9.91517 75.2292 10.1857 75.064 10.5368C74.8988 10.8878 74.819 11.308 74.819 11.8029C74.819 12.2864 74.9045 12.7065 75.0697 13.0633C75.2349 13.4202 75.4742 13.6907 75.7761 13.8748C76.0781 14.059 76.4313 14.1511 76.8358 14.1511C77.2517 14.1511 77.6106 14.059 77.9068 13.8806C78.2031 13.7022 78.4367 13.449 78.6019 13.1324L79.0348 13.3799C78.9038 13.6389 78.7329 13.8633 78.5164 14.0475C78.2999 14.2317 78.055 14.3756 77.7758 14.4734C77.491 14.577 77.1776 14.623 76.8415 14.623Z" fill="white"/>
<path d="M84.9027 8.97705C85.404 8.97705 85.8484 9.0864 86.2301 9.31661C86.6118 9.54107 86.9138 9.86337 87.1302 10.2893C87.3467 10.7152 87.4607 11.2159 87.4607 11.8029C87.4607 12.39 87.3524 12.8964 87.1302 13.3166C86.9138 13.7425 86.6118 14.0648 86.2301 14.2892C85.8484 14.5137 85.404 14.623 84.9027 14.623C84.4014 14.623 83.957 14.5137 83.5753 14.2892C83.1936 14.0648 82.8916 13.7425 82.6694 13.3166C82.453 12.8907 82.339 12.39 82.339 11.8029C82.339 11.2159 82.4473 10.7094 82.6694 10.2893C82.8859 9.86337 83.1879 9.54107 83.5753 9.31661C83.9627 9.09216 84.4014 8.97705 84.9027 8.97705ZM84.9027 9.44323C84.4925 9.44323 84.1393 9.53532 83.8373 9.72525C83.5354 9.91517 83.3018 10.1857 83.1309 10.5368C82.96 10.8878 82.8802 11.308 82.8802 11.8029C82.8802 12.2864 82.9657 12.7065 83.1309 13.0633C83.2961 13.4202 83.5354 13.6907 83.8373 13.8806C84.1393 14.0705 84.4925 14.1626 84.9027 14.1626C85.3129 14.1626 85.6661 14.0705 85.968 13.8806C86.27 13.6907 86.5036 13.4202 86.6745 13.0633C86.8397 12.7065 86.9251 12.2864 86.9251 11.8029C86.9251 11.308 86.8397 10.8878 86.6745 10.5368C86.5036 10.1857 86.27 9.91517 85.968 9.72525C85.6661 9.54108 85.3129 9.44323 84.9027 9.44323Z" fill="white"/>
<path d="M88.3549 14.5148V9.08749H88.8392L88.8791 10.4457L88.7936 10.3709C88.8962 10.0716 89.0443 9.82417 89.2437 9.61698C89.4431 9.40979 89.6824 9.2544 89.9615 9.14504C90.2407 9.03569 90.5426 8.98389 90.8617 8.98389C91.2605 8.98389 91.6194 9.05871 91.927 9.21411C92.2346 9.36374 92.4796 9.5882 92.6505 9.88748C92.8271 10.1868 92.9126 10.5551 92.9126 11.004V14.5205H92.3771V11.1767C92.3771 10.5839 92.2289 10.1465 91.9384 9.87021C91.6478 9.59396 91.2718 9.45583 90.8047 9.45583C90.4686 9.45583 90.1552 9.5364 89.8647 9.68604C89.5741 9.84143 89.3406 10.0659 89.1582 10.3652C88.9759 10.6645 88.8848 11.0213 88.8848 11.4529V14.5148H88.3549Z" fill="white"/>
<path d="M99.5443 9.087V9.55318H95.921V9.087H99.5443ZM97.5333 7.5791V13.087C97.5333 13.4265 97.613 13.6855 97.7726 13.8639C97.9321 14.0424 98.1714 14.1287 98.479 14.1287C98.6784 14.1287 98.855 14.0941 99.0088 14.0251C99.1626 13.956 99.2994 13.8582 99.4247 13.7258L99.6298 14.169C99.4931 14.3071 99.3221 14.4164 99.1114 14.5028C98.9006 14.5834 98.6727 14.6294 98.4106 14.6294C98.1315 14.6294 97.8865 14.5776 97.67 14.474C97.4535 14.3704 97.2883 14.2093 97.1687 13.9906C97.049 13.7719 96.9921 13.4956 96.9921 13.1675V7.74025L97.5333 7.5791Z" fill="white"/>
<path d="M100.051 14.513V6.58789H100.587V10.1907C100.746 9.80512 100.997 9.50585 101.35 9.2929C101.703 9.07995 102.108 8.9706 102.564 8.9706C102.963 8.9706 103.321 9.04542 103.629 9.19506C103.937 9.3447 104.182 9.56916 104.353 9.86843C104.529 10.1677 104.615 10.5418 104.615 10.9792V14.5072H104.079V11.1519C104.079 10.5648 103.931 10.1332 103.64 9.85692C103.35 9.58067 102.974 9.43678 102.507 9.43678C102.171 9.43678 101.857 9.51736 101.567 9.67851C101.276 9.83966 101.043 10.0641 100.86 10.3634C100.678 10.6627 100.587 11.0195 100.587 11.4512V14.513H100.051Z" fill="white"/>
<path d="M108.027 14.623C107.532 14.623 107.093 14.5137 106.706 14.2892C106.318 14.0648 106.016 13.7425 105.8 13.3166C105.583 12.8907 105.469 12.39 105.469 11.8029C105.469 11.2159 105.578 10.7094 105.8 10.2893C106.016 9.86337 106.312 9.54107 106.688 9.31661C107.059 9.09216 107.486 8.97705 107.965 8.97705C108.455 8.97705 108.87 9.08641 109.212 9.30511C109.554 9.52381 109.822 9.82308 110.01 10.2144C110.198 10.6001 110.289 11.049 110.289 11.5554C110.289 11.6188 110.289 11.6821 110.283 11.7454C110.278 11.8087 110.272 11.8605 110.266 11.9123H105.805V11.4231H110.033L109.765 11.4979C109.759 10.8763 109.594 10.3814 109.275 10.0073C108.956 9.63892 108.517 9.45475 107.959 9.45475C107.572 9.45475 107.23 9.54683 106.939 9.731C106.643 9.91517 106.415 10.1857 106.25 10.5368C106.085 10.8878 106.005 11.308 106.005 11.8029C106.005 12.2864 106.09 12.7065 106.255 13.0633C106.421 13.4202 106.66 13.6907 106.962 13.8748C107.264 14.059 107.617 14.1511 108.022 14.1511C108.437 14.1511 108.796 14.059 109.093 13.8806C109.389 13.7022 109.622 13.449 109.788 13.1324L110.221 13.3799C110.09 13.6389 109.919 13.8633 109.702 14.0475C109.486 14.2317 109.241 14.3756 108.962 14.4734C108.671 14.577 108.363 14.623 108.027 14.623Z" fill="white"/>
</svg>
