<svg width="135" height="45" viewBox="0 0 135 45" fill="none" xmlns="http://www.w3.org/2000/svg">
<path d="M128.235 44.8111H6.20409C2.78586 44.8111 0 42.0025 0 38.5435V6.26757C0 2.81436 2.78016 0 6.20409 0H128.235C131.653 0 134.433 2.80861 134.433 6.26757V38.5493C134.433 42.0025 131.653 44.8111 128.235 44.8111ZM6.20409 0.575534C3.0992 0.575534 0.569705 3.13091 0.569705 6.26757V38.5493C0.569705 41.686 3.0992 44.2413 6.20409 44.2413H128.235C131.34 44.2413 133.869 41.686 133.869 38.5493V6.26757C133.869 3.13091 131.346 0.575534 128.235 0.575534H6.20409Z" fill="white"/>
<path d="M27.6535 23.3267C27.6193 19.8678 30.4621 18.1815 30.5875 18.1009C28.9809 15.7297 26.4913 15.4074 25.6139 15.3844C23.5231 15.1599 21.495 16.6505 20.4296 16.6505C19.3415 16.6505 17.7007 15.4074 15.9346 15.4419C13.6558 15.4764 11.5308 16.8117 10.3629 18.8778C7.95307 23.0908 9.75334 29.2835 12.0606 32.6907C13.2171 34.3597 14.5673 36.2187 16.3334 36.1554C18.0596 36.0806 18.7034 35.0446 20.7942 35.0446C22.8623 35.0446 23.4661 36.1554 25.2664 36.1151C27.118 36.0863 28.2858 34.4403 29.4025 32.754C30.7413 30.8432 31.2768 28.9612 31.2939 28.8634C31.2426 28.8461 27.6877 27.4763 27.6535 23.3267Z" fill="white"/>
<path d="M24.2469 13.1389C25.1755 11.9648 25.8136 10.3648 25.637 8.74756C24.2925 8.80511 22.6118 9.68568 21.6433 10.8367C20.7888 11.8497 20.0197 13.5072 20.2191 15.0669C21.7288 15.182 23.2784 14.2957 24.2469 13.1389Z" fill="white"/>
<path d="M52.6236 35.8805H50.2194L48.8977 31.6906H44.3173L43.0582 35.8805H40.7167L45.263 21.6245H48.0659L52.6236 35.8805ZM48.5046 29.9352L47.3139 26.2115C47.1886 25.8317 46.9493 24.9338 46.6018 23.5295H46.5619C46.4195 24.1338 46.1973 25.0317 45.8897 26.2115L44.7161 29.9352H48.5046Z" fill="white"/>
<path d="M64.3082 30.6116C64.3082 32.3612 63.8411 33.7425 62.9068 34.7554C62.0693 35.659 61.0267 36.1079 59.7905 36.1079C58.4517 36.1079 57.4889 35.6187 56.9021 34.6461H56.8622V40.0619H54.6005V28.9828C54.6005 27.8836 54.572 26.7555 54.515 25.5987H56.5033L56.6286 27.2275H56.6742C57.4262 26.0016 58.5713 25.3857 60.1038 25.3857C61.3002 25.3857 62.3029 25.8634 63.1062 26.8246C63.9037 27.7857 64.3082 29.0461 64.3082 30.6116ZM62.0009 30.6922C62.0009 29.6907 61.7787 28.8677 61.3287 28.2174C60.8387 27.544 60.1836 27.2044 59.3632 27.2044C58.8049 27.2044 58.2978 27.3944 57.8478 27.7627C57.392 28.1368 57.0958 28.626 56.959 29.2361C56.8907 29.5181 56.8565 29.7483 56.8565 29.9325V31.6476C56.8565 32.3957 57.0844 33.0231 57.5344 33.5411C57.9902 34.059 58.577 34.3123 59.3062 34.3123C60.1551 34.3123 60.8216 33.9842 61.2945 33.3224C61.7673 32.6547 62.0009 31.7799 62.0009 30.6922Z" fill="white"/>
<path d="M76.0041 30.6116C76.0041 32.3612 75.5369 33.7425 74.6026 34.7554C73.7652 35.659 72.7283 36.1079 71.4863 36.1079C70.1475 36.1079 69.1847 35.6187 68.5979 34.6461H68.5581V40.0619H66.2963V28.9828C66.2963 27.8836 66.2678 26.7555 66.2109 25.5987H68.1992L68.3245 27.2275H68.3701C69.1221 26.0016 70.2672 25.3857 71.7997 25.3857C72.9961 25.3857 73.9987 25.8634 74.802 26.8246C75.6053 27.7857 76.0041 29.0461 76.0041 30.6116ZM73.7025 30.6922C73.7025 29.6907 73.4803 28.8677 73.0302 28.2174C72.5403 27.544 71.8851 27.2044 71.0648 27.2044C70.5065 27.2044 69.9994 27.3944 69.5493 27.7627C69.0936 28.1368 68.7973 28.626 68.6606 29.2361C68.5865 29.5181 68.5524 29.7483 68.5524 29.9325V31.6476C68.5524 32.3957 68.7802 33.0231 69.2303 33.5411C69.6861 34.059 70.2729 34.3123 71.0021 34.3123C71.851 34.3123 72.5175 33.9842 72.9904 33.3224C73.4632 32.6547 73.7025 31.7799 73.7025 30.6922Z" fill="white"/>
<path d="M89.0902 31.8782C89.0902 33.0925 88.6743 34.0767 87.8369 34.8364C86.9196 35.6709 85.6378 36.0853 83.997 36.0853C82.4816 36.0853 81.2625 35.7918 80.3395 35.199L80.8637 33.294C81.855 33.8983 82.9431 34.2033 84.1338 34.2033C84.9883 34.2033 85.6492 34.0076 86.122 33.622C86.5949 33.2307 86.8342 32.7127 86.8342 32.0623C86.8342 31.4868 86.6405 30.9976 86.2474 30.6005C85.86 30.2033 85.2048 29.835 84.299 29.4954C81.8265 28.5631 80.5959 27.1991 80.5959 25.4091C80.5959 24.2351 81.0289 23.2739 81.8948 22.5315C82.7608 21.7833 83.9116 21.4092 85.3472 21.4092C86.6291 21.4092 87.7001 21.6336 88.549 22.0883L87.985 23.9473C87.1874 23.5099 86.2873 23.2912 85.2846 23.2912C84.487 23.2912 83.8717 23.4869 83.4216 23.884C83.0456 24.2351 82.8576 24.6667 82.8576 25.1732C82.8576 25.7372 83.0741 26.2034 83.5071 26.566C83.8831 26.9055 84.5668 27.2739 85.558 27.6652C86.7715 28.1602 87.6659 28.7357 88.2357 29.3976C88.8054 30.071 89.0902 30.894 89.0902 31.8782Z" fill="white"/>
<path d="M96.5649 27.3153H94.0753V32.3052C94.0753 33.5713 94.514 34.2102 95.397 34.2102C95.8015 34.2102 96.1319 34.1757 96.3997 34.1066L96.4623 35.8389C96.018 36.0058 95.4312 36.0922 94.7077 36.0922C93.8132 36.0922 93.1182 35.8159 92.6168 35.2692C92.1155 34.7167 91.8648 33.7958 91.8648 32.4951V27.3153H90.3779V25.6002H91.8648V23.7182L94.0867 23.0391V25.6002H96.5763V27.3153H96.5649Z" fill="white"/>
<path d="M107.805 30.6519C107.805 32.2288 107.361 33.5296 106.466 34.5425C105.532 35.5842 104.284 36.1079 102.741 36.1079C101.248 36.1079 100.057 35.6072 99.1685 34.6058C98.2797 33.6044 97.8411 32.344 97.8411 30.8245C97.8411 29.2303 98.2968 27.9238 99.2141 26.9109C100.126 25.8922 101.356 25.3857 102.906 25.3857C104.398 25.3857 105.6 25.8865 106.506 26.8879C107.372 27.8663 107.805 29.1152 107.805 30.6519ZM105.458 30.7267C105.458 29.7771 105.259 28.9656 104.848 28.2864C104.376 27.4692 103.698 27.0548 102.82 27.0548C101.909 27.0548 101.219 27.4634 100.747 28.2864C100.342 28.9656 100.143 29.7943 100.143 30.767C100.143 31.7166 100.342 32.5281 100.747 33.2015C101.237 34.0188 101.92 34.4331 102.797 34.4331C103.658 34.4331 104.336 34.0188 104.826 33.1842C105.247 32.4936 105.458 31.6763 105.458 30.7267Z" fill="white"/>
<path d="M115.149 27.6084C114.926 27.5681 114.687 27.5451 114.436 27.5451C113.645 27.5451 113.024 27.8501 112.591 28.4544C112.215 28.9897 112.027 29.6688 112.027 30.4861V35.8788H109.765L109.782 28.84C109.782 27.6544 109.754 26.5782 109.697 25.6055H111.662L111.747 27.5739H111.81C112.049 26.8947 112.425 26.3537 112.944 25.9451C113.445 25.5767 113.992 25.3926 114.579 25.3926C114.784 25.3926 114.978 25.4098 115.143 25.4329V27.6084H115.149Z" fill="white"/>
<path d="M125.261 30.249C125.261 30.6576 125.233 31.0029 125.181 31.2849H118.402C118.425 32.2979 118.755 33.0748 119.382 33.6101C119.951 34.0878 120.692 34.3238 121.604 34.3238C122.606 34.3238 123.523 34.1626 124.344 33.8403L124.697 35.4288C123.734 35.8489 122.601 36.0619 121.285 36.0619C119.706 36.0619 118.47 35.5899 117.57 34.6518C116.67 33.7137 116.22 32.4533 116.22 30.8763C116.22 29.3281 116.636 28.0332 117.479 27.003C118.356 25.9037 119.541 25.3569 121.034 25.3569C122.498 25.3569 123.609 25.9037 124.367 27.003C124.959 27.8893 125.261 28.9655 125.261 30.249ZM123.102 29.6562C123.119 28.9828 122.971 28.3958 122.663 27.9008C122.27 27.2677 121.672 26.9512 120.863 26.9512C120.122 26.9512 119.524 27.262 119.063 27.8835C118.687 28.3785 118.465 28.9655 118.396 29.6562H123.102Z" fill="white"/>
<path d="M47.2285 16.6859H46.6588L45.7644 14.4356H42.3803L41.4859 16.6859H40.9162L43.7533 9.52051H44.3857L47.2285 16.6859ZM42.574 13.9406H45.5707L44.0667 10.05L42.574 13.9406Z" fill="white"/>
<path d="M51.0969 11.2568H51.6666L49.4219 16.6841H48.8864L46.6418 11.2568H47.2457L49.1713 16.1201L51.0969 11.2568Z" fill="white"/>
<path d="M55.313 13.1105C55.313 12.6386 55.1876 12.276 54.937 12.017C54.6863 11.758 54.3274 11.6256 53.8602 11.6256C53.45 11.6256 53.1025 11.712 52.8063 11.8904C52.51 12.0688 52.2935 12.3623 52.1511 12.7767L51.7124 12.4947C51.8719 12.0688 52.134 11.735 52.5043 11.499C52.8746 11.2631 53.3304 11.1479 53.8773 11.1479C54.2704 11.1479 54.6179 11.217 54.9142 11.3609C55.2104 11.5048 55.444 11.712 55.6092 11.9825C55.7744 12.2587 55.8542 12.6041 55.8542 13.0127V15.7292C55.8542 16.1148 56.0251 16.3047 56.3726 16.3047C56.5207 16.3047 56.6518 16.2817 56.76 16.2299L56.7258 16.6616C56.6062 16.7249 56.4467 16.7594 56.253 16.7594C56.0878 16.7594 55.9339 16.7249 55.7915 16.6616C55.6491 16.5983 55.5295 16.4889 55.444 16.3335C55.3528 16.1839 55.3073 15.9767 55.3073 15.7119V15.4184L55.4554 15.4069C55.3927 15.7177 55.2503 15.9767 55.0281 16.1839C54.8116 16.3911 54.5553 16.5407 54.2704 16.6385C53.9855 16.7364 53.695 16.7882 53.4101 16.7882C53.074 16.7882 52.7721 16.7364 52.51 16.627C52.2423 16.5177 52.0372 16.3623 51.8833 16.1551C51.7352 15.9479 51.6555 15.6947 51.6555 15.3896C51.6555 14.9868 51.7922 14.6587 52.06 14.4055C52.3277 14.1522 52.7037 13.9853 53.1937 13.8875L55.4212 13.4443V13.899L53.4671 14.2904C53.0455 14.3767 52.7265 14.5033 52.5214 14.6702C52.3163 14.8371 52.2081 15.0673 52.2081 15.3551C52.2081 15.6544 52.3163 15.8846 52.5442 16.0573C52.7664 16.2299 53.0797 16.3105 53.4899 16.3105C53.695 16.3105 53.9115 16.2817 54.1223 16.2242C54.3388 16.1666 54.5382 16.0745 54.7205 15.9479C54.9028 15.8213 55.0509 15.6601 55.1534 15.4702C55.2617 15.2803 55.313 15.0443 55.313 14.7681V13.1105Z" fill="white"/>
<path d="M57.4833 10.2045C57.3466 10.2045 57.2384 10.1643 57.1529 10.0779C57.0675 9.99735 57.0276 9.88224 57.0276 9.74412C57.0276 9.60599 57.0675 9.49664 57.1529 9.41031C57.2327 9.32973 57.3466 9.28369 57.4833 9.28369C57.6201 9.28369 57.7283 9.32398 57.8138 9.41031C57.8992 9.49664 57.9391 9.60599 57.9391 9.74412C57.9391 9.88224 57.8992 9.9916 57.8138 10.0779C57.7283 10.1585 57.6201 10.2045 57.4833 10.2045ZM57.7511 11.2578V16.6851H57.2156V11.2578H57.7511Z" fill="white"/>
<path d="M59.517 8.75879V15.4062C59.517 15.74 59.574 15.976 59.688 16.1141C59.8019 16.2523 59.9842 16.3213 60.2235 16.3213C60.3716 16.3213 60.4969 16.3098 60.5824 16.2868C60.6735 16.2638 60.7761 16.2292 60.9014 16.1774L60.8274 16.6551C60.7362 16.6954 60.628 16.7357 60.5083 16.7587C60.3887 16.7817 60.2577 16.799 60.1152 16.799C59.7335 16.799 59.4487 16.6897 59.2607 16.4652C59.0727 16.2465 58.9758 15.9012 58.9758 15.4292V8.75879H59.517Z" fill="white"/>
<path d="M64.6103 13.1105C64.6103 12.6386 64.4849 12.276 64.2343 12.017C63.9836 11.758 63.6247 11.6256 63.1575 11.6256C62.7473 11.6256 62.3998 11.712 62.1036 11.8904C61.8073 12.0688 61.5908 12.3623 61.4484 12.7767L61.0097 12.4947C61.1692 12.0688 61.4313 11.735 61.8016 11.499C62.1719 11.2631 62.6277 11.1479 63.1746 11.1479C63.5677 11.1479 63.9152 11.217 64.2115 11.3609C64.5077 11.5048 64.7413 11.712 64.9065 11.9825C65.0717 12.2587 65.1515 12.6041 65.1515 13.0127V15.7292C65.1515 16.1148 65.3224 16.3047 65.6699 16.3047C65.818 16.3047 65.9491 16.2817 66.0573 16.2299L66.0231 16.6616C65.9035 16.7249 65.744 16.7594 65.5503 16.7594C65.3851 16.7594 65.2312 16.7249 65.0888 16.6616C64.9464 16.5983 64.8268 16.4889 64.7413 16.3335C64.6501 16.1839 64.6046 15.9767 64.6046 15.7119V15.4184L64.7527 15.4069C64.69 15.7177 64.5476 15.9767 64.3254 16.1839C64.1089 16.3911 63.8526 16.5407 63.5677 16.6385C63.2829 16.7364 62.9923 16.7882 62.7075 16.7882C62.3713 16.7882 62.0694 16.7364 61.8073 16.627C61.5396 16.5177 61.3345 16.3623 61.1806 16.1551C61.0325 15.9479 60.9528 15.6947 60.9528 15.3896C60.9528 14.9868 61.0895 14.6587 61.3572 14.4055C61.625 14.1522 62.001 13.9853 62.491 13.8875L64.7185 13.4443V13.899L62.7644 14.2904C62.3428 14.3767 62.0238 14.5033 61.8187 14.6702C61.6079 14.8371 61.5054 15.0673 61.5054 15.3551C61.5054 15.6544 61.6136 15.8846 61.8358 16.0573C62.058 16.2299 62.3713 16.3105 62.7815 16.3105C62.9866 16.3105 63.2031 16.2817 63.4139 16.2242C63.6304 16.1666 63.8298 16.0745 64.0121 15.9479C64.1944 15.8213 64.3425 15.6601 64.445 15.4702C64.5533 15.2803 64.6046 15.0443 64.6046 14.7681V13.1105H64.6103Z" fill="white"/>
<path d="M69.0425 16.7932C68.7121 16.7932 68.4044 16.7299 68.1253 16.6091C67.8404 16.4882 67.6012 16.3098 67.4075 16.0796C67.2081 15.8494 67.0656 15.5789 66.9745 15.2681L67.0485 15.1818L67.0087 16.6897H66.5244V8.75879H67.0599V12.7127L66.9973 12.6149C67.1397 12.166 67.3961 11.8091 67.7664 11.5444C68.1367 11.2796 68.564 11.1473 69.0539 11.1473C69.5268 11.1473 69.9483 11.2566 70.313 11.4811C70.6776 11.7055 70.9681 12.0278 71.1846 12.448C71.4011 12.8681 71.5093 13.3746 71.5093 13.9674C71.5093 14.5544 71.4011 15.0609 71.1846 15.481C70.9681 15.9069 70.6776 16.2292 70.3073 16.4537C69.9256 16.6781 69.504 16.7932 69.0425 16.7932ZM68.9741 16.3156C69.5837 16.3156 70.068 16.1026 70.4212 15.6882C70.7744 15.2681 70.951 14.6983 70.951 13.9731C70.951 13.248 70.7744 12.6782 70.4269 12.258C70.0737 11.8379 69.5951 11.6307 68.9855 11.6307C68.6152 11.6307 68.2791 11.7285 67.9829 11.9185C67.6866 12.1084 67.4587 12.3847 67.2935 12.7415C67.1283 13.0983 67.0485 13.5127 67.0485 13.9904C67.0485 14.4681 67.134 14.8825 67.2935 15.2336C67.4587 15.5846 67.6866 15.8551 67.9772 16.0451C68.2734 16.2235 68.6038 16.3156 68.9741 16.3156Z" fill="white"/>
<path d="M72.8879 8.75879V15.4062C72.8879 15.74 72.9449 15.976 73.0588 16.1141C73.1728 16.2523 73.3551 16.3213 73.5943 16.3213C73.7425 16.3213 73.8678 16.3098 73.9532 16.2868C74.0444 16.2638 74.1469 16.2292 74.2723 16.1774L74.1982 16.6551C74.1071 16.6954 73.9988 16.7357 73.8792 16.7587C73.7595 16.7817 73.6285 16.799 73.4861 16.799C73.1044 16.799 72.8195 16.6897 72.6315 16.4652C72.4435 16.2465 72.3467 15.9012 72.3467 15.4292V8.75879H72.8879Z" fill="white"/>
<path d="M76.8419 16.7926C76.3462 16.7926 75.9075 16.6832 75.5201 16.4588C75.1327 16.2343 74.8308 15.912 74.6143 15.4861C74.3978 15.0602 74.2839 14.5595 74.2839 13.9725C74.2839 13.3854 74.3921 12.8789 74.6143 12.4588C74.8365 12.0387 75.127 11.7106 75.503 11.4862C75.8734 11.2617 76.3006 11.1523 76.7792 11.1523C77.2691 11.1523 77.685 11.2617 78.0268 11.4804C78.3687 11.6991 78.6364 11.9984 78.8244 12.3897C79.0124 12.7754 79.1036 13.2243 79.1036 13.7307C79.1036 13.794 79.1036 13.8574 79.0979 13.9207C79.0922 13.984 79.0865 14.0358 79.0808 14.0876H74.62V13.5984H78.8472L78.5795 13.6732C78.5738 13.0516 78.4085 12.5566 78.0895 12.1826C77.7705 11.8142 77.3318 11.63 76.7735 11.63C76.3861 11.63 76.0443 11.7221 75.7537 11.9063C75.4575 12.0905 75.2296 12.361 75.0644 12.712C74.8992 13.0631 74.8194 13.4833 74.8194 13.9782C74.8194 14.4617 74.9049 14.8818 75.0701 15.2386C75.2353 15.5955 75.4746 15.866 75.7765 16.0501C76.0784 16.2343 76.4317 16.3264 76.8362 16.3264C77.252 16.3264 77.611 16.2343 77.9072 16.0559C78.2034 15.8775 78.437 15.6242 78.6022 15.3077L79.0352 15.5552C78.9042 15.8142 78.7333 16.0386 78.5168 16.2228C78.3003 16.407 78.0553 16.5509 77.7762 16.6487C77.4913 16.7408 77.178 16.7926 76.8419 16.7926Z" fill="white"/>
<path d="M84.9031 11.1479C85.4044 11.1479 85.8488 11.2573 86.2305 11.4818C86.6122 11.7062 86.9141 12.0285 87.1306 12.4544C87.3471 12.8803 87.461 13.381 87.461 13.9681C87.461 14.5551 87.3528 15.0616 87.1306 15.4817C86.9084 15.9019 86.6122 16.2299 86.2305 16.4544C85.8488 16.6788 85.4044 16.7882 84.9031 16.7882C84.4017 16.7882 83.9573 16.6788 83.5756 16.4544C83.1939 16.2299 82.892 15.9076 82.6698 15.4817C82.4476 15.0558 82.3394 14.5551 82.3394 13.9681C82.3394 13.381 82.4476 12.8746 82.6698 12.4544C82.892 12.0343 83.1882 11.7062 83.5756 11.4818C83.963 11.2573 84.4017 11.1479 84.9031 11.1479ZM84.9031 11.6141C84.4929 11.6141 84.1397 11.7062 83.8377 11.8961C83.5358 12.0861 83.3022 12.3566 83.1313 12.7076C82.9604 13.0587 82.8806 13.4789 82.8806 13.9738C82.8806 14.4573 82.9661 14.8774 83.1313 15.2342C83.2965 15.5911 83.5358 15.8616 83.8377 16.0515C84.1397 16.2414 84.4929 16.3335 84.9031 16.3335C85.3132 16.3335 85.6665 16.2414 85.9684 16.0515C86.2703 15.8616 86.5039 15.5911 86.6748 15.2342C86.8401 14.8774 86.9255 14.4573 86.9255 13.9738C86.9255 13.4789 86.8401 13.0587 86.6748 12.7076C86.5039 12.3566 86.2703 12.0861 85.9684 11.8961C85.6665 11.7062 85.3132 11.6141 84.9031 11.6141Z" fill="white"/>
<path d="M88.3553 16.6837V11.2564H88.8396L88.8794 12.6147L88.794 12.5399C88.8965 12.2406 89.0447 11.9931 89.2441 11.7859C89.4435 11.5787 89.6827 11.4233 89.9619 11.314C90.241 11.2046 90.543 11.1528 90.862 11.1528C91.2608 11.1528 91.6197 11.2277 91.9274 11.383C92.235 11.5327 92.48 11.7571 92.6509 12.0564C92.8275 12.3557 92.913 12.724 92.913 13.173V16.6895H92.3774V13.3456C92.3774 12.7528 92.2293 12.3154 91.9388 12.0392C91.6482 11.7629 91.2722 11.6248 90.8051 11.6248C90.4689 11.6248 90.1556 11.7053 89.865 11.855C89.5745 12.0104 89.3409 12.2348 89.1586 12.5341C88.9763 12.8334 88.8851 13.1902 88.8851 13.6219V16.6837H88.3553Z" fill="white"/>
<path d="M99.5446 11.2568V11.723H95.9213V11.2568H99.5446ZM97.5336 9.74316V15.251C97.5336 15.5906 97.6134 15.8496 97.7729 16.028C97.9324 16.2064 98.1717 16.2927 98.4793 16.2927C98.6787 16.2927 98.8553 16.2582 99.0091 16.1892C99.1629 16.1201 99.2997 16.0222 99.425 15.8899L99.6301 16.333C99.4934 16.4712 99.3225 16.5805 99.1117 16.6668C98.9009 16.7474 98.673 16.7935 98.4109 16.7935C98.1318 16.7935 97.8868 16.7417 97.6703 16.6381C97.4538 16.5345 97.2886 16.3733 97.169 16.1546C97.0493 15.9359 96.9924 15.6597 96.9924 15.3316V9.90432L97.5336 9.74316Z" fill="white"/>
<path d="M100.052 16.6839V8.75879H100.587V12.3616C100.747 11.976 100.997 11.6768 101.351 11.4638C101.704 11.2509 102.108 11.1415 102.564 11.1415C102.963 11.1415 103.322 11.2163 103.629 11.366C103.937 11.5156 104.182 11.7401 104.353 12.0393C104.529 12.3386 104.615 12.7127 104.615 13.1501V16.6781H104.079V13.3228C104.079 12.7357 103.931 12.3041 103.641 12.0278C103.35 11.7516 102.974 11.6077 102.507 11.6077C102.171 11.6077 101.858 11.6883 101.567 11.8494C101.276 12.0106 101.043 12.235 100.861 12.5343C100.678 12.8336 100.587 13.1904 100.587 13.6221V16.6839H100.052Z" fill="white"/>
<path d="M108.028 16.7931C107.532 16.7931 107.093 16.6837 106.706 16.4593C106.319 16.2348 106.017 15.9125 105.8 15.4866C105.584 15.0607 105.47 14.56 105.47 13.973C105.47 13.3859 105.578 12.8794 105.8 12.4593C106.022 12.0392 106.313 11.7111 106.689 11.4866C107.059 11.2622 107.486 11.1528 107.965 11.1528C108.455 11.1528 108.871 11.2622 109.213 11.4809C109.554 11.6996 109.822 11.9989 110.01 12.3902C110.198 12.7758 110.289 13.2248 110.289 13.7312C110.289 13.7945 110.289 13.8578 110.284 13.9212C110.278 13.9845 110.272 14.0363 110.267 14.0881H105.806V13.5989H110.033L109.765 13.6737C109.76 13.0521 109.594 12.5571 109.275 12.183C108.956 11.8147 108.518 11.6305 107.959 11.6305C107.572 11.6305 107.23 11.7226 106.94 11.9068C106.643 12.091 106.415 12.3615 106.25 12.7125C106.085 13.0636 106.005 13.4837 106.005 13.9787C106.005 14.4622 106.091 14.8823 106.256 15.2391C106.421 15.596 106.66 15.8665 106.962 16.0506C107.264 16.2348 107.617 16.3269 108.022 16.3269C108.438 16.3269 108.797 16.2348 109.093 16.0564C109.389 15.878 109.623 15.6247 109.788 15.3082L110.221 15.5557C110.09 15.8147 109.919 16.0391 109.703 16.2233C109.486 16.4075 109.241 16.5513 108.962 16.6492C108.671 16.7413 108.364 16.7931 108.028 16.7931Z" fill="white"/>
</svg>
