<svg width="159" height="53" viewBox="0 0 159 53" fill="none" xmlns="http://www.w3.org/2000/svg">
<path d="M151.475 52.8968H7.32844C3.29073 52.8968 0 49.5878 0 45.5127V7.4871C0 3.41874 3.284 0.103027 7.32844 0.103027H151.475C155.512 0.103027 158.796 3.41196 158.796 7.4871V45.5195C158.796 49.5878 155.512 52.8968 151.475 52.8968ZM7.32844 0.781087C3.66086 0.781087 0.672952 3.79167 0.672952 7.4871V45.5195C0.672952 49.2149 3.66086 52.2255 7.32844 52.2255H151.475C155.142 52.2255 158.13 49.2149 158.13 45.5195V7.4871C158.13 3.79167 155.149 0.781087 151.475 0.781087H7.32844Z" fill="#14181D"/>
<path d="M32.6652 27.586C32.6248 23.5109 35.9829 21.5242 36.1309 21.4292C34.2332 18.6356 31.2924 18.2559 30.2561 18.2288C27.7863 17.9643 25.3906 19.7205 24.1322 19.7205C22.8469 19.7205 20.9088 18.2559 18.8226 18.2966C16.1308 18.3373 13.6207 19.9104 12.2411 22.3446C9.39456 27.308 11.5211 34.6039 14.2465 38.618C15.6126 40.5844 17.2075 42.7745 19.2937 42.7C21.3327 42.6118 22.0932 41.3913 24.5629 41.3913C27.0057 41.3913 27.719 42.7 29.8456 42.6525C32.0327 42.6186 33.4122 40.6794 34.7312 38.6926C36.3126 36.4415 36.9452 34.2242 36.9654 34.1089C36.9048 34.0886 32.7056 32.4748 32.6652 27.586Z" fill="#14181D"/>
<path d="M28.6411 15.5818C29.738 14.1986 30.4917 12.3136 30.2831 10.4082C28.6949 10.476 26.7097 11.5134 25.5657 12.8696C24.5563 14.0629 23.6478 16.0158 23.8833 17.8533C25.6666 17.9889 27.497 16.9447 28.6411 15.5818Z" fill="#14181D"/>
<path d="M62.1606 42.3746H59.3208L57.7595 37.4384H52.349L50.8618 42.3746H48.0959L53.4661 25.5791H56.777L62.1606 42.3746ZM57.2952 35.3703L55.8887 30.9832C55.7407 30.5357 55.458 29.4779 55.0475 27.8235H55.0004C54.8322 28.5354 54.5697 29.5932 54.2063 30.9832L52.8201 35.3703H57.2952Z" fill="#14181D"/>
<path d="M75.963 36.1675C75.963 38.2288 75.4112 39.8562 74.3075 41.0496C73.3183 42.1141 72.0868 42.643 70.6265 42.643C69.0451 42.643 67.9078 42.0666 67.2146 40.9207H67.1675V47.3013H64.4959V34.2486C64.4959 32.9535 64.4623 31.6245 64.395 30.2616H66.7436L66.8916 32.1805H66.9454C67.8337 30.7363 69.1864 30.0107 70.9966 30.0107C72.4098 30.0107 73.5942 30.5735 74.5431 31.7059C75.4852 32.8383 75.963 34.3232 75.963 36.1675ZM73.2375 36.2625C73.2375 35.0826 72.9751 34.113 72.4435 33.3468C71.8647 32.5535 71.0908 32.1534 70.1218 32.1534C69.4623 32.1534 68.8634 32.3772 68.3317 32.8111C67.7934 33.2519 67.4434 33.8282 67.2819 34.547C67.2012 34.8792 67.1608 35.1504 67.1608 35.3674V37.388C67.1608 38.2695 67.43 39.0086 67.9616 39.6189C68.5 40.2291 69.1931 40.5275 70.0545 40.5275C71.0572 40.5275 71.8445 40.141 72.4031 39.3612C72.9616 38.5746 73.2375 37.544 73.2375 36.2625Z" fill="#14181D"/>
<path d="M89.7785 36.1675C89.7785 38.2288 89.2266 39.8562 88.123 41.0496C87.1338 42.1141 85.909 42.643 84.4419 42.643C82.8605 42.643 81.7232 42.0666 81.0301 40.9207H80.983V47.3013H78.3114V34.2486C78.3114 32.9535 78.2777 31.6245 78.2104 30.2616H80.559L80.7071 32.1805H80.7609C81.6492 30.7363 83.0018 30.0107 84.8121 30.0107C86.2253 30.0107 87.4097 30.5735 88.3585 31.7059C89.3074 32.8383 89.7785 34.3232 89.7785 36.1675ZM87.0597 36.2625C87.0597 35.0826 86.7973 34.113 86.2657 33.3468C85.6869 32.5535 84.913 32.1534 83.944 32.1534C83.2845 32.1534 82.6855 32.3772 82.1539 32.8111C81.6156 33.2519 81.2656 33.8282 81.1041 34.547C81.0166 34.8792 80.9763 35.1504 80.9763 35.3674V37.388C80.9763 38.2695 81.2454 39.0086 81.7771 39.6189C82.3154 40.2291 83.0086 40.5275 83.8699 40.5275C84.8726 40.5275 85.66 40.141 86.2185 39.3612C86.7771 38.5746 87.0597 37.544 87.0597 36.2625Z" fill="#14181D"/>
<path d="M105.236 37.6606C105.236 39.0913 104.745 40.2508 103.756 41.1458C102.672 42.129 101.158 42.6172 99.2201 42.6172C97.43 42.6172 95.9899 42.2714 94.8997 41.573L95.5188 39.3286C96.6898 40.0406 97.9751 40.3999 99.3816 40.3999C100.391 40.3999 101.172 40.1694 101.73 39.7151C102.289 39.254 102.571 38.6438 102.571 37.8775C102.571 37.1995 102.343 36.6231 101.878 36.1553C101.421 35.6874 100.647 35.2535 99.5767 34.8534C96.6561 33.7549 95.2025 32.1479 95.2025 30.0392C95.2025 28.6559 95.714 27.5236 96.7369 26.6489C97.7597 25.7674 99.1191 25.3267 100.815 25.3267C102.329 25.3267 103.594 25.5911 104.597 26.1268L103.931 28.3169C102.989 27.8016 101.925 27.5439 100.741 27.5439C99.7988 27.5439 99.072 27.7745 98.5404 28.2423C98.0962 28.6559 97.8741 29.1645 97.8741 29.7612C97.8741 30.4257 98.1299 30.9749 98.6413 31.4021C99.0855 31.8021 99.893 32.2361 101.064 32.6972C102.497 33.2803 103.554 33.9584 104.227 34.7381C104.9 35.5315 105.236 36.5011 105.236 37.6606Z" fill="#14181D"/>
<path d="M114.066 32.2851H111.125V38.1638C111.125 39.6556 111.643 40.4082 112.686 40.4082C113.164 40.4082 113.554 40.3675 113.87 40.2862L113.945 42.3271C113.42 42.5238 112.726 42.6255 111.872 42.6255C110.815 42.6255 109.994 42.3 109.402 41.6558C108.81 41.0049 108.514 39.92 108.514 38.3876V32.2851H106.757V30.2644H108.514V28.0472L111.138 27.2471V30.2644H114.079V32.2851H114.066Z" fill="#14181D"/>
<path d="M127.343 36.215C127.343 38.0729 126.818 39.6053 125.761 40.7987C124.658 42.026 123.184 42.643 121.36 42.643C119.597 42.643 118.191 42.0531 117.141 40.8733C116.091 39.6934 115.573 38.2085 115.573 36.4184C115.573 34.5402 116.111 33.001 117.195 31.8076C118.271 30.6074 119.725 30.0107 121.555 30.0107C123.318 30.0107 124.738 30.6007 125.808 31.7805C126.831 32.9332 127.343 34.4046 127.343 36.215ZM124.57 36.3031C124.57 35.1843 124.335 34.2283 123.85 33.4282C123.292 32.4653 122.491 31.9771 121.454 31.9771C120.378 31.9771 119.563 32.4585 119.005 33.4282C118.527 34.2283 118.291 35.2047 118.291 36.3506C118.291 37.4694 118.527 38.4255 119.005 39.2188C119.584 40.1816 120.391 40.6698 121.427 40.6698C122.444 40.6698 123.244 40.1816 123.823 39.1985C124.321 38.3848 124.57 37.4219 124.57 36.3031Z" fill="#14181D"/>
<path d="M136.017 32.6305C135.755 32.5831 135.472 32.556 135.176 32.556C134.24 32.556 133.507 32.9153 132.996 33.6273C132.551 34.2579 132.329 35.058 132.329 36.0208V42.3743H129.658L129.678 34.0816C129.678 32.6848 129.644 31.4168 129.577 30.2709H131.899L132 32.5899H132.074C132.356 31.7898 132.8 31.1524 133.413 30.671C134.005 30.237 134.651 30.02 135.344 30.02C135.586 30.02 135.815 30.0404 136.01 30.0675V32.6305H136.017Z" fill="#14181D"/>
<path d="M147.962 35.7406C147.962 36.222 147.928 36.6288 147.868 36.9611H139.86C139.887 38.1544 140.277 39.0698 141.017 39.7004C141.69 40.2632 142.565 40.5412 143.642 40.5412C144.826 40.5412 145.91 40.3514 146.879 39.9717L147.296 41.8431C146.159 42.3381 144.819 42.589 143.265 42.589C141.401 42.589 139.941 42.0329 138.877 40.9277C137.814 39.8225 137.282 38.3375 137.282 36.4796C137.282 34.6557 137.774 33.13 138.77 31.9163C139.806 30.6212 141.206 29.9771 142.969 29.9771C144.698 29.9771 146.011 30.6212 146.906 31.9163C147.605 32.9605 147.962 34.2285 147.962 35.7406ZM145.412 35.0422C145.432 34.2488 145.257 33.5572 144.893 32.9741C144.429 32.2282 143.722 31.8553 142.767 31.8553C141.892 31.8553 141.185 32.2214 140.64 32.9537C140.196 33.5369 139.934 34.2285 139.853 35.0422H145.412Z" fill="#14181D"/>
<path d="M55.7883 19.7622H55.1153L54.0588 17.1109H50.0615L49.0049 19.7622H48.332L51.6833 11.3203H52.4302L55.7883 19.7622ZM50.2903 16.5278H53.83L52.0534 11.9441L50.2903 16.5278Z" fill="#14181D"/>
<path d="M60.3567 13.3662H61.0297L58.3783 19.7603H57.7457L55.0943 13.3662H55.8076L58.0822 19.0958L60.3567 13.3662Z" fill="#14181D"/>
<path d="M65.3376 15.55C65.3376 14.994 65.1895 14.5668 64.8934 14.2617C64.5974 13.9565 64.1734 13.8006 63.6216 13.8006C63.137 13.8006 62.7265 13.9023 62.3766 14.1125C62.0267 14.3227 61.7709 14.6685 61.6027 15.1567L61.0845 14.8245C61.273 14.3227 61.5825 13.9294 62.0199 13.6514C62.4574 13.3734 62.9957 13.2378 63.6418 13.2378C64.1061 13.2378 64.5166 13.3192 64.8665 13.4887C65.2165 13.6582 65.4924 13.9023 65.6875 14.221C65.8827 14.5465 65.9769 14.9533 65.9769 15.4347V18.6351C65.9769 19.0894 66.1788 19.3132 66.5893 19.3132C66.7642 19.3132 66.919 19.2861 67.0469 19.2251L67.0065 19.7336C66.8652 19.8082 66.6768 19.8489 66.448 19.8489C66.2528 19.8489 66.0711 19.8082 65.9029 19.7336C65.7346 19.659 65.5933 19.5302 65.4924 19.3471C65.3847 19.1708 65.3309 18.9267 65.3309 18.6148V18.269L65.5058 18.2554C65.4318 18.6216 65.2636 18.9267 65.0011 19.1708C64.7454 19.4149 64.4426 19.5912 64.1061 19.7065C63.7696 19.8218 63.4264 19.8828 63.0899 19.8828C62.6929 19.8828 62.3362 19.8218 62.0267 19.6929C61.7104 19.5641 61.4681 19.381 61.2864 19.1369C61.1115 18.8928 61.0172 18.5945 61.0172 18.2351C61.0172 17.7605 61.1788 17.374 61.495 17.0756C61.8113 16.7773 62.2555 16.5806 62.8342 16.4654L65.4655 15.9433V16.4789L63.1572 16.94C62.6592 17.0417 62.2824 17.1909 62.0401 17.3875C61.7979 17.5842 61.67 17.8554 61.67 18.1944C61.67 18.547 61.7979 18.8182 62.067 19.0216C62.3295 19.2251 62.6996 19.32 63.1841 19.32C63.4264 19.32 63.6821 19.2861 63.9311 19.2183C64.1868 19.1505 64.4224 19.042 64.6377 18.8928C64.8531 18.7436 65.028 18.5538 65.1492 18.33C65.277 18.1063 65.3376 17.8283 65.3376 17.5028V15.55Z" fill="#14181D"/>
<path d="M67.9012 12.1269C67.7397 12.1269 67.6119 12.0794 67.5109 11.9777C67.41 11.8828 67.3629 11.7472 67.3629 11.5844C67.3629 11.4217 67.41 11.2929 67.5109 11.1912C67.6051 11.0962 67.7397 11.042 67.9012 11.042C68.0627 11.042 68.1906 11.0895 68.2915 11.1912C68.3925 11.2929 68.4396 11.4217 68.4396 11.5844C68.4396 11.7472 68.3925 11.876 68.2915 11.9777C68.1906 12.0726 68.0627 12.1269 67.9012 12.1269ZM68.2175 13.3677V19.7618H67.5849V13.3677H68.2175Z" fill="#14181D"/>
<path d="M70.3038 10.4233V18.2549C70.3038 18.6482 70.3711 18.9262 70.5057 19.0889C70.6403 19.2517 70.8556 19.333 71.1382 19.333C71.3132 19.333 71.4612 19.3195 71.5622 19.2924C71.6699 19.2652 71.791 19.2246 71.939 19.1635L71.8516 19.7263C71.7439 19.7738 71.616 19.8212 71.4747 19.8484C71.3334 19.8755 71.1786 19.8958 71.0104 19.8958C70.5595 19.8958 70.223 19.767 70.001 19.5026C69.7789 19.2449 69.6645 18.8381 69.6645 18.2821V10.4233H70.3038Z" fill="#14181D"/>
<path d="M76.3194 15.55C76.3194 14.994 76.1713 14.5668 75.8753 14.2617C75.5792 13.9565 75.1552 13.8006 74.6034 13.8006C74.1188 13.8006 73.7083 13.9023 73.3584 14.1125C73.0085 14.3227 72.7528 14.6685 72.5845 15.1567L72.0663 14.8245C72.2548 14.3227 72.5643 13.9294 73.0017 13.6514C73.4392 13.3734 73.9775 13.2378 74.6236 13.2378C75.0879 13.2378 75.4984 13.3192 75.8483 13.4887C76.1983 13.6582 76.4742 13.9023 76.6693 14.221C76.8645 14.5465 76.9587 14.9533 76.9587 15.4347V18.6351C76.9587 19.0894 77.1606 19.3132 77.5711 19.3132C77.7461 19.3132 77.9008 19.2861 78.0287 19.2251L77.9883 19.7336C77.847 19.8082 77.6586 19.8489 77.4298 19.8489C77.2346 19.8489 77.0529 19.8082 76.8847 19.7336C76.7164 19.659 76.5751 19.5302 76.4742 19.3471C76.3665 19.1708 76.3127 18.9267 76.3127 18.6148V18.269L76.4876 18.2554C76.4136 18.6216 76.2454 18.9267 75.9829 19.1708C75.7272 19.4149 75.4244 19.5912 75.0879 19.7065C74.7514 19.8218 74.4082 19.8828 74.0717 19.8828C73.6747 19.8828 73.318 19.8218 73.0085 19.6929C72.6922 19.5641 72.4499 19.381 72.2682 19.1369C72.0933 18.8928 71.9991 18.5945 71.9991 18.2351C71.9991 17.7605 72.1606 17.374 72.4768 17.0756C72.7931 16.7773 73.2373 16.5806 73.816 16.4654L76.4473 15.9433V16.4789L74.139 16.94C73.6411 17.0417 73.2642 17.1909 73.0219 17.3875C72.7729 17.5842 72.6518 17.8554 72.6518 18.1944C72.6518 18.547 72.7797 18.8182 73.0421 19.0216C73.3046 19.2251 73.6747 19.32 74.1592 19.32C74.4015 19.32 74.6572 19.2861 74.9062 19.2183C75.1619 19.1505 75.3975 19.042 75.6128 18.8928C75.8281 18.7436 76.0031 18.5538 76.1242 18.33C76.2521 18.1063 76.3127 17.8283 76.3127 17.5028V15.55H76.3194Z" fill="#14181D"/>
<path d="M81.5552 19.8891C81.1649 19.8891 80.8015 19.8145 80.4717 19.6721C80.1353 19.5297 79.8526 19.3195 79.6238 19.0483C79.3883 18.777 79.22 18.4584 79.1124 18.0922L79.1998 17.9905L79.1527 19.767H78.5807V10.4233H79.2133V15.0816L79.1393 14.9663C79.3075 14.4375 79.6103 14.0171 80.0478 13.7052C80.4852 13.3932 80.9899 13.2373 81.5686 13.2373C82.1272 13.2373 82.6252 13.3661 83.0559 13.6306C83.4865 13.895 83.8298 14.2747 84.0855 14.7697C84.3412 15.2647 84.4691 15.8614 84.4691 16.5598C84.4691 17.2514 84.3412 17.8481 84.0855 18.3431C83.8298 18.8448 83.4866 19.2246 83.0491 19.489C82.5983 19.7534 82.1003 19.8891 81.5552 19.8891ZM81.4744 19.3263C82.1945 19.3263 82.7665 19.0754 83.1837 18.5872C83.601 18.0922 83.8096 17.4209 83.8096 16.5666C83.8096 15.7122 83.6009 15.0409 83.1904 14.5459C82.7732 14.051 82.2079 13.8069 81.4879 13.8069C81.0505 13.8069 80.6534 13.9221 80.3035 14.1459C79.9536 14.3697 79.6844 14.6951 79.4892 15.1155C79.2941 15.5359 79.1998 16.0241 79.1998 16.5869C79.1998 17.1497 79.3008 17.6379 79.4892 18.0515C79.6844 18.4651 79.9536 18.7838 80.2968 19.0076C80.6467 19.2178 81.037 19.3263 81.4744 19.3263Z" fill="#14181D"/>
<path d="M86.0976 10.4233V18.2549C86.0976 18.6482 86.1649 18.9262 86.2995 19.0889C86.434 19.2517 86.6494 19.333 86.932 19.333C87.107 19.333 87.255 19.3195 87.356 19.2924C87.4637 19.2652 87.5848 19.2246 87.7328 19.1635L87.6454 19.7263C87.5377 19.7738 87.4098 19.8212 87.2685 19.8484C87.1272 19.8755 86.9724 19.8958 86.8042 19.8958C86.3533 19.8958 86.0168 19.767 85.7947 19.5026C85.5727 19.2449 85.4583 18.8381 85.4583 18.2821V10.4233H86.0976Z" fill="#14181D"/>
<path d="M90.7681 19.8886C90.1826 19.8886 89.6644 19.7598 89.2068 19.4954C88.7492 19.2309 88.3926 18.8512 88.1368 18.3494C87.8811 17.8477 87.7465 17.2578 87.7465 16.5661C87.7465 15.8745 87.8744 15.2778 88.1368 14.7828C88.3993 14.2879 88.7425 13.9014 89.1866 13.6369C89.6241 13.3725 90.1288 13.2437 90.6941 13.2437C91.2728 13.2437 91.764 13.3725 92.1678 13.6301C92.5716 13.8878 92.8879 14.2404 93.1099 14.7015C93.332 15.1558 93.4397 15.6847 93.4397 16.2814C93.4397 16.3559 93.4397 16.4305 93.433 16.5051C93.4262 16.5797 93.4195 16.6407 93.4128 16.7018H88.1436V16.1254H93.1369L92.8206 16.2136C92.8139 15.4812 92.6187 14.8981 92.2418 14.4574C91.865 14.0234 91.3468 13.8064 90.6873 13.8064C90.2297 13.8064 89.8259 13.9149 89.4827 14.1319C89.1328 14.3489 88.8636 14.6676 88.6685 15.0812C88.4733 15.4948 88.3791 15.9898 88.3791 16.5729C88.3791 17.1425 88.48 17.6375 88.6752 18.0579C88.8704 18.4783 89.153 18.797 89.5097 19.0139C89.8663 19.2309 90.2835 19.3394 90.7613 19.3394C91.2526 19.3394 91.6766 19.2309 92.0265 19.0207C92.3764 18.8105 92.6523 18.5122 92.8475 18.1392L93.3589 18.4308C93.2042 18.7359 93.0023 19.0004 92.7466 19.2174C92.4908 19.4343 92.2015 19.6039 91.8717 19.7191C91.5352 19.8276 91.1651 19.8886 90.7681 19.8886Z" fill="#14181D"/>
<path d="M100.29 13.2378C100.882 13.2378 101.407 13.3666 101.858 13.6311C102.309 13.8955 102.666 14.2752 102.922 14.777C103.177 15.2788 103.312 15.8687 103.312 16.5603C103.312 17.2519 103.184 17.8486 102.922 18.3436C102.659 18.8386 102.309 19.2251 101.858 19.4895C101.407 19.7539 100.882 19.8828 100.29 19.8828C99.6981 19.8828 99.1732 19.7539 98.7223 19.4895C98.2714 19.2251 97.9147 18.8453 97.6523 18.3436C97.3898 17.8418 97.262 17.2519 97.262 16.5603C97.262 15.8687 97.3898 15.272 97.6523 14.777C97.9147 14.282 98.2647 13.8955 98.7223 13.6311C99.1799 13.3666 99.6981 13.2378 100.29 13.2378ZM100.29 13.787C99.8057 13.787 99.3885 13.8955 99.0318 14.1193C98.6752 14.343 98.3993 14.6617 98.1974 15.0753C97.9955 15.489 97.9013 15.9839 97.9013 16.5671C97.9013 17.1366 98.0022 17.6316 98.1974 18.052C98.3925 18.4724 98.6752 18.7911 99.0318 19.0149C99.3885 19.2386 99.8057 19.3471 100.29 19.3471C100.775 19.3471 101.192 19.2386 101.549 19.0149C101.905 18.7911 102.181 18.4724 102.383 18.052C102.578 17.6316 102.679 17.1366 102.679 16.5671C102.679 15.9839 102.578 15.489 102.383 15.0753C102.181 14.6617 101.905 14.343 101.549 14.1193C101.192 13.8955 100.775 13.787 100.29 13.787Z" fill="#14181D"/>
<path d="M104.368 19.7598V13.3657H104.94L104.987 14.9659L104.886 14.8778C105.007 14.5252 105.182 14.2336 105.418 13.9895C105.653 13.7454 105.936 13.5623 106.266 13.4335C106.596 13.3047 106.952 13.2437 107.329 13.2437C107.8 13.2437 108.224 13.3318 108.587 13.5149C108.951 13.6912 109.24 13.9556 109.442 14.3082C109.651 14.6608 109.752 15.0948 109.752 15.6236V19.7666H109.119V15.8271C109.119 15.1287 108.944 14.6133 108.601 14.2879C108.258 13.9624 107.814 13.7997 107.262 13.7997C106.865 13.7997 106.495 13.8946 106.151 14.0709C105.808 14.254 105.532 14.5184 105.317 14.871C105.102 15.2236 104.994 15.644 104.994 16.1525V19.7598H104.368Z" fill="#14181D"/>
<path d="M117.585 13.3668V13.916H113.305V13.3668H117.585ZM115.21 11.5835V18.0725C115.21 18.4726 115.304 18.7777 115.492 18.9879C115.681 19.1981 115.963 19.2998 116.327 19.2998C116.562 19.2998 116.771 19.2591 116.953 19.1778C117.134 19.0964 117.296 18.9811 117.444 18.8252L117.686 19.3473C117.525 19.51 117.323 19.6389 117.074 19.7406C116.825 19.8355 116.556 19.8897 116.246 19.8897C115.916 19.8897 115.627 19.8287 115.371 19.7067C115.116 19.5846 114.92 19.3948 114.779 19.1371C114.638 18.8794 114.57 18.554 114.57 18.1675V11.7734L115.21 11.5835Z" fill="#14181D"/>
<path d="M118.184 19.7602V10.4233H118.817V14.668C119.005 14.2137 119.301 13.8611 119.718 13.6102C120.136 13.3593 120.613 13.2305 121.152 13.2305C121.623 13.2305 122.047 13.3187 122.41 13.495C122.774 13.6712 123.063 13.9357 123.265 14.2883C123.474 14.6409 123.574 15.0816 123.574 15.5969V19.7534H122.942V15.8004C122.942 15.1087 122.767 14.6002 122.424 14.2747C122.081 13.9493 121.636 13.7797 121.085 13.7797C120.688 13.7797 120.317 13.8747 119.974 14.0645C119.631 14.2544 119.355 14.5188 119.14 14.8714C118.924 15.224 118.817 15.6444 118.817 16.1529V19.7602H118.184Z" fill="#14181D"/>
<path d="M127.605 19.8886C127.02 19.8886 126.502 19.7598 126.044 19.4954C125.587 19.2309 125.23 18.8512 124.974 18.3494C124.718 17.8477 124.584 17.2578 124.584 16.5661C124.584 15.8745 124.712 15.2778 124.974 14.7828C125.237 14.2879 125.58 13.9014 126.024 13.6369C126.461 13.3725 126.966 13.2437 127.531 13.2437C128.11 13.2437 128.601 13.3725 129.005 13.6301C129.409 13.8878 129.725 14.2404 129.947 14.7015C130.169 15.1558 130.277 15.6847 130.277 16.2814C130.277 16.3559 130.277 16.4305 130.27 16.5051C130.264 16.5797 130.257 16.6407 130.25 16.7018H124.981V16.1254H129.974L129.658 16.2136C129.651 15.4812 129.456 14.8981 129.079 14.4574C128.702 14.0234 128.184 13.8064 127.525 13.8064C127.067 13.8064 126.663 13.9149 126.32 14.1319C125.97 14.3489 125.701 14.6676 125.506 15.0812C125.311 15.4948 125.216 15.9898 125.216 16.5729C125.216 17.1425 125.317 17.6375 125.513 18.0579C125.708 18.4783 125.99 18.797 126.347 19.0139C126.704 19.2309 127.121 19.3394 127.599 19.3394C128.09 19.3394 128.514 19.2309 128.864 19.0207C129.214 18.8105 129.49 18.5122 129.685 18.1392L130.196 18.4308C130.041 18.7359 129.84 19.0004 129.584 19.2174C129.328 19.4343 129.039 19.6039 128.709 19.7191C128.366 19.8276 128.002 19.8886 127.605 19.8886Z" fill="#14181D"/>
</svg>
