<svg width="159" height="53" viewBox="0 0 159 53" fill="none" xmlns="http://www.w3.org/2000/svg">
<path d="M151.678 52.8968H7.53207C3.49436 52.8968 0.203629 49.5878 0.203629 45.5127V7.4871C0.203629 3.41874 3.48763 0.103027 7.53207 0.103027H151.678C155.716 0.103027 159 3.41196 159 7.4871V45.5195C159 49.5878 155.716 52.8968 151.678 52.8968ZM7.53207 0.781087C3.86448 0.781087 0.87658 3.79167 0.87658 7.4871V45.5195C0.87658 49.2149 3.86448 52.2255 7.53207 52.2255H151.678C155.346 52.2255 158.334 49.2149 158.334 45.5195V7.4871C158.334 3.79167 155.353 0.781087 151.678 0.781087H7.53207Z" fill="#14181D"/>
<path d="M25.8229 27.978L11.3275 42.4749V13.4946L25.8229 27.978Z" fill="#14181D"/>
<path d="M29.8269 23.9952L26.1594 27.6432L12.2696 13.7769L29.8269 23.9952Z" fill="#14181D"/>
<path d="M29.8273 31.9785L12.2767 42.1901L26.1597 28.3237L29.7398 31.8903L29.8273 31.9785Z" fill="#14181D"/>
<path d="M36.698 27.9826L30.2444 31.7322L26.4961 27.9826L30.2444 24.2329L36.698 27.9826Z" fill="#14181D"/>
<path d="M78.6026 28.1813C75.9714 28.1813 73.8247 30.1952 73.8247 32.9752C73.8247 35.7349 75.9714 37.7691 78.6026 37.7691C81.2339 37.7691 83.3806 35.7349 83.3806 32.9752C83.3806 30.1952 81.2339 28.1813 78.6026 28.1813ZM78.6026 35.8841C77.1625 35.8841 75.9175 34.6839 75.9175 32.982C75.9175 31.2597 77.1625 30.0799 78.6026 30.0799C80.0427 30.0799 81.2877 31.2597 81.2877 32.982C81.2877 34.6839 80.0427 35.8841 78.6026 35.8841ZM68.1853 28.1813C65.5541 28.1813 63.4074 30.1952 63.4074 32.9752C63.4074 35.7349 65.5541 37.7691 68.1853 37.7691C70.8166 37.7691 72.9633 35.7349 72.9633 32.9752C72.9633 30.1952 70.8166 28.1813 68.1853 28.1813ZM68.1853 35.8841C66.7452 35.8841 65.5002 34.6839 65.5002 32.982C65.5002 31.2597 66.7452 30.0799 68.1853 30.0799C69.6254 30.0799 70.8704 31.2597 70.8704 32.982C70.8704 34.6839 69.6254 35.8841 68.1853 35.8841ZM55.7963 29.6527V31.6869H60.6281C60.4868 32.8328 60.1032 33.6668 59.5312 34.25C58.8313 34.9551 57.7277 35.7417 55.803 35.7417C52.8286 35.7417 50.5069 33.3278 50.5069 30.3308C50.5069 27.3338 52.8286 24.9199 55.803 24.9199C57.4046 24.9199 58.5756 25.5572 59.4437 26.3709L60.8703 24.9334C59.6658 23.7739 58.0574 22.8789 55.8098 22.8789C51.7384 22.8789 48.3131 26.2217 48.3131 30.324C48.3131 34.4263 51.7384 37.7691 55.8098 37.7691C58.0103 37.7691 59.6658 37.0436 60.9646 35.6807C62.297 34.3381 62.7142 32.4463 62.7142 30.9207C62.7142 30.4461 62.6806 30.0121 62.6066 29.6527H55.7963ZM106.476 31.2326C106.079 30.1613 104.875 28.1813 102.405 28.1813C99.9554 28.1813 97.9163 30.1274 97.9163 32.9752C97.9163 35.6603 99.9352 37.7691 102.64 37.7691C104.821 37.7691 106.079 36.4265 106.604 35.6468L104.982 34.5551C104.444 35.3552 103.704 35.8773 102.64 35.8773C101.577 35.8773 100.823 35.3891 100.332 34.4263L106.692 31.775L106.476 31.2326ZM99.989 32.8328C99.9352 30.9817 101.416 30.0392 102.479 30.0392C103.307 30.0392 104.013 30.4596 104.242 31.0563L99.989 32.8328ZM94.814 37.4775H96.9069V23.3875H94.814V37.4775ZM91.3887 29.2527H91.3147C90.8436 28.6899 89.9418 28.1813 88.8113 28.1813C86.4358 28.1813 84.2554 30.2901 84.2554 32.9956C84.2554 35.6807 86.4358 37.7691 88.8113 37.7691C89.9486 37.7691 90.8503 37.2605 91.3147 36.6774H91.3887V37.369C91.3887 39.1998 90.4129 40.183 88.8449 40.183C87.5663 40.183 86.7722 39.2541 86.4492 38.4743L84.6323 39.2337C85.1572 40.5017 86.5434 42.068 88.8517 42.068C91.3012 42.068 93.3739 40.6169 93.3739 37.0775V28.4729H91.3887V29.2527ZM88.993 35.8841C87.5529 35.8841 86.3416 34.6704 86.3416 32.9956C86.3416 31.3072 87.5461 30.0731 88.993 30.0731C90.4196 30.0731 91.5367 31.3072 91.5367 32.9956C91.5367 34.6636 90.4196 35.8841 88.993 35.8841ZM116.268 23.3875H111.268V37.4775H113.354V32.1412H116.268C118.583 32.1412 120.857 30.4528 120.857 27.7677C120.851 25.0758 118.576 23.3875 116.268 23.3875ZM116.322 30.1816H113.354V25.3538H116.322C117.883 25.3538 118.771 26.6557 118.771 27.7677C118.764 28.8594 117.883 30.1816 116.322 30.1816ZM129.215 28.1542C127.701 28.1542 126.14 28.8255 125.494 30.3104L127.344 31.0902C127.742 30.3104 128.475 30.0596 129.249 30.0596C130.326 30.0596 131.423 30.7105 131.443 31.87V32.0124C131.066 31.7954 130.258 31.4699 129.269 31.4699C127.27 31.4699 125.238 32.5752 125.238 34.6432C125.238 36.5282 126.873 37.742 128.711 37.742C130.117 37.742 130.884 37.1046 131.375 36.3655H131.45V37.4504H133.462V32.0463C133.462 29.551 131.611 28.1542 129.215 28.1542ZM128.966 35.8773C128.28 35.8773 127.331 35.5315 127.331 34.6839C127.331 33.599 128.515 33.1786 129.545 33.1786C130.46 33.1786 130.891 33.3753 131.45 33.6533C131.288 34.9552 130.171 35.8773 128.966 35.8773ZM140.804 28.4661L138.408 34.5754H138.334L135.851 28.4661H133.603L137.324 37.0029L135.205 41.7493H137.378L143.118 28.4593H140.804V28.4661ZM122.001 37.4775H124.087V23.3875H122.001V37.4775Z" fill="#14181D"/>
<path d="M55.9909 16.9809H55.318L54.2614 14.3297H50.2641L49.2076 16.9809H48.5346L51.8859 8.53906H52.6329L55.9909 16.9809ZM50.4929 13.7466H54.0326L52.2561 9.16288L50.4929 13.7466Z" fill="#14181D"/>
<path d="M60.5601 10.584H61.2331L58.5817 16.9781H57.9491L55.2977 10.584H56.011L58.2856 16.3136L60.5601 10.584Z" fill="#14181D"/>
<path d="M65.5399 12.7765C65.5399 12.2205 65.3919 11.7934 65.0958 11.4882C64.7997 11.1831 64.3757 11.0271 63.8239 11.0271C63.3394 11.0271 62.9289 11.1289 62.579 11.3391C62.229 11.5493 61.9733 11.8951 61.8051 12.3833L61.2869 12.051C61.4753 11.5493 61.7849 11.156 62.2223 10.878C62.6597 10.6 63.1981 10.4644 63.8441 10.4644C64.3085 10.4644 64.719 10.5457 65.0689 10.7152C65.4188 10.8848 65.6947 11.1289 65.8899 11.4476C66.085 11.773 66.1793 12.1799 66.1793 12.6613V15.8617C66.1793 16.316 66.3811 16.5398 66.7916 16.5398C66.9666 16.5398 67.1214 16.5127 67.2493 16.4516L67.2089 16.9602C67.0676 17.0348 66.8791 17.0754 66.6503 17.0754C66.4552 17.0754 66.2735 17.0348 66.1052 16.9602C65.937 16.8856 65.7957 16.7568 65.6947 16.5737C65.5871 16.3974 65.5332 16.1533 65.5332 15.8414V15.4956L65.7082 15.482C65.6342 15.8482 65.4659 16.1533 65.2035 16.3974C64.9478 16.6415 64.6449 16.8178 64.3084 16.9331C63.972 17.0483 63.6288 17.1093 63.2923 17.1093C62.8953 17.1093 62.5386 17.0483 62.229 16.9195C61.9127 16.7907 61.6705 16.6076 61.4888 16.3635C61.3138 16.1194 61.2196 15.821 61.2196 15.4617C61.2196 14.987 61.3811 14.6005 61.6974 14.3022C62.0137 14.0038 62.4578 13.8072 63.0366 13.6919L65.6678 13.1698V13.7055L63.3596 14.1666C62.8616 14.2683 62.4848 14.4175 62.2425 14.6141C62.0002 14.8107 61.8724 15.082 61.8724 15.421C61.8724 15.7736 62.0002 16.0448 62.2694 16.2482C62.5319 16.4516 62.902 16.5466 63.3865 16.5466C63.6288 16.5466 63.8845 16.5127 64.1335 16.4448C64.3892 16.377 64.6247 16.2686 64.8401 16.1194C65.0554 15.9702 65.2304 15.7804 65.3515 15.5566C65.4794 15.3328 65.5399 15.0548 65.5399 14.7294V12.7765Z" fill="#14181D"/>
<path d="M68.1046 9.34613C67.9431 9.34613 67.8153 9.29867 67.7143 9.19696C67.6134 9.10203 67.5663 8.96641 67.5663 8.80368C67.5663 8.64095 67.6134 8.51211 67.7143 8.4104C67.8085 8.31548 67.9431 8.26123 68.1046 8.26123C68.2661 8.26123 68.394 8.3087 68.495 8.4104C68.5959 8.51211 68.643 8.64095 68.643 8.80368C68.643 8.96641 68.5959 9.09525 68.495 9.19696C68.394 9.29867 68.2661 9.34613 68.1046 9.34613ZM68.4209 10.587V16.9811H67.7884V10.587H68.4209Z" fill="#14181D"/>
<path d="M70.5067 7.64258V15.4742C70.5067 15.8674 70.574 16.1454 70.7086 16.3082C70.8432 16.4709 71.0586 16.5523 71.3412 16.5523C71.5162 16.5523 71.6642 16.5387 71.7652 16.5116C71.8728 16.4845 71.994 16.4438 72.142 16.3828L72.0545 16.9456C71.9469 16.993 71.819 17.0405 71.6777 17.0676C71.5364 17.0947 71.3816 17.1151 71.2133 17.1151C70.7625 17.1151 70.426 16.9862 70.2039 16.7218C69.9818 16.4641 69.8674 16.0573 69.8674 15.5013V7.64258H70.5067Z" fill="#14181D"/>
<path d="M76.5231 12.7765C76.5231 12.2205 76.3751 11.7934 76.079 11.4882C75.7829 11.1831 75.3589 11.0271 74.8071 11.0271C74.3226 11.0271 73.9121 11.1289 73.5621 11.3391C73.2122 11.5493 72.9565 11.8951 72.7882 12.3833L72.27 12.051C72.4585 11.5493 72.768 11.156 73.2055 10.878C73.6429 10.6 74.1812 10.4644 74.8273 10.4644C75.2916 10.4644 75.7021 10.5457 76.052 10.7152C76.402 10.8848 76.6779 11.1289 76.873 11.4476C77.0682 11.773 77.1624 12.1799 77.1624 12.6613V15.8617C77.1624 16.316 77.3643 16.5398 77.7748 16.5398C77.9498 16.5398 78.1045 16.5127 78.2324 16.4516L78.192 16.9602C78.0507 17.0348 77.8623 17.0754 77.6335 17.0754C77.4383 17.0754 77.2566 17.0348 77.0884 16.9602C76.9201 16.8856 76.7788 16.7568 76.6779 16.5737C76.5702 16.3974 76.5164 16.1533 76.5164 15.8414V15.4956L76.6913 15.482C76.6173 15.8482 76.4491 16.1533 76.1866 16.3974C75.9309 16.6415 75.6281 16.8178 75.2916 16.9331C74.9551 17.0483 74.6119 17.1093 74.2755 17.1093C73.8784 17.1093 73.5217 17.0483 73.2122 16.9195C72.8959 16.7907 72.6536 16.6076 72.4719 16.3635C72.297 16.1194 72.2028 15.821 72.2028 15.4617C72.2028 14.987 72.3643 14.6005 72.6806 14.3022C72.9968 14.0038 73.441 13.8072 74.0197 13.6919L76.651 13.1698V13.7055L74.3427 14.1666C73.8448 14.2683 73.4679 14.4175 73.2256 14.6141C72.9766 14.8107 72.8555 15.082 72.8555 15.421C72.8555 15.7736 72.9834 16.0448 73.2458 16.2482C73.5083 16.4516 73.8784 16.5466 74.3629 16.5466C74.6052 16.5466 74.8609 16.5127 75.1099 16.4448C75.3656 16.377 75.6012 16.2686 75.8165 16.1194C76.0319 15.9702 76.2068 15.7804 76.3279 15.5566C76.4558 15.3328 76.5164 15.0548 76.5164 14.7294V12.7765H76.5231Z" fill="#14181D"/>
<path d="M81.7581 17.1079C81.3678 17.1079 81.0044 17.0333 80.6747 16.8909C80.3382 16.7485 80.0556 16.5383 79.8268 16.2671C79.5912 15.9958 79.423 15.6772 79.3153 15.311L79.4028 15.2093L79.3557 16.9858H78.7837V7.64893H79.4163V12.3072L79.3422 12.1919C79.5105 11.663 79.8133 11.2426 80.2507 10.9307C80.6881 10.6188 81.1929 10.4629 81.7716 10.4629C82.3302 10.4629 82.8281 10.5917 83.2588 10.8629C83.6895 11.1274 84.0327 11.5071 84.2884 12.0021C84.5442 12.4971 84.672 13.0937 84.672 13.7921C84.672 14.4838 84.5442 15.0805 84.2884 15.5754C84.0327 16.0772 83.6895 16.4569 83.2521 16.7214C82.8012 16.979 82.3032 17.1079 81.7581 17.1079ZM81.6774 16.5451C82.3974 16.5451 82.9695 16.2942 83.3867 15.806C83.8039 15.311 84.0125 14.6397 84.0125 13.7854C84.0125 12.931 83.8039 12.2597 83.3934 11.7648C82.9762 11.2698 82.4109 11.0257 81.6908 11.0257C81.2534 11.0257 80.8564 11.1409 80.5064 11.3647C80.1565 11.5885 79.8873 11.9139 79.6922 12.3343C79.497 12.7547 79.4028 13.2429 79.4028 13.8057C79.4028 14.3685 79.5037 14.8567 79.6922 15.2703C79.8806 15.6839 80.1565 16.0026 80.4997 16.2264C80.8497 16.4366 81.24 16.5451 81.6774 16.5451Z" fill="#14181D"/>
<path d="M86.301 7.64258V15.4742C86.301 15.8674 86.3683 16.1454 86.5029 16.3082C86.6375 16.4709 86.8528 16.5523 87.1354 16.5523C87.3104 16.5523 87.4585 16.5387 87.5594 16.5116C87.6671 16.4845 87.7882 16.4438 87.9362 16.3828L87.8488 16.9456C87.7411 16.993 87.6132 17.0405 87.4719 17.0676C87.3306 17.0947 87.1758 17.1151 87.0076 17.1151C86.5567 17.1151 86.2202 16.9862 85.9982 16.7218C85.7761 16.4641 85.6617 16.0573 85.6617 15.5013V7.64258H86.301Z" fill="#14181D"/>
<path d="M90.9712 17.1088C90.3857 17.1088 89.8676 16.98 89.4099 16.7155C88.9523 16.4511 88.5957 16.0714 88.34 15.5696C88.0842 15.0678 87.9496 14.4779 87.9496 13.7863C87.9496 13.0947 88.0775 12.498 88.34 12.003C88.5957 11.5012 88.9456 11.1215 89.3898 10.8571C89.8272 10.5926 90.3319 10.457 90.8972 10.457C91.4759 10.457 91.9672 10.5859 92.3709 10.8435C92.7747 11.1012 93.091 11.4538 93.3131 11.9149C93.5351 12.3692 93.6428 12.898 93.6428 13.4947C93.6428 13.5693 93.6428 13.6439 93.6361 13.7185C93.6294 13.7931 93.6226 13.8541 93.6159 13.9151H88.3467V13.3388H93.34L93.0237 13.4269C93.017 12.6946 92.8218 12.1115 92.445 11.6708C92.0681 11.2368 91.5499 11.0198 90.8904 11.0198C90.4328 11.0198 90.0291 11.1283 89.6859 11.3453C89.3359 11.5623 89.0667 11.881 88.8716 12.2946C88.6764 12.7082 88.5822 13.2032 88.5822 13.7863C88.5822 14.3559 88.6832 14.8509 88.8783 15.2713C89.0735 15.6917 89.3561 16.0103 89.7128 16.2273C90.0694 16.4443 90.4867 16.5528 90.9645 16.5528C91.4557 16.5528 91.8797 16.4443 92.2296 16.2341C92.5795 16.0239 92.8555 15.7256 93.0506 15.3526L93.5621 15.6442C93.4073 15.9493 93.2054 16.2138 92.9497 16.4307C92.694 16.6477 92.4046 16.8172 92.0748 16.9325C91.7384 17.0546 91.3682 17.1088 90.9712 17.1088Z" fill="#14181D"/>
<path d="M100.494 10.457C101.086 10.457 101.611 10.5859 102.062 10.8571C102.512 11.1215 102.869 11.5012 103.125 12.003C103.38 12.5048 103.515 13.0947 103.515 13.7863C103.515 14.4779 103.387 15.0746 103.125 15.5696C102.869 16.0714 102.512 16.4511 102.062 16.7155C101.611 16.98 101.086 17.1088 100.494 17.1088C99.9013 17.1088 99.3764 16.98 98.9255 16.7155C98.4747 16.4511 98.118 16.0714 97.8556 15.5696C97.5998 15.0678 97.4652 14.4779 97.4652 13.7863C97.4652 13.0947 97.5931 12.498 97.8556 12.003C98.1113 11.5012 98.4679 11.1215 98.9255 10.8571C99.3832 10.5926 99.9013 10.457 100.494 10.457ZM100.494 11.0063C100.009 11.0063 99.5918 11.1148 99.2351 11.3385C98.8784 11.5623 98.6025 11.881 98.4006 12.2946C98.1988 12.7082 98.1045 13.2032 98.1045 13.7863C98.1045 14.3559 98.2055 14.8509 98.4006 15.2713C98.5958 15.6917 98.8784 16.0103 99.2351 16.2341C99.5918 16.4579 100.009 16.5663 100.494 16.5663C100.978 16.5663 101.395 16.4579 101.752 16.2341C102.109 16.0103 102.385 15.6917 102.586 15.2713C102.782 14.8509 102.883 14.3559 102.883 13.7863C102.883 13.2032 102.782 12.7082 102.586 12.2946C102.385 11.881 102.109 11.5623 101.752 11.3385C101.395 11.1215 100.978 11.0063 100.494 11.0063Z" fill="#14181D"/>
<path d="M104.571 16.9805V10.5864H105.143L105.19 12.1866L105.09 12.0985C105.211 11.7459 105.386 11.4543 105.621 11.2102C105.857 10.9661 106.139 10.7831 106.469 10.6542C106.799 10.5254 107.155 10.4644 107.532 10.4644C108.003 10.4644 108.427 10.5525 108.791 10.7356C109.154 10.9119 109.443 11.1763 109.645 11.5289C109.854 11.8815 109.955 12.3155 109.955 12.8444V16.9873H109.322V13.0478C109.322 12.3494 109.147 11.834 108.804 11.5086C108.461 11.1831 108.017 11.0204 107.465 11.0204C107.068 11.0204 106.698 11.1153 106.355 11.2916C106.011 11.4747 105.736 11.7391 105.52 12.0917C105.305 12.4443 105.197 12.8647 105.197 13.3732V16.9805H104.571Z" fill="#14181D"/>
<path d="M117.789 10.5861V11.1353H113.509V10.5861H117.789ZM115.413 8.80957V15.2986C115.413 15.6987 115.507 16.0038 115.696 16.214C115.884 16.4242 116.167 16.5259 116.53 16.5259C116.766 16.5259 116.974 16.4852 117.156 16.4038C117.338 16.3225 117.499 16.2072 117.647 16.0512L117.889 16.5734C117.728 16.7361 117.526 16.8649 117.277 16.9666C117.028 17.0616 116.759 17.1158 116.449 17.1158C116.12 17.1158 115.83 17.0548 115.575 16.9327C115.319 16.8107 115.124 16.6208 114.982 16.3632C114.841 16.1055 114.774 15.78 114.774 15.3935V8.99943L115.413 8.80957Z" fill="#14181D"/>
<path d="M118.388 16.9795V7.64258H119.02V11.8872C119.209 11.4329 119.505 11.0803 119.922 10.8295C120.339 10.5786 120.817 10.4497 121.355 10.4497C121.826 10.4497 122.25 10.5379 122.614 10.7142C122.977 10.8905 123.266 11.1549 123.468 11.5075C123.677 11.8601 123.778 12.3008 123.778 12.8162V16.9727H123.145V13.0196C123.145 12.328 122.97 11.8194 122.627 11.494C122.284 11.1685 121.84 10.999 121.288 10.999C120.891 10.999 120.521 11.0939 120.178 11.2838C119.834 11.4736 119.558 11.7381 119.343 12.0906C119.128 12.4432 119.02 12.8636 119.02 13.3722V16.9795H118.388Z" fill="#14181D"/>
<path d="M127.809 17.1088C127.223 17.1088 126.705 16.98 126.248 16.7155C125.79 16.4511 125.433 16.0714 125.178 15.5696C124.922 15.0678 124.787 14.4779 124.787 13.7863C124.787 13.0947 124.915 12.498 125.178 12.003C125.433 11.5012 125.783 11.1215 126.227 10.8571C126.665 10.5926 127.17 10.457 127.735 10.457C128.314 10.457 128.805 10.5859 129.209 10.8435C129.612 11.1012 129.929 11.4538 130.151 11.9149C130.373 12.3692 130.48 12.898 130.48 13.4947C130.48 13.5693 130.48 13.6439 130.474 13.7185C130.467 13.7931 130.46 13.8541 130.454 13.9151H125.184V13.3388H130.178L129.861 13.4269C129.855 12.6946 129.659 12.1115 129.283 11.6708C128.906 11.2368 128.388 11.0198 127.728 11.0198C127.27 11.0198 126.867 11.1283 126.524 11.3453C126.174 11.5623 125.904 11.881 125.709 12.2946C125.514 12.7082 125.42 13.2032 125.42 13.7863C125.42 14.3559 125.521 14.8509 125.716 15.2713C125.911 15.6917 126.194 16.0103 126.55 16.2273C126.907 16.4443 127.324 16.5528 127.802 16.5528C128.293 16.5528 128.717 16.4443 129.067 16.2341C129.417 16.0239 129.693 15.7256 129.888 15.3526L130.4 15.6442C130.245 15.9493 130.043 16.2138 129.787 16.4307C129.532 16.6477 129.242 16.8172 128.912 16.9325C128.569 17.0546 128.206 17.1088 127.809 17.1088Z" fill="#14181D"/>
</svg>
