<svg width="212" height="39" viewBox="0 0 212 39" fill="none" xmlns="http://www.w3.org/2000/svg">
<path fill-rule="evenodd" clip-rule="evenodd" d="M44.1897 2.82599C44.0103 2.93721 43.3326 3.51855 42.9953 3.85044C42.8137 4.02924 42.6909 4.12737 42.7229 4.0685C42.755 4.00962 42.6807 4.06501 42.5587 4.19192C42.4364 4.31839 42.3189 4.40518 42.298 4.38468C42.2766 4.36375 42.2156 4.41564 42.1622 4.49938C42.1088 4.58311 42.0412 4.65202 42.0118 4.65202C41.9825 4.65202 41.8276 4.77762 41.6674 4.93157C41.5072 5.08552 41.3221 5.23162 41.2562 5.25648C41.1904 5.28134 41.1365 5.3533 41.1365 5.41697C41.1365 5.48064 41.1098 5.51641 41.0773 5.49678C41.0448 5.47716 40.8299 5.63547 40.5998 5.84829C40.3702 6.06155 40.166 6.2203 40.1468 6.20155C40.1277 6.18279 40.0899 6.23556 40.0627 6.3193C40.0356 6.4026 39.9844 6.45362 39.9493 6.43225C39.9137 6.41088 39.858 6.43792 39.8247 6.49244C39.7917 6.54695 39.6729 6.64944 39.5612 6.72009C39.4495 6.79074 39.3707 6.86924 39.3868 6.89498C39.4023 6.92071 39.3685 6.98351 39.312 7.03541C39.255 7.08687 39.2083 7.10911 39.2083 7.08469C39.2083 7.06026 39.1629 7.08338 39.1073 7.13615C39.0517 7.18892 38.8799 7.33022 38.7246 7.45015C38.5697 7.57009 38.3148 7.79643 38.1581 7.95256C38.0015 8.10913 37.8733 8.21467 37.8733 8.18719C37.8733 8.15972 37.7229 8.28445 37.5387 8.465C37.3545 8.64555 37.1951 8.78555 37.1845 8.77595C37.1466 8.74237 36.8262 9.03239 36.6416 9.26746C36.5788 9.34727 36.549 9.36384 36.5753 9.30365C36.6144 9.21512 36.6051 9.21599 36.5254 9.30932C36.4711 9.37213 36.3354 9.48203 36.2237 9.55355C36.112 9.62464 36.0386 9.7123 36.0613 9.74806C36.0835 9.78338 36.0519 9.8126 35.9905 9.8126C35.9296 9.8126 35.8357 9.87235 35.7823 9.94562C35.7289 10.0189 35.5936 10.1371 35.4814 10.2082C35.3693 10.2797 35.2777 10.3835 35.2777 10.4389C35.2777 10.4943 35.2518 10.5313 35.2202 10.5213C35.1566 10.5012 35.0912 10.5483 34.607 10.9661C34.3347 11.2012 34.2657 11.3098 34.2475 11.534C34.2185 11.8829 34.1883 12.1022 34.1687 12.1022C34.1407 12.1022 34.0966 12.3909 34.0579 12.8292C34.0205 13.2501 33.9702 13.5558 33.9386 13.5558C33.9302 13.5558 33.9164 13.6378 33.9075 13.7377C33.8897 13.9466 33.7909 14.5772 33.7424 14.7918C33.7112 14.9287 33.6939 15.0678 33.596 15.9545C33.5737 16.1546 33.5292 16.3509 33.4972 16.3906C33.4652 16.4307 33.4162 16.7089 33.3886 17.0085C33.3388 17.5502 33.2987 17.8446 33.2752 17.8446C33.2569 17.8446 33.2235 18.0753 33.1697 18.5712C33.1434 18.811 33.1003 19.0727 33.074 19.1529C33.0477 19.2327 33.0175 19.429 33.0073 19.5891C32.9832 19.9637 32.9134 20.4216 32.8519 20.6065C32.8252 20.6863 32.7972 20.8499 32.7892 20.9698C32.7812 21.0897 32.7545 21.2699 32.7296 21.3697C32.7047 21.4696 32.6695 21.6986 32.6513 21.8787C32.6335 22.0584 32.6139 22.2058 32.6076 22.2058C32.6014 22.2058 32.5845 22.3039 32.5707 22.4238C32.5565 22.5438 32.5089 22.8708 32.4648 23.1504C32.3478 23.8935 32.3335 23.986 32.2775 24.3864C32.249 24.5861 32.2098 24.8316 32.1902 24.9315C32.1706 25.0314 32.1435 25.2111 32.1302 25.331C32.0585 25.9856 32.0024 26.345 31.9624 26.4086C31.9375 26.4479 31.9077 26.6302 31.8956 26.8142C31.8836 26.9978 31.8676 27.1483 31.8596 27.1483C31.8511 27.1483 31.8387 27.2647 31.8311 27.4073C31.8235 27.55 31.7929 27.7052 31.763 27.7528C31.7332 27.7999 31.7279 27.8692 31.7515 27.9063C31.775 27.9438 31.7621 27.9935 31.7234 28.017C31.6847 28.0406 31.6531 28.1165 31.6536 28.1854C31.6562 28.5452 31.5779 29.1549 31.4991 29.3899L31.4093 29.656H22.0113H12.6129L12.313 29.9285C12.1474 30.0786 11.8524 30.332 11.6562 30.492C10.8627 31.1396 10.209 31.7197 10.209 31.7764C10.209 31.8095 10.1614 31.8366 10.1031 31.8366C10.0452 31.8366 9.93668 31.912 9.86236 32.0045C9.78805 32.0969 9.67146 32.2033 9.60382 32.2408C9.46943 32.315 8.82328 32.8649 8.33066 33.3246C8.16067 33.4833 8.00003 33.6142 7.97377 33.6155C7.94796 33.6164 7.81447 33.7215 7.67741 33.8488C7.53991 33.9762 7.16076 34.3032 6.83458 34.5763C6.50839 34.8493 6.12436 35.1894 5.98151 35.332C5.83867 35.4751 5.66378 35.6129 5.59214 35.6382C5.52094 35.6635 5.46265 35.7363 5.46265 35.8C5.46265 35.8637 5.42926 35.8955 5.38832 35.8707C5.34738 35.8458 5.31401 35.8624 5.31401 35.9068C5.31401 35.9518 5.27841 35.9666 5.2348 35.9404C5.19163 35.9138 5.13779 35.9601 5.11554 36.0425C5.09373 36.1253 5.01452 36.2121 4.93932 36.2352C4.86456 36.2588 4.60646 36.4642 4.36616 36.6919C3.87844 37.1541 3.53134 37.4333 3.44368 37.4333C3.41208 37.4333 3.38582 37.4825 3.38582 37.5423C3.38582 37.6025 3.33643 37.6513 3.27635 37.6513C3.21583 37.6513 3.11216 37.7333 3.04541 37.8332C2.97866 37.9331 2.87764 38.015 2.82113 38.015C2.76461 38.015 2.71832 38.0477 2.71832 38.0874C2.71832 38.1882 38.7366 38.1882 38.8003 38.0879C38.8617 37.9906 38.9244 37.7355 38.9525 37.4699C38.9885 37.1306 39.0553 36.6884 39.1002 36.4886C39.1229 36.3888 39.1536 36.1594 39.1683 35.9797C39.183 35.7996 39.2297 35.5074 39.2715 35.3294C39.3133 35.1515 39.3285 34.9762 39.3053 34.9395C39.2822 34.9029 39.2982 34.8523 39.3405 34.8266C39.3828 34.8009 39.4371 34.5348 39.4606 34.2352C39.4847 33.9352 39.5372 33.5592 39.5777 33.3992C39.6177 33.2396 39.6725 32.847 39.6987 32.5269C39.7254 32.2073 39.7677 31.929 39.7926 31.9094C39.818 31.8893 39.8433 31.8073 39.8487 31.7275C39.8656 31.4789 39.9546 30.864 40.0013 30.6734C40.0258 30.5736 40.0552 30.3612 40.0667 30.2011C40.0788 30.0411 40.0934 29.9102 40.0992 29.9102C40.1055 29.9102 40.1201 29.8287 40.1317 29.7288C40.1753 29.3585 40.2545 28.8147 40.291 28.6385C40.3119 28.5386 40.3449 28.3585 40.3649 28.2386C40.3849 28.1187 40.4321 27.857 40.4699 27.6572C40.5077 27.4571 40.5593 27.0846 40.5838 26.8295C40.6087 26.5739 40.6572 26.2918 40.692 26.2028C40.7267 26.1134 40.7445 25.9485 40.732 25.8356C40.7195 25.7231 40.7365 25.5473 40.7703 25.4448C40.8036 25.3423 40.849 25.1278 40.8704 24.9677C40.8922 24.8076 40.9287 24.5953 40.9514 24.4954C40.9741 24.3955 41.007 24.1334 41.0239 23.9136C41.0408 23.6938 41.0604 23.5141 41.068 23.5141C41.1014 23.5141 41.2108 22.7378 41.2344 22.3327C41.2415 22.2032 41.2767 22.0967 41.3123 22.0967C41.3474 22.0967 41.3604 22.0357 41.3403 21.9615C41.3207 21.8874 41.3332 21.7762 41.3684 21.7143C41.4035 21.6528 41.4493 21.3514 41.4698 21.0448C41.4907 20.7387 41.5383 20.4316 41.5753 20.3636C41.6127 20.2951 41.6358 20.1338 41.6269 20.0051C41.6175 19.876 41.6318 19.7705 41.6581 19.7705C41.6843 19.7705 41.711 19.6427 41.7172 19.4866C41.7235 19.3304 41.7591 19.1233 41.7969 19.0256C41.8347 18.9283 41.8543 18.7295 41.8405 18.5838C41.8267 18.4377 41.8392 18.3043 41.8685 18.2864C41.8975 18.2689 41.9295 18.1294 41.9389 17.9767C41.9486 17.8241 41.9882 17.6008 42.0265 17.4809C42.0652 17.3609 42.116 17.0504 42.1395 16.7905C42.1858 16.2859 42.2214 16.0273 42.2446 16.0273C42.2526 16.0273 42.2735 15.9126 42.2913 15.773C42.3576 15.2475 42.3941 14.9967 42.4706 14.5371C42.5138 14.2771 42.5681 13.9178 42.5912 13.7377C42.6415 13.3469 42.6793 13.1197 42.6936 13.1197C42.6998 13.1197 42.7158 13.0381 42.7301 12.9383C42.7977 12.4559 42.8556 11.9993 42.8863 11.7023C42.9049 11.5226 42.9503 11.2771 42.9868 11.1572C43.05 10.9496 43.1528 10.2745 43.18 9.88544C43.1871 9.78556 43.2 9.687 43.2084 9.66738C43.2347 9.60676 43.2783 9.35642 43.3157 9.0494C43.3353 8.88934 43.3575 8.75851 43.3655 8.75851C43.3735 8.75851 43.3913 8.64424 43.4051 8.50425C43.4189 8.36426 43.4688 8.02103 43.5159 7.74104C43.5631 7.46106 43.6063 7.12612 43.6116 6.99615C43.6169 6.86619 43.6414 6.75978 43.6663 6.75978C43.6913 6.75978 43.7144 6.62066 43.7184 6.45101C43.726 6.11912 43.7504 5.96648 43.8136 5.85135C43.8359 5.81122 43.863 5.64942 43.8742 5.49198C43.8853 5.33455 43.9543 4.86136 44.0277 4.44094C44.1007 4.02009 44.1541 3.58528 44.1465 3.47494C44.1385 3.36416 44.1536 3.26473 44.1803 3.25383C44.2235 3.23638 44.345 2.76058 44.3054 2.76319C44.2965 2.76363 44.2439 2.79198 44.1897 2.82599Z" fill="white"/>
<path fill-rule="evenodd" clip-rule="evenodd" d="M5.7283 0.308772C5.70071 0.478858 5.63217 0.928495 5.5761 1.30835C5.44394 2.20719 5.26995 3.34372 5.12621 4.25215C5.06258 4.65207 4.96245 5.29796 4.90282 5.68785C4.84364 6.0773 4.74485 6.72363 4.68389 7.12311C4.62248 7.52303 4.52235 8.17721 4.46139 8.57713C4.39998 8.97661 4.29985 9.63079 4.23889 10.0307C4.17748 10.4306 4.07735 11.0848 4.01639 11.4843C3.95498 11.8842 3.85485 12.5384 3.79389 12.9383C3.73248 13.3378 3.63235 13.992 3.57139 14.3919C3.50998 14.7918 3.41162 15.4377 3.35199 15.8276C3.29281 16.217 3.19491 16.8468 3.13484 17.2267C3.07476 17.6065 2.97153 18.2607 2.90478 18.6802C2.83847 19.1002 2.73612 19.7705 2.67738 20.1705C2.61864 20.5704 2.52163 21.208 2.46244 21.5878C2.33962 22.3763 2.17542 23.44 2.01389 24.4954C1.95248 24.8949 1.85235 25.5491 1.79139 25.949C1.72998 26.3489 1.62985 27.0031 1.56889 27.4026C1.50748 27.8025 1.40735 28.4567 1.34639 28.8566C1.28498 29.2561 1.18485 29.9103 1.12388 30.3102C1.06247 30.7101 0.96101 31.3721 0.89871 31.7821C0.835965 32.192 0.735843 32.8379 0.675768 33.2178C0.616139 33.5972 0.516902 34.2353 0.455937 34.6352C0.394527 35.0347 0.326 35.4764 0.30375 35.6164C-0.0856254 38.0652 -0.0811801 37.9671 0.20629 37.7068C0.30597 37.6165 0.601004 37.3627 0.862219 37.1429C1.12343 36.9226 1.39088 36.6941 1.45719 36.6339C1.52349 36.5737 1.79094 36.3448 2.05127 36.125C2.31204 35.9052 2.644 35.6247 2.78863 35.5013C2.9337 35.3783 3.16599 35.1821 3.30527 35.0652C3.44411 34.9487 3.64659 34.7712 3.75428 34.6714C3.86241 34.5715 4.11517 34.3587 4.31631 34.1991C4.51745 34.039 4.73461 33.8593 4.79913 33.7991C4.92106 33.6857 5.65487 33.0564 6.1644 32.6286C6.32593 32.493 6.5115 32.3325 6.57647 32.2727C6.64144 32.2125 6.90844 31.9836 7.16877 31.7638C7.77486 31.2531 8.21986 30.875 8.32443 30.7825C8.47751 30.6473 9.20597 30.0389 9.5415 29.7659C9.98027 29.4087 10.0007 29.3673 10.1093 28.6019C10.16 28.2421 10.2513 27.6372 10.3114 27.2574C10.3719 26.8775 10.4756 26.2233 10.5419 25.8038C10.6825 24.9167 10.8329 23.9028 10.9464 23.0781C10.9904 22.7579 11.0434 22.423 11.0638 22.3327L11.1021 22.1692H14.7814H18.4606L18.733 21.9332C18.8829 21.8033 19.2185 21.5167 19.4792 21.2969C19.74 21.0771 20.0075 20.8482 20.0738 20.7884C20.1396 20.7282 20.4088 20.4993 20.6714 20.2795C21.4986 19.5865 21.5761 19.5206 21.7768 19.3344C21.8849 19.2345 22.1368 19.0222 22.3366 18.863C22.5368 18.7034 22.7891 18.491 22.8973 18.3902C23.0059 18.2899 23.2074 18.1133 23.3454 17.9981C23.9315 17.5075 24.485 17.0374 24.5972 16.9358C24.6635 16.876 24.9309 16.6471 25.1913 16.4273C25.452 16.2075 25.784 15.9266 25.9286 15.8036C26.0737 15.6802 26.3051 15.4839 26.4435 15.3675C26.5819 15.2506 26.7323 15.1224 26.7781 15.0823C26.8235 15.0426 26.9957 14.8952 27.1608 14.7552C28.2124 13.862 28.3801 13.7111 28.3801 13.6549C28.3801 13.6204 24.8041 13.5925 20.4071 13.5925C16.022 13.5925 12.4353 13.5676 12.4367 13.538C12.4393 13.4704 12.6191 12.2375 12.7677 11.2662C12.8292 10.8668 12.9275 10.2204 12.9862 9.83097C13.0454 9.44108 13.1166 8.99929 13.1447 8.8497L13.1954 8.57713H23.826H34.4566L34.6662 8.37652C34.781 8.26574 35.0391 8.04507 35.2389 7.88588C35.4392 7.72626 35.691 7.51388 35.7992 7.414C35.9999 7.22822 36.0768 7.16193 36.9045 6.46894C37.1671 6.24913 37.4359 6.02017 37.5022 5.96042C37.5685 5.90024 37.8359 5.67128 38.0963 5.45147C38.357 5.23167 38.689 4.9495 38.8336 4.82434C38.9787 4.69917 39.2101 4.50292 39.348 4.38822C39.486 4.27352 39.688 4.09776 39.797 3.99789C39.9061 3.89802 40.1593 3.68563 40.3591 3.52601C40.5593 3.36639 40.8116 3.15401 40.9198 3.0537C41.0284 2.95339 41.2299 2.7772 41.3679 2.6625C41.5058 2.5478 41.7372 2.35155 41.8819 2.22638C42.0269 2.10122 42.358 1.81905 42.6175 1.59924C42.8773 1.379 43.1835 1.1169 43.2979 1.01615C43.4122 0.915412 43.6886 0.68645 43.9124 0.507205C44.1358 0.328397 44.32 0.140866 44.3223 0.0907126C44.3249 0.018317 40.4236 0 25.0524 0H5.77858L5.7283 0.308772Z" fill="white"/>
<path fill-rule="evenodd" clip-rule="evenodd" d="M54.7217 14.1642C54.7813 14.2523 54.8939 14.3583 54.9718 14.4006C55.0501 14.4429 55.1396 14.5162 55.1707 14.5637C55.3047 14.7678 55.6882 15.0927 55.7505 15.0552C55.7879 15.0325 55.8186 15.0487 55.8186 15.091C55.8186 15.1333 55.9481 15.2986 56.107 15.4591L56.3953 15.7504L62.7633 15.7316C68.7761 15.7142 69.1308 15.7059 69.121 15.586C69.1152 15.5158 69.1424 15.4586 69.1811 15.4586C69.2198 15.4586 69.2309 15.4259 69.2056 15.3858C69.1802 15.3461 69.2007 15.3134 69.2505 15.3134C69.3008 15.3134 69.3195 15.2916 69.2928 15.2654C69.2661 15.2393 69.2812 15.1738 69.3266 15.1202C69.372 15.0666 69.3831 15.0225 69.3515 15.0225C69.3199 15.0225 69.3524 14.9593 69.4236 14.8816C69.4953 14.8045 69.5366 14.7142 69.5162 14.681C69.372 14.4525 69.6813 14.3736 69.8962 14.5838C70.0199 14.705 70.145 14.8045 70.1739 14.8045C70.2028 14.8045 70.3942 14.985 70.5984 15.2057C70.8027 15.4264 70.9869 15.5908 71.0074 15.5703C71.2459 15.337 71.2036 15.9898 70.9624 16.2737C70.9041 16.3422 70.8765 16.4499 70.9015 16.5136C70.9313 16.5895 70.9175 16.6113 70.861 16.5773C70.8036 16.5424 70.7907 16.5651 70.8223 16.6462C70.8485 16.7125 70.8374 16.767 70.7978 16.767C70.7582 16.767 70.7332 16.7914 70.7417 16.8215C70.7506 16.8516 70.7159 16.9497 70.6652 17.0396C70.614 17.1294 70.5909 17.2031 70.614 17.2031C70.6367 17.2031 70.6082 17.2768 70.5504 17.3666C70.4525 17.5202 70.2504 18.0679 70.2629 18.1482C70.266 18.1678 70.234 18.2254 70.1912 18.2751C70.149 18.3252 70.1405 18.3662 70.1721 18.3662C70.2037 18.3662 70.1694 18.4316 70.0956 18.5115C70.0217 18.5913 69.9874 18.6567 70.019 18.6567C70.0506 18.6567 70.0435 18.6977 70.0035 18.7478C69.8909 18.887 69.6083 19.6742 69.6701 19.6755C69.7 19.6763 69.6808 19.7038 69.627 19.7374C69.5736 19.7705 69.5224 19.8438 69.514 19.8996C69.5051 19.9559 69.473 20.0405 69.4428 20.0885C69.3738 20.1966 69.1673 20.754 69.1281 20.9371C69.1121 21.0122 69.0445 21.1552 68.9777 21.2551C68.911 21.3549 68.8967 21.4125 68.9457 21.3829C68.9946 21.3532 68.9488 21.4797 68.8433 21.6646C68.7383 21.8495 68.6364 22.085 68.6173 22.1884C68.5981 22.2917 68.5519 22.4143 68.5145 22.4609C68.4335 22.5617 68.1696 23.3048 68.1674 23.4391C68.1665 23.4906 68.1215 23.5595 68.0677 23.5927C68.0134 23.6254 67.9747 23.6646 67.9814 23.6803C68.0099 23.7449 67.8826 24.1561 67.7882 24.3044C67.5493 24.6808 67.5991 24.6899 69.9002 24.6899C72.1292 24.6899 72.3762 24.6498 72.1702 24.3236C72.1461 24.2852 72.1537 24.2538 72.1866 24.2538C72.2538 24.2538 72.4216 23.9136 72.4656 23.6882C72.4812 23.6088 72.5969 23.2917 72.7228 22.9838C72.8488 22.6759 72.9342 22.396 72.9129 22.3619C72.8911 22.3279 72.9329 22.2664 73.005 22.225C73.0775 22.184 73.1073 22.1491 73.0717 22.1478C73.0361 22.1469 73.0486 22.0968 73.0993 22.0366C73.15 21.9768 73.1741 21.9276 73.1527 21.9276C73.1309 21.9276 73.2288 21.6415 73.3703 21.2917C73.5114 20.9419 73.632 20.5983 73.6387 20.5285C73.6449 20.4587 73.6765 20.4012 73.7085 20.4012C73.7406 20.4012 73.7615 20.3767 73.7548 20.3466C73.7481 20.317 73.7842 20.194 73.8345 20.0741C73.8852 19.9541 73.931 19.7989 73.9364 19.7291C73.9421 19.6589 73.9751 19.6018 74.0093 19.6018C74.0441 19.6018 74.0529 19.5712 74.0294 19.5342C74.0062 19.4971 74.0214 19.4456 74.0636 19.4199C74.1055 19.3946 74.121 19.3431 74.0975 19.3061C74.0739 19.2686 74.089 19.2385 74.1308 19.2385C74.1727 19.2385 74.1878 19.1892 74.1646 19.1294C74.1411 19.0693 74.1535 19.0204 74.1918 19.0204C74.2305 19.0204 74.3217 18.832 74.3947 18.6022C74.4677 18.3723 74.5754 18.0945 74.6337 17.9846C74.6915 17.8747 74.72 17.7844 74.6964 17.7844C74.6728 17.7844 74.7022 17.7112 74.7618 17.6209C74.8219 17.5311 74.8864 17.3758 74.906 17.2759C74.9251 17.1761 74.9941 16.972 75.0591 16.8228C75.1236 16.6737 75.1695 16.5263 75.1601 16.4957C75.1508 16.4652 75.2042 16.3501 75.2789 16.2406C75.3537 16.1311 75.3964 15.9946 75.3742 15.9375C75.3519 15.8808 75.3742 15.8189 75.424 15.8001C75.4738 15.7814 75.5579 15.5986 75.6118 15.3945C75.6652 15.19 75.7391 15.0177 75.776 15.0116C75.9455 14.9841 75.9918 14.9898 75.9949 15.0378C75.9963 15.0661 76.1493 15.238 76.3345 15.4194L76.6709 15.7495H79.1731H81.6754L81.8138 15.477C81.8898 15.3269 81.9588 15.1795 81.9668 15.1499C81.9744 15.1198 81.9873 15.0871 81.9958 15.077C82.0038 15.067 82.0256 14.9785 82.0438 14.8803C82.0621 14.7822 82.1043 14.6841 82.1373 14.6623C82.1978 14.6226 82.37 14.1817 82.37 14.0665C82.37 14.0325 76.1249 14.005 68.4918 14.005H54.6136L54.7217 14.1642ZM82.8426 14.0604C82.7963 14.0901 82.7055 14.2611 82.641 14.4412C82.3553 15.2362 82.2832 15.4159 82.1457 15.6806C82.0652 15.835 81.9993 16.0134 81.9993 16.0766C81.9993 16.1394 81.9361 16.3126 81.8591 16.4608C81.7817 16.6091 81.719 16.7469 81.7194 16.767C81.7199 16.787 81.666 16.9301 81.6001 17.0849C81.5343 17.2397 81.48 17.3906 81.48 17.4207C81.48 17.4508 81.4155 17.6187 81.3367 17.7936C81.2575 17.9685 81.1992 18.1312 81.2068 18.1551C81.2143 18.1787 81.1761 18.2511 81.1213 18.3152C81.067 18.3797 81.0439 18.4665 81.0702 18.5084C81.0964 18.5498 81.0808 18.5843 81.035 18.5843C80.9896 18.5843 80.9727 18.617 80.9981 18.6567C81.0234 18.6968 81.0087 18.7295 80.9656 18.7295C80.922 18.7295 80.8868 18.7866 80.8864 18.8569C80.8859 18.9266 80.8361 19.0771 80.7756 19.1914C80.7146 19.3056 80.6835 19.4282 80.7061 19.4639C80.7288 19.4997 80.7159 19.5289 80.6781 19.5289C80.614 19.5289 80.4832 19.9306 80.5059 20.0562C80.5117 20.0858 80.4828 20.1107 80.4418 20.1107C80.4009 20.1107 80.3675 20.1587 80.3675 20.2171C80.3675 20.3248 80.2109 20.7139 80.0253 21.0654C79.9697 21.1705 79.9145 21.3179 79.9029 21.3925C79.8909 21.467 79.8611 21.5608 79.8366 21.6005C79.8117 21.6406 79.7685 21.7797 79.74 21.9097C79.7116 22.0397 79.6604 22.1456 79.6261 22.1456C79.5919 22.1456 79.542 22.252 79.5158 22.382C79.4895 22.512 79.4232 22.7165 79.3685 22.8364C79.3137 22.9564 79.2132 23.2015 79.1446 23.3816C79.0766 23.5613 78.9742 23.7998 78.9168 23.9119C78.8447 24.0532 78.8403 24.0986 78.903 24.0606C78.9524 24.0305 78.9181 24.099 78.8274 24.2124C78.4393 24.696 78.4131 24.6899 80.8779 24.6899H83.0936L83.2569 24.2355C83.3468 23.9856 83.4509 23.7244 83.4887 23.655C83.5261 23.5857 83.5568 23.4671 83.5568 23.3912C83.5568 23.3157 83.6049 23.2146 83.6636 23.167C83.7224 23.119 83.7522 23.0336 83.7299 22.9764C83.7077 22.9193 83.7299 22.8726 83.7793 22.8726C83.8287 22.8726 83.8501 22.8238 83.8265 22.7636C83.8033 22.7034 83.8185 22.6546 83.8603 22.6546C83.9021 22.6546 83.9159 22.6219 83.8906 22.5817C83.8652 22.5421 83.8799 22.5093 83.923 22.5093C83.9667 22.5093 84.0018 22.4348 84.0018 22.3436C84.0018 22.2525 84.0485 22.1125 84.1059 22.0327C84.2114 21.8848 84.4099 21.2826 84.3859 21.1827C84.3787 21.1526 84.4059 21.1282 84.4468 21.1282C84.4878 21.1282 84.5211 21.0802 84.5211 21.0217C84.5211 20.9166 84.672 20.539 84.8567 20.1831C84.9083 20.0832 85.0035 19.8255 85.0685 19.6105C85.133 19.3955 85.2242 19.1748 85.2705 19.1198C85.3168 19.0653 85.3364 19.0204 85.3141 19.0204C85.2794 19.0204 85.4352 18.5948 85.6737 18.0391C85.7084 17.9589 85.7413 17.8608 85.748 17.8211C85.7654 17.7142 85.9914 17.1979 86.1222 16.9667C86.1845 16.8568 86.2148 16.7338 86.1894 16.6942C86.1645 16.6545 86.1765 16.6218 86.2166 16.6218C86.2566 16.6218 86.3114 16.5232 86.3381 16.4028C86.3652 16.2825 86.4369 16.0862 86.4978 15.9667L86.6086 15.7495H89.0107C91.5481 15.7495 91.7413 15.7216 91.529 15.3845C91.5041 15.3452 91.5214 15.3134 91.5668 15.3134C91.6122 15.3134 91.6313 15.2842 91.6091 15.2489C91.5868 15.2135 91.6198 15.1429 91.6821 15.0919C91.7448 15.0408 91.7791 14.9554 91.7577 14.9017C91.7368 14.8481 91.7448 14.8045 91.7755 14.8045C91.8543 14.8045 92.0701 14.2061 92.0314 14.0958C91.9958 13.9941 83.001 13.9597 82.8426 14.0604ZM56.2699 16.2873C56.2222 16.3431 56.1697 16.4608 56.1524 16.5489C56.135 16.637 56.0883 16.7478 56.0483 16.7949C56.0082 16.842 55.9588 16.9724 55.9379 17.0845C55.917 17.1966 55.8622 17.3331 55.816 17.388C55.7697 17.4425 55.7532 17.5215 55.7795 17.5633C55.8057 17.6052 55.7959 17.6392 55.7572 17.6392C55.7189 17.6392 55.6629 17.7129 55.6331 17.8028C55.6033 17.8926 55.5717 17.9824 55.5623 18.0025C55.5534 18.0226 55.5209 18.1046 55.4898 18.1844C55.4586 18.2642 55.3309 18.5878 55.2054 18.9027C55.0804 19.218 54.978 19.5206 54.978 19.5751C54.978 19.6297 54.9562 19.6746 54.9295 19.6746C54.8824 19.6746 54.6016 20.4413 54.5971 20.583C54.5958 20.6231 54.5744 20.672 54.5495 20.692C54.4547 20.7684 54.2113 21.3916 54.2291 21.5111C54.2393 21.5804 54.2206 21.6371 54.1873 21.6371C54.1067 21.6371 53.7356 22.5857 53.7854 22.665C53.8072 22.6991 53.7921 22.7274 53.7521 22.7274C53.712 22.7274 53.6568 22.829 53.6288 22.9533C53.6008 23.0776 53.4975 23.358 53.3992 23.5761C53.3008 23.7942 53.2425 24.0083 53.2701 24.0519C53.2977 24.0959 53.2857 24.1099 53.2421 24.0837C53.1535 24.0301 53.0516 24.2316 53.1157 24.3328C53.1384 24.3694 53.1219 24.399 53.0788 24.399C53.0356 24.399 53 24.4645 53 24.5443C53 24.6864 53.0494 24.6899 55.1565 24.6899C57.4042 24.6899 57.5261 24.6734 57.482 24.3794C57.4718 24.3101 57.4936 24.2538 57.531 24.2538C57.5679 24.2538 57.5986 24.1884 57.5986 24.1082C57.5986 24.0283 57.632 23.9629 57.6725 23.9629C57.7134 23.9629 57.7415 23.9385 57.7348 23.9084C57.7281 23.8783 57.7651 23.7558 57.8162 23.6358C57.8679 23.5159 57.9168 23.3777 57.9253 23.3288C57.9333 23.2804 57.9613 23.2198 57.9867 23.1949C58.0125 23.1696 58.0152 23.1033 57.9933 23.0471C57.9715 22.9913 57.9925 22.9455 58.0401 22.9455C58.0877 22.9455 58.1059 22.9128 58.0806 22.8726C58.0552 22.8325 58.0699 22.7998 58.1131 22.7998C58.1567 22.7998 58.1918 22.7693 58.1918 22.7322C58.1918 22.6947 58.2305 22.5721 58.2773 22.4596C58.3244 22.3467 58.3707 22.218 58.3805 22.1731C58.3903 22.1282 58.4464 21.9812 58.5055 21.846C58.6212 21.58 58.7859 21.136 58.8117 21.0191C58.8202 20.979 58.8842 20.836 58.9537 20.7012C59.0226 20.5664 59.0613 20.4278 59.0391 20.3924C59.0168 20.3575 59.0364 20.3288 59.0818 20.3288C59.1272 20.3288 59.1437 20.2952 59.1183 20.2546C59.0867 20.2049 60.3283 20.187 62.9333 20.2001L66.7954 20.2197L66.9165 19.856C66.9828 19.6563 67.066 19.457 67.1012 19.4133C67.1359 19.3697 67.1408 19.3109 67.1118 19.2821C67.0829 19.2537 67.102 19.2045 67.1546 19.1726C67.2071 19.1408 67.2591 19.0688 67.2707 19.013C67.2823 18.9572 67.3299 18.8194 67.3771 18.7064C67.4242 18.5939 67.4625 18.4879 67.4625 18.4705C67.4625 18.453 65.7475 18.4386 63.6511 18.4386H59.8396L60.0541 17.9223C60.1721 17.6384 60.2686 17.3605 60.2686 17.3047C60.2686 17.2489 60.3038 17.2031 60.3469 17.2031C60.3901 17.2031 60.4066 17.1726 60.383 17.1355C60.3594 17.0984 60.3741 17.0474 60.4155 17.0221C60.4569 16.9968 60.4911 16.8965 60.4911 16.7988C60.4911 16.7016 60.5232 16.6218 60.5628 16.6218C60.6024 16.6218 60.6166 16.576 60.5948 16.5201C60.573 16.4639 60.5913 16.3963 60.6353 16.3697C60.8792 16.2218 60.4564 16.1856 58.4931 16.1856C56.7531 16.1856 56.3397 16.2044 56.2699 16.2873Z" fill="white"/>
<path fill-rule="evenodd" clip-rule="evenodd" d="M98.5386 14.072C98.5386 14.1091 98.6303 14.2099 98.7424 14.2962C98.8546 14.3821 99.2564 14.7445 99.6351 15.1008L100.324 15.7494H105.476C108.309 15.7494 110.627 15.7572 110.627 15.7672C110.627 15.7773 110.445 16.2557 110.223 16.8301L109.82 17.875L110.168 17.8336C110.36 17.8109 110.85 17.7385 111.258 17.6726C112.701 17.4393 113.193 17.3626 113.817 17.2736C114.555 17.1676 114.625 17.1144 114.856 16.4759C114.951 16.216 115.05 15.9709 115.077 15.9308C115.104 15.8911 115.237 15.564 115.373 15.2042C115.508 14.8444 115.647 14.4733 115.682 14.3799C115.745 14.2142 115.759 14.2216 116.21 14.6399C116.464 14.8767 116.842 15.223 117.051 15.4096L117.429 15.7494H122.557C125.378 15.7494 127.686 15.7637 127.686 15.7812C127.686 15.8627 127.286 16.8837 127.23 16.9448C127.195 16.9827 127.167 17.0647 127.166 17.1266C127.166 17.1885 127.116 17.3329 127.055 17.4476C126.994 17.5619 126.944 17.6879 126.944 17.7271C126.944 17.7664 126.895 17.902 126.835 18.0276C126.775 18.1537 126.508 18.8292 126.241 19.5287C125.975 20.2287 125.724 20.8663 125.684 20.9461C125.603 21.1105 125.09 22.4324 125.09 22.4791C125.09 22.4957 126.108 22.5092 127.352 22.5092C128.889 22.5092 129.614 22.4843 129.614 22.4324C129.614 22.3901 129.677 22.2183 129.753 22.0508C129.829 21.8829 130.084 21.2388 130.319 20.619C130.554 19.9993 130.804 19.3617 130.875 19.2017C130.946 19.042 131.196 18.404 131.431 17.7843C131.666 17.1646 131.917 16.5269 131.988 16.3669C132.059 16.2073 132.276 15.6578 132.471 15.1458L132.826 14.2155L133.087 14.4554C133.231 14.5871 133.601 14.9325 133.91 15.2221L134.472 15.7489H139.608C142.851 15.7489 144.744 15.7751 144.744 15.8191C144.744 15.8976 144.499 16.5352 144.333 16.8867C144.273 17.0128 144.225 17.1663 144.225 17.2278C144.225 17.2893 144.194 17.3582 144.156 17.3813C144.119 17.404 144.066 17.5226 144.039 17.6447C144.011 17.7668 143.942 17.9548 143.885 18.0621C143.828 18.1689 143.781 18.312 143.78 18.3796C143.78 18.4476 143.755 18.5178 143.724 18.5366C143.694 18.5553 143.586 18.8026 143.486 19.0861L143.303 19.6016H140.396H137.489L137.708 19.0381C137.828 18.7285 137.971 18.377 138.026 18.257C138.08 18.1371 138.233 17.7446 138.366 17.3848C138.498 17.025 138.652 16.6273 138.709 16.5012C138.765 16.3756 138.811 16.2526 138.811 16.2287C138.811 16.2051 137.801 16.1855 136.566 16.1855H134.321L134.185 16.5671C134.111 16.7769 134.006 17.0468 133.954 17.1667C133.902 17.2867 133.751 17.6792 133.618 18.039C133.486 18.3988 133.319 18.824 133.249 18.9836C133.177 19.1437 132.927 19.7813 132.692 20.401C132.457 21.0207 132.202 21.6649 132.126 21.8328C132.05 22.0002 131.987 22.1865 131.987 22.2462C131.987 22.3059 131.954 22.3753 131.914 22.4002C131.873 22.4246 131.839 22.5 131.839 22.5681C131.838 22.6357 131.789 22.7844 131.728 22.8991C131.667 23.0133 131.617 23.1394 131.617 23.1786C131.617 23.2179 131.568 23.3535 131.509 23.4791C131.315 23.8908 131.097 24.4748 131.097 24.5834C131.097 24.6741 131.418 24.6898 133.311 24.6898H135.525L135.847 23.8354C136.025 23.3657 136.213 22.8999 136.266 22.7996C136.319 22.6998 136.363 22.5628 136.363 22.4952C136.363 22.4276 136.394 22.3535 136.432 22.3308C136.47 22.3081 136.524 22.1843 136.553 22.0565C136.581 21.9283 136.631 21.773 136.664 21.712C136.697 21.6505 136.741 21.5432 136.764 21.4734C136.799 21.36 136.919 21.3461 137.871 21.3461C139.095 21.3461 138.923 21.2658 139.812 22.251C140.098 22.5672 140.431 22.9287 140.554 23.0543C140.676 23.1799 141.072 23.5995 141.433 23.9863L142.091 24.6898H144.423C146.703 24.6898 146.753 24.6867 146.656 24.5511C146.602 24.4748 146.107 23.9471 145.558 23.3784C145.009 22.8101 144.35 22.1285 144.095 21.8637L143.63 21.3823L145.37 21.3631C147.097 21.3434 147.109 21.3421 147.158 21.1812C147.186 21.0918 147.254 20.9208 147.309 20.8009C147.365 20.681 147.628 20.0107 147.895 19.3107C148.161 18.6112 148.412 17.9736 148.452 17.8933C148.493 17.8135 148.743 17.1759 149.009 16.4759C149.275 15.7764 149.524 15.1388 149.564 15.0585C149.603 14.9787 149.695 14.7594 149.768 14.571L149.902 14.2286L150.7 14.9971C151.567 15.8309 151.54 15.7664 151.272 16.3669C151.201 16.5269 151.082 16.8213 151.009 17.0211C150.936 17.2213 150.848 17.4158 150.814 17.4537C150.78 17.4916 150.752 17.5671 150.752 17.6212C150.752 17.6753 150.689 17.8571 150.613 18.0246C150.537 18.1925 150.333 18.7058 150.159 19.1655C149.985 19.6251 149.784 20.1323 149.714 20.292C149.643 20.452 149.525 20.7464 149.451 20.9461C149.377 21.1463 149.295 21.3426 149.268 21.3823C149.241 21.4224 149.091 21.7983 148.935 22.2183C148.779 22.6378 148.624 23.0125 148.589 23.0504C148.555 23.0883 148.527 23.1655 148.527 23.2214C148.527 23.2772 148.478 23.4259 148.419 23.5519C148.252 23.9056 148.007 24.5415 148.007 24.6209C148.007 24.6658 148.822 24.6845 150.24 24.6723L152.474 24.6531L152.771 23.8537C152.934 23.4141 153.11 22.9562 153.161 22.8363C153.213 22.7163 153.363 22.3238 153.495 21.964C153.626 21.6042 153.764 21.2444 153.8 21.1642C153.836 21.0844 154.233 20.0538 154.682 18.8746C155.132 17.6953 155.529 16.6652 155.565 16.585C155.602 16.5051 155.739 16.1454 155.871 15.7856C156.002 15.4258 156.153 15.0332 156.205 14.9133C156.257 14.7934 156.333 14.5971 156.373 14.4772C156.414 14.3573 156.471 14.202 156.5 14.1318C156.55 14.011 155.142 14.0049 127.545 14.0049C109.77 14.0049 98.5386 14.031 98.5386 14.072ZM161.428 14.2775C161.378 14.427 161.315 14.5827 161.286 14.6224C161.257 14.6625 161.156 14.9076 161.061 15.1676C160.966 15.4275 160.866 15.673 160.839 15.7127C160.812 15.7528 160.679 16.0799 160.545 16.4397C160.41 16.7995 160.242 17.2247 160.172 17.3848C160.101 17.5444 159.95 17.9208 159.837 18.2204C159.724 18.5204 159.574 18.8964 159.504 19.0564C159.433 19.2165 159.283 19.5924 159.17 19.8925C159.056 20.1921 158.902 20.5746 158.826 20.7425C158.75 20.9099 158.687 21.0818 158.687 21.1241C158.687 21.1664 158.66 21.2008 158.626 21.2008C158.564 21.2008 158.478 20.8969 157.914 18.6748C157.856 18.445 157.652 17.6683 157.462 16.9487C157.272 16.2291 157.068 15.4441 157.008 15.2042C156.948 14.9643 156.88 14.6944 156.858 14.6045C156.794 14.3542 156.727 14.4057 156.575 14.8226C156.498 15.0324 156.391 15.2858 156.338 15.3856C156.284 15.4859 156.241 15.6089 156.24 15.6595C156.24 15.7097 156.209 15.8078 156.172 15.8776C156.135 15.9469 156.029 16.216 155.937 16.4759C155.846 16.7359 155.748 16.9814 155.721 17.0211C155.694 17.0612 155.596 17.3063 155.504 17.5662C155.413 17.8261 155.312 18.0891 155.279 18.1502C155.097 18.4956 155.145 19.0019 155.468 20.1467C155.491 20.2265 155.553 20.4882 155.608 20.7281C155.661 20.9679 155.762 21.3932 155.83 21.6731C155.898 21.9531 156.001 22.3862 156.06 22.6361C156.223 23.3334 156.372 23.9636 156.465 24.3444L156.549 24.6898H159.124C161.771 24.6898 161.873 24.6789 161.879 24.4024C161.881 24.3404 161.946 24.159 162.025 23.999C162.104 23.8393 162.17 23.6671 162.171 23.6165C162.172 23.5659 162.204 23.4678 162.241 23.3984C162.278 23.3291 162.366 23.1088 162.436 22.9087C162.506 22.7089 162.605 22.4473 162.656 22.3273C162.708 22.2074 162.923 21.6348 163.137 21.0552C163.349 20.4756 163.553 19.9361 163.588 19.8558C163.737 19.5235 164.102 18.5453 164.102 18.4764C164.103 18.4358 164.149 18.3146 164.207 18.2069C164.264 18.0996 164.436 17.6596 164.589 17.2295C164.743 16.7991 164.912 16.3634 164.966 16.2614C165.021 16.1597 165.065 16.0429 165.066 16.0019C165.066 15.9321 165.435 14.9421 165.58 14.6224C165.616 14.5426 165.667 14.4144 165.692 14.3372C165.734 14.2125 165.778 14.2334 166.088 14.5256C166.281 14.7062 166.653 15.0555 166.917 15.3015L167.396 15.7494H178.854C187.766 15.7494 190.293 15.7685 190.223 15.8366C190.174 15.8846 190.134 15.9744 190.134 16.0363C190.133 16.0982 190.084 16.2426 190.023 16.3573C189.962 16.4716 189.912 16.6024 189.911 16.6478C189.911 16.6931 189.868 16.8122 189.815 16.912C189.762 17.0123 189.504 17.6582 189.242 18.3477L188.764 19.6016H185.889C184.096 19.6016 183.014 19.5754 183.014 19.5318C183.014 19.4668 183.231 18.8824 183.38 18.5475C183.415 18.4677 183.552 18.1079 183.684 17.7481C183.816 17.3883 183.982 16.9631 184.053 16.803C184.125 16.6434 184.206 16.4384 184.234 16.3477L184.286 16.1833L182.041 16.2025L179.795 16.2217L179.586 16.7668C179.472 17.0669 179.345 17.3774 179.305 17.4572C179.266 17.5374 179.016 18.175 178.75 18.8746C178.484 19.5745 178.234 20.2121 178.194 20.292C178.154 20.3722 177.903 21.0098 177.636 21.7093C177.369 22.4093 177.106 23.0796 177.051 23.1996C176.997 23.3195 176.893 23.5812 176.822 23.7809C176.75 23.9811 176.646 24.2476 176.59 24.3736C176.534 24.4996 176.487 24.6222 176.487 24.6462C176.487 24.7408 181.012 24.6937 181.014 24.5986C181.016 24.5489 181.081 24.3771 181.16 24.217C181.239 24.0574 181.305 23.8712 181.306 23.8036C181.307 23.736 181.339 23.6618 181.377 23.6392C181.415 23.6165 181.468 23.4979 181.495 23.3758C181.523 23.2532 181.592 23.0657 181.649 22.9584C181.706 22.8511 181.753 22.7115 181.753 22.6483C181.753 22.5851 181.779 22.5087 181.809 22.4791C181.839 22.4494 181.952 22.1904 182.059 21.9039L182.254 21.3823L183.352 21.3622L184.45 21.3421L184.667 21.5803C184.787 21.7115 185.143 22.0966 185.458 22.4364C185.773 22.7761 186.161 23.1982 186.321 23.3744C186.481 23.5502 186.757 23.8446 186.935 24.0286C187.114 24.2122 187.309 24.436 187.37 24.5262L187.481 24.6898H189.809C191.213 24.6898 192.137 24.6623 192.137 24.6213C192.137 24.555 191.604 23.9754 190.701 23.0591C190.462 22.8166 190 22.3317 189.673 21.9819L189.08 21.3461H190.821H192.562L192.916 20.4193C193.11 19.9095 193.326 19.3617 193.397 19.2017C193.469 19.042 193.719 18.404 193.954 17.7843C194.189 17.1646 194.439 16.5269 194.51 16.3669C194.657 16.0385 195.4 14.0939 195.4 14.0398C195.4 14.0206 187.777 14.0049 178.459 14.0049H161.518L161.428 14.2775ZM196.864 14.0476C196.84 14.0712 197.026 14.2753 197.277 14.5016C197.528 14.728 197.937 15.1017 198.187 15.3316L198.64 15.7502L204.82 15.7315L211 15.7127L211.194 15.1676C211.301 14.868 211.408 14.5897 211.432 14.55C211.457 14.5099 211.5 14.3708 211.529 14.2408L211.58 14.0049H204.244C200.21 14.0049 196.888 14.0241 196.864 14.0476ZM100.102 16.458C100.048 16.6076 99.9452 16.8615 99.874 17.0211C99.8028 17.1811 99.5523 17.8187 99.3174 18.4385C99.0824 19.0582 98.8323 19.6962 98.7611 19.8558C98.6903 20.0159 98.5724 20.3103 98.499 20.51C98.4256 20.7102 98.3379 20.9047 98.3036 20.9426C98.2698 20.9806 98.2418 21.0626 98.2413 21.1245C98.2409 21.1864 98.1942 21.3247 98.1372 21.432C98.0798 21.5393 98.0108 21.7268 97.9837 21.8493C97.9561 21.9715 97.9027 22.0901 97.8653 22.1128C97.8275 22.1354 97.7968 22.2096 97.7963 22.2772C97.7959 22.3448 97.7527 22.4817 97.7002 22.5816C97.6473 22.6819 97.5258 22.9758 97.4297 23.2358C97.3331 23.4957 97.2263 23.7395 97.192 23.7774C97.1573 23.8154 97.1293 23.8973 97.1288 23.9593C97.1284 24.0212 97.0786 24.1656 97.0176 24.2798C96.7835 24.7199 96.2437 24.6898 104.278 24.6898H111.649L111.769 24.4425C111.835 24.3064 111.889 24.1629 111.889 24.1237C111.889 24.0844 111.938 23.9584 111.999 23.8437C112.06 23.7294 112.11 23.5851 112.111 23.5232C112.111 23.4612 112.139 23.3792 112.173 23.3413C112.207 23.3034 112.294 23.1088 112.368 22.9087C112.441 22.7089 112.542 22.4473 112.593 22.3273C112.644 22.2074 112.787 21.8389 112.911 21.5079L113.135 20.9069L112.753 20.9505C112.543 20.9745 112.32 21.0102 112.259 21.0303C112.198 21.0499 111.781 21.111 111.332 21.1664C110.238 21.3007 109.505 21.4006 108.907 21.4965L108.41 21.5759L108.282 21.9152C108.212 22.1018 108.131 22.2872 108.102 22.3273C108.073 22.3674 108.026 22.5061 107.998 22.6361L107.946 22.8725H105.022C103.394 22.8725 102.099 22.8441 102.099 22.8088C102.099 22.7412 102.259 22.3343 102.437 21.9527C102.496 21.8271 102.544 21.6779 102.544 21.6221C102.544 21.5663 102.572 21.4895 102.605 21.4516C102.64 21.4137 102.828 20.957 103.022 20.4376C103.218 19.9178 103.422 19.3944 103.477 19.2745C103.532 19.1546 103.795 18.4842 104.061 17.7843C104.327 17.0847 104.578 16.4554 104.619 16.3861C104.66 16.3167 104.694 16.243 104.694 16.2225C104.694 16.202 103.683 16.1855 102.447 16.1855H100.2L100.102 16.458ZM116.821 17.3303C116.583 17.9596 116.367 18.5078 116.339 18.5475C116.311 18.5876 116.213 18.8327 116.12 19.0926C116.027 19.3526 115.904 19.6683 115.848 19.7943C115.791 19.9204 115.745 20.0691 115.745 20.1249C115.745 20.1807 115.717 20.2579 115.683 20.2959C115.649 20.3338 115.562 20.5283 115.488 20.7281C115.415 20.9283 115.314 21.1899 115.263 21.3099C115.211 21.4298 115.061 21.8223 114.929 22.1821C114.797 22.5419 114.644 22.9344 114.589 23.0543C114.473 23.309 113.965 24.6152 113.965 24.6597C113.965 24.6767 117.293 24.6819 121.36 24.6719L128.755 24.6531L128.914 24.217C129.001 23.9772 129.111 23.6889 129.158 23.5764C129.205 23.4638 129.244 23.3269 129.244 23.272C129.244 23.217 129.277 23.1516 129.317 23.1267C129.719 22.8838 129.493 22.8725 124.274 22.8725C121.46 22.8725 119.157 22.8542 119.157 22.8323C119.157 22.8101 119.219 22.6544 119.296 22.4869C119.372 22.319 119.626 21.6749 119.861 21.0552C120.096 20.4354 120.347 19.7978 120.417 19.6378C120.489 19.4782 120.739 18.8401 120.974 18.2204C121.209 17.6007 121.46 16.9631 121.531 16.803C121.603 16.6434 121.683 16.4389 121.712 16.349L121.763 16.1855H119.507H117.252L116.821 17.3303ZM167.115 16.5671C167.04 16.7769 166.915 17.0856 166.838 17.2535C166.761 17.421 166.697 17.6072 166.697 17.667C166.697 17.7267 166.667 17.7943 166.629 17.8174C166.592 17.8401 166.538 17.9587 166.511 18.0808C166.483 18.203 166.414 18.3909 166.357 18.4982C166.3 18.6051 166.253 18.7437 166.253 18.8057C166.253 18.8676 166.224 18.9496 166.19 18.9875C166.155 19.0255 166.049 19.2688 165.953 19.5287C165.856 19.7887 165.734 20.0831 165.682 20.1829C165.629 20.2832 165.586 20.4154 165.585 20.4773C165.585 20.5392 165.557 20.6212 165.523 20.6592C165.489 20.6971 165.301 21.1533 165.105 21.6731C164.91 22.193 164.692 22.749 164.621 22.9087C164.476 23.2344 163.954 24.6012 163.954 24.6549C163.954 24.6741 166.437 24.6898 169.473 24.6898H174.993L175.041 24.4726C175.068 24.3531 175.121 24.2366 175.158 24.2135C175.196 24.1909 175.227 24.1272 175.227 24.0722C175.227 24.0173 175.265 23.8803 175.313 23.7678C175.359 23.6549 175.455 23.4076 175.524 23.2179L175.649 22.8725H172.392H169.135L169.185 22.7089C169.212 22.6191 169.281 22.4503 169.338 22.3343C169.395 22.2183 169.442 22.0875 169.442 22.0434C169.443 21.9998 169.489 21.8759 169.546 21.7691C169.604 21.6618 169.673 21.4738 169.7 21.3517C169.727 21.2296 169.781 21.111 169.818 21.0883C169.856 21.0652 169.887 20.9998 169.887 20.9426C169.887 20.8851 169.945 20.7071 170.015 20.5471L170.144 20.2558H172.976H175.808L175.898 19.9832C175.948 19.8332 176.007 19.6779 176.031 19.6378C176.107 19.5104 176.413 18.6238 176.413 18.5296C176.414 18.4585 175.809 18.4385 173.639 18.4385H170.866L171.195 17.5845C171.375 17.1148 171.572 16.6273 171.632 16.5012C171.692 16.3756 171.741 16.2526 171.741 16.2287C171.741 16.2051 170.731 16.1855 169.496 16.1855H167.251L167.115 16.5671ZM203.002 16.4031C202.839 16.5208 202.672 16.6438 202.631 16.6761C202.591 16.7084 202.424 16.8148 202.261 16.9116C202.097 17.0089 201.926 17.1223 201.88 17.1637C201.834 17.2056 201.734 17.2806 201.658 17.3307C201.581 17.3809 201.285 17.5789 201 17.7708C200.714 17.9627 200.013 18.4276 199.442 18.8044C198.871 19.1807 198.387 19.5065 198.367 19.5279C198.346 19.5497 198.13 19.6975 197.885 19.8571C197.64 20.0163 197.423 20.1642 197.402 20.1851C197.382 20.206 196.898 20.5314 196.327 20.9082C195.756 21.285 195.039 21.7582 194.733 21.9601C194.428 22.162 194.14 22.36 194.093 22.4002C194.047 22.4398 193.935 22.5218 193.843 22.5816C193.416 22.8624 193.335 22.9689 193.142 23.5053C193.029 23.8167 192.891 24.1747 192.834 24.3008C192.777 24.4268 192.73 24.5659 192.73 24.61C192.73 24.6671 194.797 24.6898 200.11 24.6898C205.423 24.6898 207.489 24.6671 207.489 24.61C207.489 24.5659 207.538 24.4268 207.597 24.3008C207.701 24.0827 208.157 22.934 208.157 22.8921C208.157 22.8812 206.421 22.8725 204.3 22.8725C202.179 22.8725 200.445 22.848 200.447 22.818C200.449 22.7879 200.707 22.5986 201.022 22.3971C201.921 21.8206 203.666 20.664 203.707 20.6173C203.727 20.5942 203.877 20.4965 204.041 20.4001C204.204 20.3037 204.375 20.1908 204.421 20.1493C204.467 20.1079 204.567 20.0329 204.644 19.9827C204.72 19.9322 205.016 19.7346 205.301 19.5427C205.587 19.3513 206.288 18.8868 206.859 18.5108C207.43 18.1349 207.914 17.8078 207.934 17.7838C207.955 17.7599 208.105 17.6617 208.268 17.5653C208.431 17.469 208.605 17.356 208.655 17.3146C208.859 17.1436 208.949 17.0813 209.232 16.9138C209.395 16.817 209.546 16.7202 209.566 16.6979C209.586 16.6757 209.745 16.5631 209.918 16.448C210.092 16.3324 210.234 16.2265 210.234 16.2116C210.234 16.1973 208.673 16.1863 206.766 16.1872L203.299 16.1894L203.002 16.4031Z" fill="white"/>
</svg>
