<svg width="212" height="40" viewBox="0 0 212 40" fill="none" xmlns="http://www.w3.org/2000/svg">
<path fill-rule="evenodd" clip-rule="evenodd" d="M44.1897 3.7445C44.0103 3.85571 43.3326 4.43705 42.9953 4.76894C42.8137 4.94775 42.6909 5.04587 42.7229 4.987C42.755 4.92812 42.6807 4.98351 42.5587 5.11042C42.4364 5.23689 42.3189 5.32368 42.298 5.30318C42.2766 5.28225 42.2156 5.33415 42.1622 5.41788C42.1088 5.50162 42.0412 5.57052 42.0118 5.57052C41.9825 5.57052 41.8276 5.69613 41.6674 5.85008C41.5072 6.00402 41.3221 6.15012 41.2562 6.17498C41.1904 6.19984 41.1365 6.2718 41.1365 6.33547C41.1365 6.39915 41.1098 6.43491 41.0773 6.41528C41.0448 6.39566 40.8299 6.55397 40.5998 6.7668C40.3702 6.98006 40.166 7.1388 40.1468 7.12005C40.1277 7.1013 40.0899 7.15407 40.0627 7.2378C40.0356 7.3211 39.9844 7.37213 39.9493 7.35076C39.9137 7.32939 39.858 7.35643 39.8247 7.41094C39.7917 7.46546 39.6729 7.56794 39.5612 7.6386C39.4495 7.70925 39.3707 7.78775 39.3868 7.81348C39.4023 7.83921 39.3685 7.90201 39.312 7.95391C39.255 8.00537 39.2083 8.02761 39.2083 8.00319C39.2083 7.97877 39.1629 8.00188 39.1073 8.05465C39.0517 8.10742 38.8799 8.24872 38.7246 8.36866C38.5697 8.48859 38.3148 8.71493 38.1581 8.87106C38.0015 9.02763 37.8733 9.13317 37.8733 9.1057C37.8733 9.07822 37.7229 9.20295 37.5387 9.3835C37.3545 9.56406 37.1951 9.70405 37.1845 9.69445C37.1466 9.66087 36.8262 9.95089 36.6416 10.186C36.5788 10.2658 36.549 10.2823 36.5753 10.2222C36.6144 10.1336 36.6051 10.1345 36.5254 10.2278C36.4711 10.2906 36.3354 10.4005 36.2237 10.4721C36.112 10.5431 36.0386 10.6308 36.0613 10.6666C36.0835 10.7019 36.0519 10.7311 35.9905 10.7311C35.9296 10.7311 35.8357 10.7909 35.7823 10.8641C35.7289 10.9374 35.5936 11.0556 35.4814 11.1267C35.3693 11.1982 35.2777 11.302 35.2777 11.3574C35.2777 11.4128 35.2518 11.4498 35.2202 11.4398C35.1566 11.4197 35.0912 11.4668 34.607 11.8846C34.3347 12.1197 34.2657 12.2283 34.2475 12.4525C34.2185 12.8014 34.1883 13.0207 34.1687 13.0207C34.1407 13.0207 34.0966 13.3094 34.0579 13.7477C34.0205 14.1686 33.9702 14.4743 33.9386 14.4743C33.9302 14.4743 33.9164 14.5563 33.9075 14.6562C33.8897 14.8651 33.7909 15.4957 33.7424 15.7103C33.7112 15.8472 33.6939 15.9863 33.596 16.873C33.5737 17.0731 33.5292 17.2694 33.4972 17.3091C33.4652 17.3492 33.4162 17.6274 33.3886 17.9271C33.3388 18.4687 33.2987 18.7631 33.2752 18.7631C33.2569 18.7631 33.2235 18.9938 33.1697 19.4897C33.1434 19.7295 33.1003 19.9912 33.074 20.0714C33.0477 20.1513 33.0175 20.3475 33.0073 20.5076C32.9832 20.8822 32.9134 21.3401 32.8519 21.525C32.8252 21.6048 32.7972 21.7684 32.7892 21.8883C32.7812 22.0082 32.7545 22.1884 32.7296 22.2882C32.7047 22.3881 32.6695 22.6171 32.6513 22.7972C32.6335 22.9769 32.6139 23.1243 32.6076 23.1243C32.6014 23.1243 32.5845 23.2224 32.5707 23.3423C32.5565 23.4623 32.5089 23.7893 32.4648 24.0689C32.3478 24.812 32.3335 24.9045 32.2775 25.3049C32.249 25.5046 32.2098 25.7501 32.1902 25.85C32.1706 25.9499 32.1435 26.1296 32.1302 26.2495C32.0585 26.9041 32.0024 27.2635 31.9624 27.3271C31.9375 27.3664 31.9077 27.5487 31.8956 27.7327C31.8836 27.9163 31.8676 28.0668 31.8596 28.0668C31.8511 28.0668 31.8387 28.1832 31.8311 28.3258C31.8235 28.4685 31.7929 28.6237 31.763 28.6713C31.7332 28.7184 31.7279 28.7877 31.7515 28.8248C31.775 28.8623 31.7621 28.912 31.7234 28.9355C31.6847 28.9591 31.6531 29.035 31.6536 29.1039C31.6562 29.4637 31.5779 30.0734 31.4991 30.3084L31.4093 30.5745H22.0113H12.6129L12.313 30.847C12.1474 30.9971 11.8524 31.2505 11.6562 31.4105C10.8627 32.0581 10.209 32.6382 10.209 32.6949C10.209 32.728 10.1614 32.7551 10.1031 32.7551C10.0452 32.7551 9.93668 32.8305 9.86236 32.923C9.78805 33.0154 9.67146 33.1218 9.60382 33.1593C9.46943 33.2335 8.82328 33.7834 8.33066 34.2431C8.16067 34.4018 8.00003 34.5327 7.97377 34.534C7.94796 34.5349 7.81447 34.64 7.67741 34.7673C7.53991 34.8947 7.16076 35.2217 6.83458 35.4948C6.50839 35.7678 6.12436 36.1079 5.98151 36.2505C5.83867 36.3936 5.66378 36.5314 5.59214 36.5567C5.52094 36.582 5.46265 36.6548 5.46265 36.7185C5.46265 36.7822 5.42926 36.814 5.38832 36.7892C5.34738 36.7643 5.31401 36.7809 5.31401 36.8254C5.31401 36.8703 5.27841 36.8851 5.2348 36.8589C5.19163 36.8323 5.13779 36.8786 5.11554 36.961C5.09373 37.0438 5.01452 37.1306 4.93932 37.1537C4.86456 37.1773 4.60646 37.3827 4.36616 37.6104C3.87844 38.0726 3.53134 38.3518 3.44368 38.3518C3.41208 38.3518 3.38582 38.401 3.38582 38.4608C3.38582 38.521 3.33643 38.5698 3.27635 38.5698C3.21583 38.5698 3.11216 38.6518 3.04541 38.7517C2.97866 38.8516 2.87764 38.9335 2.82113 38.9335C2.76461 38.9335 2.71832 38.9663 2.71832 39.0059C2.71832 39.1067 38.7366 39.1067 38.8003 39.0064C38.8617 38.9091 38.9244 38.654 38.9525 38.3884C38.9885 38.0491 39.0553 37.6069 39.1002 37.4071C39.1229 37.3073 39.1536 37.0779 39.1683 36.8982C39.183 36.7181 39.2297 36.4259 39.2715 36.2479C39.3133 36.07 39.3285 35.8947 39.3053 35.858C39.2822 35.8214 39.2982 35.7708 39.3405 35.7451C39.3828 35.7194 39.4371 35.4533 39.4606 35.1537C39.4847 34.8537 39.5372 34.4777 39.5777 34.3177C39.6177 34.1581 39.6725 33.7655 39.6987 33.4454C39.7254 33.1258 39.7677 32.8475 39.7926 32.8279C39.818 32.8078 39.8433 32.7258 39.8487 32.646C39.8656 32.3974 39.9546 31.7825 40.0013 31.5919C40.0258 31.4921 40.0552 31.2797 40.0667 31.1196C40.0788 30.9596 40.0934 30.8287 40.0992 30.8287C40.1055 30.8287 40.1201 30.7472 40.1317 30.6473C40.1753 30.277 40.2545 29.7332 40.291 29.557C40.3119 29.4571 40.3449 29.277 40.3649 29.1571C40.3849 29.0372 40.4321 28.7755 40.4699 28.5757C40.5077 28.3756 40.5593 28.0031 40.5838 27.748C40.6087 27.4924 40.6572 27.2103 40.692 27.1213C40.7267 27.0319 40.7445 26.867 40.732 26.7541C40.7195 26.6416 40.7365 26.4658 40.7703 26.3633C40.8036 26.2608 40.849 26.0463 40.8704 25.8862C40.8922 25.7261 40.9287 25.5138 40.9514 25.4139C40.9741 25.314 41.007 25.0519 41.0239 24.8321C41.0408 24.6123 41.0604 24.4326 41.068 24.4326C41.1014 24.4326 41.2108 23.6563 41.2344 23.2512C41.2415 23.1217 41.2767 23.0152 41.3123 23.0152C41.3474 23.0152 41.3604 22.9542 41.3403 22.88C41.3207 22.8059 41.3332 22.6947 41.3684 22.6328C41.4035 22.5713 41.4493 22.2699 41.4698 21.9633C41.4907 21.6572 41.5383 21.3501 41.5753 21.2821C41.6127 21.2136 41.6358 21.0523 41.6269 20.9236C41.6175 20.7945 41.6318 20.689 41.6581 20.689C41.6843 20.689 41.711 20.5612 41.7172 20.4051C41.7235 20.2489 41.7591 20.0418 41.7969 19.9441C41.8347 19.8468 41.8543 19.648 41.8405 19.5023C41.8267 19.3562 41.8392 19.2228 41.8685 19.2049C41.8975 19.1874 41.9295 19.0479 41.9389 18.8952C41.9486 18.7426 41.9882 18.5193 42.0265 18.3994C42.0652 18.2794 42.116 17.9689 42.1395 17.709C42.1858 17.2044 42.2214 16.9458 42.2446 16.9458C42.2526 16.9458 42.2735 16.8311 42.2913 16.6915C42.3576 16.166 42.3941 15.9152 42.4706 15.4556C42.5138 15.1956 42.5681 14.8363 42.5912 14.6562C42.6415 14.2654 42.6793 14.0382 42.6936 14.0382C42.6998 14.0382 42.7158 13.9566 42.7301 13.8568C42.7977 13.3744 42.8556 12.9178 42.8863 12.6208C42.9049 12.4411 42.9503 12.1956 42.9868 12.0757C43.05 11.8681 43.1528 11.193 43.18 10.8039C43.1871 10.7041 43.2 10.6055 43.2084 10.5859C43.2347 10.5253 43.2783 10.2749 43.3157 9.9679C43.3353 9.80785 43.3575 9.67701 43.3655 9.67701C43.3735 9.67701 43.3913 9.56275 43.4051 9.42275C43.4189 9.28276 43.4688 8.93953 43.5159 8.65955C43.5631 8.37956 43.6063 8.04462 43.6116 7.91466C43.6169 7.78469 43.6414 7.67828 43.6663 7.67828C43.6913 7.67828 43.7144 7.53916 43.7184 7.36951C43.726 7.03762 43.7504 6.88498 43.8136 6.76985C43.8359 6.72973 43.863 6.56793 43.8742 6.41049C43.8853 6.25305 43.9543 5.77986 44.0277 5.35944C44.1007 4.93859 44.1541 4.50378 44.1465 4.39344C44.1385 4.28267 44.1536 4.18323 44.1803 4.17233C44.2235 4.15489 44.345 3.67908 44.3054 3.6817C44.2965 3.68213 44.2439 3.71048 44.1897 3.7445Z" fill="#FBAC18"/>
<path fill-rule="evenodd" clip-rule="evenodd" d="M5.7283 1.22723C5.70071 1.39731 5.63217 1.84695 5.5761 2.22681C5.44394 3.12565 5.26995 4.26217 5.12621 5.17061C5.06258 5.57053 4.96245 6.21642 4.90282 6.60631C4.84364 6.99576 4.74485 7.64209 4.68389 8.04157C4.62248 8.44149 4.52235 9.09567 4.46139 9.49559C4.39998 9.89507 4.29985 10.5492 4.23889 10.9492C4.17748 11.3491 4.07735 12.0033 4.01639 12.4028C3.95498 12.8027 3.85485 13.4568 3.79389 13.8568C3.73248 14.2563 3.63235 14.9104 3.57139 15.3103C3.50998 15.7103 3.41162 16.3562 3.35199 16.746C3.29281 17.1355 3.19491 17.7653 3.13484 18.1451C3.07476 18.525 2.97153 19.1791 2.90478 19.5987C2.83847 20.0187 2.73612 20.689 2.67738 21.0889C2.61864 21.4888 2.52163 22.1264 2.46244 22.5063C2.33962 23.2948 2.17542 24.3585 2.01389 25.4139C1.95248 25.8134 1.85235 26.4676 1.79139 26.8675C1.72998 27.2674 1.62985 27.9216 1.56889 28.3211C1.50748 28.721 1.40735 29.3752 1.34639 29.7751C1.28498 30.1746 1.18485 30.8287 1.12388 31.2287C1.06247 31.6286 0.96101 32.2906 0.89871 32.7006C0.835965 33.1105 0.735843 33.7564 0.675768 34.1362C0.616139 34.5157 0.516902 35.1537 0.455937 35.5536C0.394527 35.9531 0.326 36.3949 0.30375 36.5349C-0.0856254 38.9837 -0.0811801 38.8856 0.20629 38.6252C0.30597 38.5349 0.601004 38.2811 0.862219 38.0613C1.12343 37.8411 1.39088 37.6125 1.45719 37.5524C1.52349 37.4922 1.79094 37.2632 2.05127 37.0434C2.31204 36.8236 2.644 36.5432 2.78863 36.4198C2.9337 36.2968 3.16599 36.1005 3.30527 35.9836C3.44411 35.8672 3.64659 35.6897 3.75428 35.5898C3.86241 35.49 4.11517 35.2771 4.31631 35.1175C4.51745 34.9575 4.73461 34.7778 4.79913 34.7176C4.92106 34.6042 5.65487 33.9749 6.1644 33.5471C6.32593 33.4114 6.5115 33.2509 6.57647 33.1912C6.64144 33.131 6.90844 32.902 7.16877 32.6822C7.77486 32.1715 8.21986 31.7934 8.32443 31.701C8.47751 31.5658 9.20597 30.9574 9.5415 30.6844C9.98027 30.3272 10.0007 30.2858 10.1093 29.5204C10.16 29.1606 10.2513 28.5557 10.3114 28.1758C10.3719 27.796 10.4756 27.1418 10.5419 26.7222C10.6825 25.8352 10.8329 24.8212 10.9464 23.9965C10.9904 23.6764 11.0434 23.3415 11.0638 23.2512L11.1021 23.0876H14.7814H18.4606L18.733 22.8517C18.8829 22.7217 19.2185 22.4352 19.4792 22.2154C19.74 21.9956 20.0075 21.7666 20.0738 21.7069C20.1396 21.6467 20.4088 21.4177 20.6714 21.1979C21.4986 20.5049 21.5761 20.4391 21.7768 20.2529C21.8849 20.153 22.1368 19.9406 22.3366 19.7814C22.5368 19.6218 22.7891 19.4094 22.8973 19.3087C23.0059 19.2084 23.2074 19.0317 23.3454 18.9166C23.9315 18.426 24.485 17.9558 24.5972 17.8542C24.6635 17.7945 24.9309 17.5655 25.1913 17.3457C25.452 17.1259 25.784 16.845 25.9286 16.7221C26.0737 16.5986 26.3051 16.4024 26.4435 16.2859C26.5819 16.1691 26.7323 16.0408 26.7781 16.0007C26.8235 15.961 26.9957 15.8136 27.1608 15.6736C28.2124 14.7805 28.3801 14.6296 28.3801 14.5733C28.3801 14.5389 24.8041 14.5109 20.4071 14.5109C16.022 14.5109 12.4353 14.4861 12.4367 14.4564C12.4393 14.3888 12.6191 13.1559 12.7677 12.1847C12.8292 11.7852 12.9275 11.1389 12.9862 10.7494C13.0454 10.3595 13.1166 9.91775 13.1447 9.76816L13.1954 9.49559H23.826H34.4566L34.6662 9.29497C34.781 9.1842 35.0391 8.96352 35.2389 8.80434C35.4392 8.64472 35.691 8.43233 35.7992 8.33246C35.9999 8.14668 36.0768 8.08039 36.9045 7.38739C37.1671 7.16759 37.4359 6.93863 37.5022 6.87888C37.5685 6.8187 37.8359 6.58973 38.0963 6.36993C38.357 6.15013 38.689 5.86796 38.8336 5.74279C38.9787 5.61763 39.2101 5.42137 39.348 5.30668C39.486 5.19198 39.688 5.01622 39.797 4.91635C39.9061 4.81648 40.1593 4.60409 40.3591 4.44447C40.5593 4.28485 40.8116 4.07246 40.9198 3.97216C41.0284 3.87185 41.2299 3.69566 41.3679 3.58096C41.5058 3.46626 41.7372 3.27 41.8819 3.14484C42.0269 3.01967 42.358 2.7375 42.6175 2.5177C42.8773 2.29746 43.1835 2.03536 43.2979 1.93461C43.4122 1.83387 43.6886 1.60491 43.9124 1.42566C44.1358 1.24685 44.32 1.05932 44.3223 1.00917C44.3249 0.936774 40.4236 0.918457 25.0524 0.918457H5.77858L5.7283 1.22723Z" fill="#14181D"/>
<path fill-rule="evenodd" clip-rule="evenodd" d="M54.7217 15.0827C54.7813 15.1708 54.8939 15.2768 54.9718 15.3191C55.0501 15.3614 55.1396 15.4346 55.1707 15.4822C55.3047 15.6863 55.6882 16.0112 55.7505 15.9737C55.7879 15.951 55.8186 15.9671 55.8186 16.0094C55.8186 16.0517 55.9481 16.217 56.107 16.3775L56.3953 16.6689L62.7633 16.6501C68.7761 16.6327 69.1308 16.6244 69.121 16.5044C69.1152 16.4342 69.1424 16.3771 69.1811 16.3771C69.2198 16.3771 69.2309 16.3444 69.2056 16.3043C69.1802 16.2646 69.2007 16.2319 69.2505 16.2319C69.3008 16.2319 69.3195 16.2101 69.2928 16.1839C69.2661 16.1577 69.2812 16.0923 69.3266 16.0387C69.372 15.985 69.3831 15.941 69.3515 15.941C69.3199 15.941 69.3524 15.8777 69.4236 15.8001C69.4953 15.7229 69.5366 15.6326 69.5162 15.5995C69.372 15.371 69.6813 15.292 69.8962 15.5022C70.0199 15.6235 70.145 15.7229 70.1739 15.7229C70.2028 15.7229 70.3942 15.9035 70.5984 16.1241C70.8027 16.3448 70.9869 16.5092 71.0074 16.4887C71.2459 16.2554 71.2036 16.9083 70.9624 17.1922C70.9041 17.2607 70.8765 17.3684 70.9015 17.4321C70.9313 17.5079 70.9175 17.5297 70.861 17.4957C70.8036 17.4608 70.7907 17.4835 70.8223 17.5646C70.8485 17.6309 70.8374 17.6854 70.7978 17.6854C70.7582 17.6854 70.7332 17.7099 70.7417 17.74C70.7506 17.7701 70.7159 17.8682 70.6652 17.958C70.614 18.0479 70.5909 18.1216 70.614 18.1216C70.6367 18.1216 70.6082 18.1953 70.5504 18.2851C70.4525 18.4386 70.2504 18.9864 70.2629 19.0666C70.266 19.0863 70.234 19.1438 70.1912 19.1935C70.149 19.2437 70.1405 19.2847 70.1721 19.2847C70.2037 19.2847 70.1694 19.3501 70.0956 19.4299C70.0217 19.5097 69.9874 19.5751 70.019 19.5751C70.0506 19.5751 70.0435 19.6161 70.0035 19.6663C69.8909 19.8054 69.6083 20.5926 69.6701 20.5939C69.7 20.5948 69.6808 20.6223 69.627 20.6558C69.5736 20.689 69.5224 20.7623 69.514 20.8181C69.5051 20.8743 69.473 20.9589 69.4428 21.0069C69.3738 21.1151 69.1673 21.6724 69.1281 21.8556C69.1121 21.9306 69.0445 22.0737 68.9777 22.1735C68.911 22.2734 68.8967 22.331 68.9457 22.3013C68.9946 22.2717 68.9488 22.3981 68.8433 22.583C68.7383 22.768 68.6364 23.0035 68.6173 23.1068C68.5981 23.2102 68.5519 23.3327 68.5145 23.3794C68.4335 23.4801 68.1696 24.2233 68.1674 24.3576C68.1665 24.4091 68.1215 24.478 68.0677 24.5111C68.0134 24.5438 67.9747 24.5831 67.9814 24.5988C68.0099 24.6633 67.8826 25.0746 67.7882 25.2229C67.5493 25.5992 67.5991 25.6084 69.9002 25.6084C72.1292 25.6084 72.3762 25.5683 72.1702 25.2421C72.1461 25.2037 72.1537 25.1723 72.1866 25.1723C72.2538 25.1723 72.4216 24.8321 72.4656 24.6066C72.4812 24.5273 72.5969 24.2102 72.7228 23.9023C72.8488 23.5944 72.9342 23.3144 72.9129 23.2804C72.8911 23.2464 72.9329 23.1849 73.005 23.1435C73.0775 23.1025 73.1073 23.0676 73.0717 23.0663C73.0361 23.0654 73.0486 23.0152 73.0993 22.9551C73.15 22.8953 73.1741 22.846 73.1527 22.846C73.1309 22.846 73.2288 22.5599 73.3703 22.2102C73.5114 21.8604 73.632 21.5167 73.6387 21.447C73.6449 21.3772 73.6765 21.3196 73.7085 21.3196C73.7406 21.3196 73.7615 21.2952 73.7548 21.2651C73.7481 21.2354 73.7842 21.1125 73.8345 20.9925C73.8852 20.8726 73.931 20.7173 73.9364 20.6476C73.9421 20.5773 73.9751 20.5202 74.0093 20.5202C74.0441 20.5202 74.0529 20.4897 74.0294 20.4526C74.0062 20.4155 74.0214 20.3641 74.0636 20.3383C74.1055 20.313 74.121 20.2616 74.0975 20.2245C74.0739 20.187 74.089 20.1569 74.1308 20.1569C74.1727 20.1569 74.1878 20.1076 74.1646 20.0479C74.1411 19.9877 74.1535 19.9389 74.1918 19.9389C74.2305 19.9389 74.3217 19.7505 74.3947 19.5206C74.4677 19.2908 74.5754 19.013 74.6337 18.9031C74.6915 18.7932 74.72 18.7029 74.6964 18.7029C74.6728 18.7029 74.7022 18.6296 74.7618 18.5394C74.8219 18.4495 74.8864 18.2943 74.906 18.1944C74.9251 18.0945 74.9941 17.8904 75.0591 17.7413C75.1236 17.5921 75.1695 17.4447 75.1601 17.4142C75.1508 17.3837 75.2042 17.2685 75.2789 17.159C75.3537 17.0496 75.3964 16.9131 75.3742 16.8559C75.3519 16.7993 75.3742 16.7373 75.424 16.7186C75.4738 16.6998 75.5579 16.5171 75.6118 16.313C75.6652 16.1084 75.7391 15.9362 75.776 15.9301C75.9455 15.9026 75.9918 15.9083 75.9949 15.9562C75.9963 15.9846 76.1493 16.1564 76.3345 16.3378L76.6709 16.668H79.1731H81.6754L81.8138 16.3954C81.8898 16.2454 81.9588 16.098 81.9668 16.0683C81.9744 16.0382 81.9873 16.0055 81.9958 15.9955C82.0038 15.9855 82.0256 15.8969 82.0438 15.7988C82.0621 15.7007 82.1043 15.6025 82.1373 15.5807C82.1978 15.541 82.37 15.1001 82.37 14.985C82.37 14.951 76.1249 14.9235 68.4918 14.9235H54.6136L54.7217 15.0827ZM82.8426 14.9789C82.7963 15.0085 82.7055 15.1795 82.641 15.3596C82.3553 16.1547 82.2832 16.3344 82.1457 16.5991C82.0652 16.7535 81.9993 16.9318 81.9993 16.9951C81.9993 17.0579 81.9361 17.231 81.8591 17.3793C81.7817 17.5276 81.719 17.6654 81.7194 17.6854C81.7199 17.7055 81.666 17.8486 81.6001 18.0034C81.5343 18.1582 81.48 18.3091 81.48 18.3392C81.48 18.3693 81.4155 18.5372 81.3367 18.7121C81.2575 18.8869 81.1992 19.0496 81.2068 19.0736C81.2143 19.0972 81.1761 19.1696 81.1213 19.2337C81.067 19.2982 81.0439 19.385 81.0702 19.4269C81.0964 19.4683 81.0808 19.5027 81.035 19.5027C80.9896 19.5027 80.9727 19.5354 80.9981 19.5751C81.0234 19.6153 81.0087 19.648 80.9656 19.648C80.922 19.648 80.8868 19.7051 80.8864 19.7753C80.8859 19.8451 80.8361 19.9956 80.7756 20.1098C80.7146 20.2241 80.6835 20.3466 80.7061 20.3824C80.7288 20.4182 80.7159 20.4474 80.6781 20.4474C80.614 20.4474 80.4832 20.849 80.5059 20.9746C80.5117 21.0043 80.4828 21.0292 80.4418 21.0292C80.4009 21.0292 80.3675 21.0771 80.3675 21.1356C80.3675 21.2433 80.2109 21.6323 80.0253 21.9838C79.9697 22.0889 79.9145 22.2363 79.9029 22.3109C79.8909 22.3855 79.8611 22.4792 79.8366 22.5189C79.8117 22.5591 79.7685 22.6982 79.74 22.8281C79.7116 22.9581 79.6604 23.0641 79.6261 23.0641C79.5919 23.0641 79.542 23.1705 79.5158 23.3005C79.4895 23.4304 79.4232 23.635 79.3685 23.7549C79.3137 23.8748 79.2132 24.1199 79.1446 24.3C79.0766 24.4797 78.9742 24.7183 78.9168 24.8304C78.8447 24.9717 78.8403 25.017 78.903 24.9791C78.9524 24.949 78.9181 25.0175 78.8274 25.1308C78.4393 25.6145 78.4131 25.6084 80.8779 25.6084H83.0936L83.2569 25.154C83.3468 24.9041 83.4509 24.6428 83.4887 24.5735C83.5261 24.5041 83.5568 24.3855 83.5568 24.3096C83.5568 24.2342 83.6049 24.133 83.6636 24.0855C83.7224 24.0375 83.7522 23.952 83.7299 23.8949C83.7077 23.8378 83.7299 23.7911 83.7793 23.7911C83.8287 23.7911 83.8501 23.7422 83.8265 23.6821C83.8033 23.6219 83.8185 23.573 83.8603 23.573C83.9021 23.573 83.9159 23.5403 83.8906 23.5002C83.8652 23.4605 83.8799 23.4278 83.923 23.4278C83.9667 23.4278 84.0018 23.3532 84.0018 23.2621C84.0018 23.1709 84.0485 23.0309 84.1059 22.9511C84.2114 22.8033 84.4099 22.201 84.3859 22.1011C84.3787 22.071 84.4059 22.0466 84.4468 22.0466C84.4878 22.0466 84.5211 21.9986 84.5211 21.9402C84.5211 21.8351 84.672 21.4574 84.8567 21.1015C84.9083 21.0017 85.0035 20.7439 85.0685 20.5289C85.133 20.3139 85.2242 20.0932 85.2705 20.0383C85.3168 19.9838 85.3364 19.9389 85.3141 19.9389C85.2794 19.9389 85.4352 19.5132 85.6737 18.9576C85.7084 18.8774 85.7413 18.7792 85.748 18.7395C85.7654 18.6327 85.9914 18.1163 86.1222 17.8852C86.1845 17.7753 86.2148 17.6523 86.1894 17.6126C86.1645 17.5729 86.1765 17.5402 86.2166 17.5402C86.2566 17.5402 86.3114 17.4416 86.3381 17.3213C86.3652 17.2009 86.4369 17.0047 86.4978 16.8852L86.6086 16.668H89.0107C91.5481 16.668 91.7413 16.6401 91.529 16.303C91.5041 16.2637 91.5214 16.2319 91.5668 16.2319C91.6122 16.2319 91.6313 16.2026 91.6091 16.1673C91.5868 16.132 91.6198 16.0613 91.6821 16.0103C91.7448 15.9593 91.7791 15.8738 91.7577 15.8202C91.7368 15.7665 91.7448 15.7229 91.7755 15.7229C91.8543 15.7229 92.0701 15.1246 92.0314 15.0142C91.9958 14.9126 83.001 14.8781 82.8426 14.9789ZM56.2699 17.2057C56.2222 17.2615 56.1697 17.3793 56.1524 17.4674C56.135 17.5555 56.0883 17.6662 56.0483 17.7134C56.0082 17.7605 55.9588 17.8909 55.9379 18.0029C55.917 18.115 55.8622 18.2515 55.816 18.3065C55.7697 18.361 55.7532 18.4399 55.7795 18.4818C55.8057 18.5237 55.7959 18.5577 55.7572 18.5577C55.7189 18.5577 55.6629 18.6314 55.6331 18.7212C55.6033 18.8111 55.5717 18.9009 55.5623 18.921C55.5534 18.941 55.5209 19.023 55.4898 19.1028C55.4586 19.1826 55.3309 19.5062 55.2054 19.8211C55.0804 20.1364 54.978 20.4391 54.978 20.4936C54.978 20.5481 54.9562 20.593 54.9295 20.593C54.8824 20.593 54.6016 21.3597 54.5971 21.5015C54.5958 21.5416 54.5744 21.5904 54.5495 21.6105C54.4547 21.6868 54.2113 22.31 54.2291 22.4295C54.2393 22.4989 54.2206 22.5556 54.1873 22.5556C54.1067 22.5556 53.7356 23.5041 53.7854 23.5835C53.8072 23.6175 53.7921 23.6459 53.7521 23.6459C53.712 23.6459 53.6568 23.7475 53.6288 23.8718C53.6008 23.9961 53.4975 24.2765 53.3992 24.4946C53.3008 24.7126 53.2425 24.9267 53.2701 24.9704C53.2977 25.0144 53.2857 25.0284 53.2421 25.0022C53.1535 24.9485 53.0516 25.15 53.1157 25.2512C53.1384 25.2878 53.1219 25.3175 53.0788 25.3175C53.0356 25.3175 53 25.3829 53 25.4627C53 25.6049 53.0494 25.6084 55.1565 25.6084C57.4042 25.6084 57.5261 25.5918 57.482 25.2979C57.4718 25.2285 57.4936 25.1723 57.531 25.1723C57.5679 25.1723 57.5986 25.1069 57.5986 25.0266C57.5986 24.9468 57.632 24.8814 57.6725 24.8814C57.7134 24.8814 57.7415 24.857 57.7348 24.8269C57.7281 24.7968 57.7651 24.6742 57.8162 24.5543C57.8679 24.4344 57.9168 24.2961 57.9253 24.2473C57.9333 24.1989 57.9613 24.1382 57.9867 24.1134C58.0125 24.0881 58.0152 24.0218 57.9933 23.9655C57.9715 23.9097 57.9925 23.8639 58.0401 23.8639C58.0877 23.8639 58.1059 23.8312 58.0806 23.7911C58.0552 23.751 58.0699 23.7183 58.1131 23.7183C58.1567 23.7183 58.1918 23.6877 58.1918 23.6507C58.1918 23.6132 58.2305 23.4906 58.2773 23.3781C58.3244 23.2651 58.3707 23.1365 58.3805 23.0916C58.3903 23.0466 58.4464 22.8997 58.5055 22.7645C58.6212 22.4984 58.7859 22.0545 58.8117 21.9376C58.8202 21.8975 58.8842 21.7544 58.9537 21.6197C59.0226 21.4849 59.0613 21.3462 59.0391 21.3109C59.0168 21.276 59.0364 21.2472 59.0818 21.2472C59.1272 21.2472 59.1437 21.2136 59.1183 21.1731C59.0867 21.1234 60.3283 21.1055 62.9333 21.1186L66.7954 21.1382L66.9165 20.7745C66.9828 20.5747 67.066 20.3754 67.1012 20.3318C67.1359 20.2882 67.1408 20.2293 67.1118 20.2005C67.0829 20.1722 67.102 20.1229 67.1546 20.0911C67.2071 20.0592 67.2591 19.9873 67.2707 19.9314C67.2823 19.8756 67.3299 19.7378 67.3771 19.6249C67.4242 19.5123 67.4625 19.4064 67.4625 19.3889C67.4625 19.3715 65.7475 19.3571 63.6511 19.3571H59.8396L60.0541 18.8407C60.1721 18.5568 60.2686 18.279 60.2686 18.2232C60.2686 18.1674 60.3038 18.1216 60.3469 18.1216C60.3901 18.1216 60.4066 18.091 60.383 18.054C60.3594 18.0169 60.3741 17.9659 60.4155 17.9406C60.4569 17.9153 60.4911 17.815 60.4911 17.7173C60.4911 17.62 60.5232 17.5402 60.5628 17.5402C60.6024 17.5402 60.6166 17.4944 60.5948 17.4386C60.573 17.3823 60.5913 17.3147 60.6353 17.2881C60.8792 17.1403 60.4564 17.1041 58.4931 17.1041C56.7531 17.1041 56.3397 17.1228 56.2699 17.2057Z" fill="#14181D"/>
<path fill-rule="evenodd" clip-rule="evenodd" d="M98.5386 14.9906C98.5386 15.0277 98.6303 15.1284 98.7424 15.2148C98.8546 15.3007 99.2564 15.6631 99.6351 16.0194L100.324 16.6679H105.476C108.309 16.6679 110.627 16.6758 110.627 16.6858C110.627 16.6958 110.445 17.1743 110.223 17.7486L109.82 18.7936L110.168 18.7521C110.36 18.7295 110.85 18.6571 111.258 18.5912C112.701 18.3579 113.193 18.2811 113.817 18.1922C114.555 18.0862 114.625 18.033 114.856 17.3945C114.951 17.1346 115.05 16.8895 115.077 16.8494C115.104 16.8097 115.237 16.4826 115.373 16.1228C115.508 15.763 115.647 15.3918 115.682 15.2985C115.745 15.1328 115.759 15.1402 116.21 15.5584C116.464 15.7953 116.842 16.1415 117.051 16.3282L117.429 16.6679H122.557C125.378 16.6679 127.686 16.6823 127.686 16.6998C127.686 16.7813 127.286 17.8023 127.23 17.8633C127.195 17.9013 127.167 17.9833 127.166 18.0452C127.166 18.1071 127.116 18.2515 127.055 18.3662C126.994 18.4804 126.944 18.6065 126.944 18.6457C126.944 18.685 126.895 18.8206 126.835 18.9462C126.775 19.0723 126.508 19.7478 126.241 20.4473C125.975 21.1473 125.724 21.7849 125.684 21.8647C125.603 22.0291 125.09 23.351 125.09 23.3977C125.09 23.4142 126.108 23.4278 127.352 23.4278C128.889 23.4278 129.614 23.4029 129.614 23.351C129.614 23.3087 129.677 23.1369 129.753 22.9694C129.829 22.8015 130.084 22.1573 130.319 21.5376C130.554 20.9179 130.804 20.2803 130.875 20.1202C130.946 19.9606 131.196 19.3226 131.431 18.7029C131.666 18.0831 131.917 17.4455 131.988 17.2855C132.059 17.1259 132.276 16.5764 132.471 16.0644L132.826 15.1341L133.087 15.374C133.231 15.5057 133.601 15.8511 133.91 16.1407L134.472 16.6675H139.608C142.851 16.6675 144.744 16.6937 144.744 16.7377C144.744 16.8162 144.499 17.4538 144.333 17.8053C144.273 17.9314 144.225 18.0849 144.225 18.1464C144.225 18.2079 144.194 18.2768 144.156 18.2999C144.119 18.3226 144.066 18.4412 144.039 18.5633C144.011 18.6854 143.942 18.8734 143.885 18.9807C143.828 19.0875 143.781 19.2306 143.78 19.2982C143.78 19.3662 143.755 19.4364 143.724 19.4552C143.694 19.4739 143.586 19.7212 143.486 20.0047L143.303 20.5202H140.396H137.489L137.708 19.9567C137.828 19.6471 137.971 19.2955 138.026 19.1756C138.08 19.0557 138.233 18.6632 138.366 18.3034C138.498 17.9436 138.652 17.5458 138.709 17.4198C138.765 17.2942 138.811 17.1712 138.811 17.1472C138.811 17.1237 137.801 17.1041 136.566 17.1041H134.321L134.185 17.4857C134.111 17.6954 134.006 17.9654 133.954 18.0853C133.902 18.2053 133.751 18.5978 133.618 18.9576C133.486 19.3174 133.319 19.7426 133.249 19.9022C133.177 20.0622 132.927 20.6998 132.692 21.3196C132.457 21.9393 132.202 22.5834 132.126 22.7513C132.05 22.9188 131.987 23.105 131.987 23.1648C131.987 23.2245 131.954 23.2939 131.914 23.3187C131.873 23.3432 131.839 23.4186 131.839 23.4866C131.838 23.5542 131.789 23.703 131.728 23.8177C131.667 23.9319 131.617 24.058 131.617 24.0972C131.617 24.1365 131.568 24.2721 131.509 24.3977C131.315 24.8094 131.097 25.3933 131.097 25.5019C131.097 25.5927 131.418 25.6084 133.311 25.6084H135.525L135.847 24.754C136.025 24.2843 136.213 23.8185 136.266 23.7182C136.319 23.6183 136.363 23.4814 136.363 23.4138C136.363 23.3462 136.394 23.2721 136.432 23.2494C136.47 23.2267 136.524 23.1029 136.553 22.9751C136.581 22.8469 136.631 22.6916 136.664 22.6305C136.697 22.569 136.741 22.4618 136.764 22.392C136.799 22.2786 136.919 22.2646 137.871 22.2646C139.095 22.2646 138.923 22.1844 139.812 23.1696C140.098 23.4858 140.431 23.8473 140.554 23.9729C140.676 24.0985 141.072 24.5181 141.433 24.9049L142.091 25.6084H144.423C146.703 25.6084 146.753 25.6053 146.656 25.4697C146.602 25.3933 146.107 24.8656 145.558 24.2969C145.009 23.7287 144.35 23.047 144.095 22.7823L143.63 22.3008L145.37 22.2816C147.097 22.262 147.109 22.2607 147.158 22.0998C147.186 22.0104 147.254 21.8394 147.309 21.7195C147.365 21.5996 147.628 20.9292 147.895 20.2293C148.161 19.5297 148.412 18.8921 148.452 18.8119C148.493 18.7321 148.743 18.0945 149.009 17.3945C149.275 16.695 149.524 16.0574 149.564 15.9771C149.603 15.8973 149.695 15.6779 149.768 15.4895L149.902 15.1472L150.7 15.9156C151.567 16.7495 151.54 16.6849 151.272 17.2855C151.201 17.4455 151.082 17.7399 151.009 17.9397C150.936 18.1398 150.848 18.3343 150.814 18.3723C150.78 18.4102 150.752 18.4857 150.752 18.5398C150.752 18.5938 150.689 18.7757 150.613 18.9432C150.537 19.1111 150.333 19.6244 150.159 20.084C149.985 20.5437 149.784 21.0509 149.714 21.2105C149.643 21.3706 149.525 21.665 149.451 21.8647C149.377 22.0649 149.295 22.2611 149.268 22.3008C149.241 22.341 149.091 22.7169 148.935 23.1369C148.779 23.5564 148.624 23.931 148.589 23.969C148.555 24.0069 148.527 24.0841 148.527 24.1399C148.527 24.1958 148.478 24.3445 148.419 24.4705C148.252 24.8242 148.007 25.4601 148.007 25.5394C148.007 25.5844 148.822 25.6031 150.24 25.5909L152.474 25.5717L152.771 24.7723C152.934 24.3327 153.11 23.8748 153.161 23.7549C153.213 23.6349 153.363 23.2424 153.495 22.8826C153.626 22.5228 153.764 22.163 153.8 22.0828C153.836 22.003 154.233 20.9724 154.682 19.7932C155.132 18.6139 155.529 17.5838 155.565 17.5035C155.602 17.4237 155.739 17.0639 155.871 16.7041C156.002 16.3443 156.153 15.9518 156.205 15.8319C156.257 15.712 156.333 15.5157 156.373 15.3958C156.414 15.2758 156.471 15.1206 156.5 15.0504C156.55 14.9296 155.142 14.9235 127.545 14.9235C109.77 14.9235 98.5386 14.9496 98.5386 14.9906ZM161.428 15.196C161.378 15.3456 161.315 15.5013 161.286 15.541C161.257 15.5811 161.156 15.8262 161.061 16.0861C160.966 16.3461 160.866 16.5916 160.839 16.6313C160.812 16.6714 160.679 16.9985 160.545 17.3583C160.41 17.7181 160.242 18.1433 160.172 18.3034C160.101 18.463 159.95 18.8394 159.837 19.139C159.724 19.439 159.574 19.815 159.504 19.975C159.433 20.1351 159.283 20.511 159.17 20.8111C159.056 21.1107 158.902 21.4931 158.826 21.661C158.75 21.8285 158.687 22.0003 158.687 22.0426C158.687 22.085 158.66 22.1194 158.626 22.1194C158.564 22.1194 158.478 21.8154 157.914 19.5934C157.856 19.3636 157.652 18.5869 157.462 17.8673C157.272 17.1477 157.068 16.3627 157.008 16.1228C156.948 15.8829 156.88 15.613 156.858 15.5231C156.794 15.2728 156.727 15.3243 156.575 15.7412C156.498 15.951 156.391 16.2043 156.338 16.3042C156.284 16.4045 156.241 16.5275 156.24 16.5781C156.24 16.6282 156.209 16.7264 156.172 16.7962C156.135 16.8655 156.029 17.1346 155.937 17.3945C155.846 17.6544 155.748 17.9 155.721 17.9397C155.694 17.9798 155.596 18.2249 155.504 18.4848C155.413 18.7447 155.312 19.0077 155.279 19.0688C155.097 19.4142 155.145 19.9205 155.468 21.0653C155.491 21.1451 155.553 21.4068 155.608 21.6467C155.661 21.8865 155.762 22.3117 155.83 22.5917C155.898 22.8717 156.001 23.3048 156.06 23.5547C156.223 24.252 156.372 24.8822 156.465 25.2629L156.549 25.6084H159.124C161.771 25.6084 161.873 25.5974 161.879 25.3209C161.881 25.259 161.946 25.0776 162.025 24.9175C162.104 24.7579 162.17 24.5857 162.171 24.5351C162.172 24.4845 162.204 24.3863 162.241 24.317C162.278 24.2477 162.366 24.0274 162.436 23.8272C162.506 23.6275 162.605 23.3658 162.656 23.2459C162.708 23.126 162.923 22.5533 163.137 21.9737C163.349 21.3941 163.553 20.8547 163.588 20.7744C163.737 20.4421 164.102 19.4639 164.102 19.395C164.103 19.3544 164.149 19.2332 164.207 19.1255C164.264 19.0182 164.436 18.5781 164.589 18.1481C164.743 17.7177 164.912 17.282 164.966 17.1799C165.021 17.0783 165.065 16.9614 165.066 16.9204C165.066 16.8507 165.435 15.8607 165.58 15.541C165.616 15.4612 165.667 15.333 165.692 15.2558C165.734 15.1311 165.778 15.152 166.088 15.4442C166.281 15.6247 166.653 15.9741 166.917 16.22L167.396 16.6679H178.854C187.766 16.6679 190.293 16.6871 190.223 16.7552C190.174 16.8031 190.134 16.893 190.134 16.9549C190.133 17.0168 190.084 17.1612 190.023 17.2759C189.962 17.3901 189.912 17.521 189.911 17.5663C189.911 17.6117 189.868 17.7307 189.815 17.8306C189.762 17.9309 189.504 18.5768 189.242 19.2663L188.764 20.5202H185.889C184.096 20.5202 183.014 20.494 183.014 20.4504C183.014 20.3854 183.231 19.801 183.38 19.4661C183.415 19.3863 183.552 19.0265 183.684 18.6667C183.816 18.3069 183.982 17.8816 184.053 17.7216C184.125 17.562 184.206 17.357 184.234 17.2663L184.286 17.1019L182.041 17.1211L179.795 17.1403L179.586 17.6854C179.472 17.9854 179.345 18.296 179.305 18.3758C179.266 18.456 179.016 19.0936 178.75 19.7932C178.484 20.4931 178.234 21.1307 178.194 21.2105C178.154 21.2908 177.903 21.9284 177.636 22.6279C177.369 23.3279 177.106 23.9982 177.051 24.1181C176.997 24.2381 176.893 24.4997 176.822 24.6995C176.75 24.8997 176.646 25.1661 176.59 25.2922C176.534 25.4182 176.487 25.5408 176.487 25.5647C176.487 25.6594 181.012 25.6123 181.014 25.5172C181.016 25.4675 181.081 25.2957 181.16 25.1356C181.239 24.976 181.305 24.7898 181.306 24.7222C181.307 24.6546 181.339 24.5804 181.377 24.5577C181.415 24.5351 181.468 24.4164 181.495 24.2943C181.523 24.1718 181.592 23.9842 181.649 23.877C181.706 23.7697 181.753 23.6301 181.753 23.5669C181.753 23.5036 181.779 23.4273 181.809 23.3977C181.839 23.368 181.952 23.109 182.059 22.8224L182.254 22.3008L183.352 22.2808L184.45 22.2607L184.667 22.4988C184.787 22.6301 185.143 23.0152 185.458 23.3549C185.773 23.6947 186.161 24.1168 186.321 24.293C186.481 24.4688 186.757 24.7632 186.935 24.9472C187.114 25.1308 187.309 25.3545 187.37 25.4448L187.481 25.6084H189.809C191.213 25.6084 192.137 25.5809 192.137 25.5399C192.137 25.4736 191.604 24.894 190.701 23.9777C190.462 23.7352 190 23.2503 189.673 22.9005L189.08 22.2646H190.821H192.562L192.916 21.3379C193.11 20.8281 193.326 20.2803 193.397 20.1202C193.469 19.9606 193.719 19.3226 193.954 18.7029C194.189 18.0831 194.439 17.4455 194.51 17.2855C194.657 16.9571 195.4 15.0124 195.4 14.9584C195.4 14.9392 187.777 14.9235 178.459 14.9235H161.518L161.428 15.196ZM196.864 14.9662C196.84 14.9898 197.026 15.1939 197.277 15.4202C197.528 15.6465 197.937 16.0203 198.187 16.2501L198.64 16.6688L204.82 16.6501L211 16.6313L211.194 16.0861C211.301 15.7865 211.408 15.5083 211.432 15.4686C211.457 15.4285 211.5 15.2894 211.529 15.1594L211.58 14.9235H204.244C200.21 14.9235 196.888 14.9427 196.864 14.9662ZM100.102 17.3766C100.048 17.5262 99.9452 17.78 99.874 17.9397C99.8028 18.0997 99.5523 18.7373 99.3174 19.357C99.0824 19.9768 98.8323 20.6148 98.7611 20.7744C98.6903 20.9345 98.5724 21.2289 98.499 21.4286C98.4256 21.6288 98.3379 21.8233 98.3036 21.8612C98.2698 21.8992 98.2418 21.9812 98.2413 22.0431C98.2409 22.105 98.1942 22.2433 98.1372 22.3506C98.0798 22.4578 98.0108 22.6454 97.9837 22.7679C97.9561 22.89 97.9027 23.0087 97.8653 23.0313C97.8275 23.054 97.7968 23.1281 97.7963 23.1957C97.7959 23.2633 97.7527 23.4003 97.7002 23.5002C97.6473 23.6005 97.5258 23.8944 97.4297 24.1543C97.3331 24.4143 97.2263 24.658 97.192 24.696C97.1573 24.7339 97.1293 24.8159 97.1288 24.8779C97.1284 24.9398 97.0786 25.0841 97.0176 25.1984C96.7835 25.6384 96.2437 25.6084 104.278 25.6084H111.649L111.769 25.3611C111.835 25.225 111.889 25.0815 111.889 25.0423C111.889 25.003 111.938 24.877 111.999 24.7623C112.06 24.648 112.11 24.5037 112.111 24.4417C112.111 24.3798 112.139 24.2978 112.173 24.2599C112.207 24.2219 112.294 24.0274 112.368 23.8272C112.441 23.6275 112.542 23.3658 112.593 23.2459C112.644 23.126 112.787 22.7575 112.911 22.4264L113.135 21.8255L112.753 21.8691C112.543 21.8931 112.32 21.9288 112.259 21.9489C112.198 21.9685 111.781 22.0296 111.332 22.085C110.238 22.2193 109.505 22.3192 108.907 22.4151L108.41 22.4945L108.282 22.8338C108.212 23.0204 108.131 23.2058 108.102 23.2459C108.073 23.286 108.026 23.4247 107.998 23.5547L107.946 23.791H105.022C103.394 23.791 102.099 23.7627 102.099 23.7274C102.099 23.6598 102.259 23.2529 102.437 22.8713C102.496 22.7457 102.544 22.5965 102.544 22.5407C102.544 22.4849 102.572 22.4081 102.605 22.3702C102.64 22.3322 102.828 21.8756 103.022 21.3562C103.218 20.8364 103.422 20.313 103.477 20.1931C103.532 20.0731 103.795 19.4028 104.061 18.7029C104.327 18.0033 104.578 17.374 104.619 17.3047C104.66 17.2353 104.694 17.1616 104.694 17.1411C104.694 17.1206 103.683 17.1041 102.447 17.1041H100.2L100.102 17.3766ZM116.821 18.2489C116.583 18.8782 116.367 19.4264 116.339 19.4661C116.311 19.5062 116.213 19.7513 116.12 20.0112C116.027 20.2711 115.904 20.5869 115.848 20.7129C115.791 20.839 115.745 20.9877 115.745 21.0435C115.745 21.0993 115.717 21.1765 115.683 21.2145C115.649 21.2524 115.562 21.4469 115.488 21.6467C115.415 21.8468 115.314 22.1085 115.263 22.2284C115.211 22.3484 115.061 22.7409 114.929 23.1007C114.797 23.4605 114.644 23.853 114.589 23.9729C114.473 24.2276 113.965 25.5338 113.965 25.5783C113.965 25.5953 117.293 25.6005 121.36 25.5905L128.755 25.5717L128.914 25.1356C129.001 24.8957 129.111 24.6075 129.158 24.4949C129.205 24.3824 129.244 24.2455 129.244 24.1905C129.244 24.1356 129.277 24.0702 129.317 24.0453C129.719 23.8024 129.493 23.791 124.274 23.791C121.46 23.791 119.157 23.7727 119.157 23.7509C119.157 23.7287 119.219 23.573 119.296 23.4055C119.372 23.2376 119.626 22.5935 119.861 21.9737C120.096 21.354 120.347 20.7164 120.417 20.5564C120.489 20.3967 120.739 19.7587 120.974 19.139C121.209 18.5192 121.46 17.8816 121.531 17.7216C121.603 17.562 121.683 17.3574 121.712 17.2676L121.763 17.1041H119.507H117.252L116.821 18.2489ZM167.115 17.4857C167.04 17.6954 166.915 18.0042 166.838 18.1721C166.761 18.3396 166.697 18.5258 166.697 18.5855C166.697 18.6453 166.667 18.7129 166.629 18.736C166.592 18.7587 166.538 18.8773 166.511 18.9994C166.483 19.1215 166.414 19.3095 166.357 19.4168C166.3 19.5236 166.253 19.6623 166.253 19.7243C166.253 19.7862 166.224 19.8682 166.19 19.9061C166.155 19.9441 166.049 20.1874 165.953 20.4473C165.856 20.7073 165.734 21.0016 165.682 21.1015C165.629 21.2018 165.586 21.334 165.585 21.3959C165.585 21.4578 165.557 21.5398 165.523 21.5778C165.489 21.6157 165.301 22.0719 165.105 22.5917C164.91 23.1116 164.692 23.6676 164.621 23.8272C164.476 24.153 163.954 25.5198 163.954 25.5735C163.954 25.5927 166.437 25.6084 169.473 25.6084H174.993L175.041 25.3912C175.068 25.2717 175.121 25.1552 175.158 25.1321C175.196 25.1094 175.227 25.0458 175.227 24.9908C175.227 24.9359 175.265 24.7989 175.313 24.6864C175.359 24.5734 175.455 24.3262 175.524 24.1365L175.649 23.791H172.392H169.135L169.185 23.6275C169.212 23.5377 169.281 23.3689 169.338 23.2529C169.395 23.1369 169.442 23.006 169.442 22.962C169.443 22.9184 169.489 22.7945 169.546 22.6877C169.604 22.5804 169.673 22.3924 169.7 22.2703C169.727 22.1482 169.781 22.0296 169.818 22.0069C169.856 21.9838 169.887 21.9184 169.887 21.8612C169.887 21.8037 169.945 21.6257 170.015 21.4657L170.144 21.1743H172.976H175.808L175.898 20.9018C175.948 20.7517 176.007 20.5965 176.031 20.5564C176.107 20.429 176.413 19.5424 176.413 19.4482C176.414 19.3771 175.809 19.357 173.639 19.357H170.866L171.195 18.5031C171.375 18.0334 171.572 17.5458 171.632 17.4198C171.692 17.2942 171.741 17.1712 171.741 17.1472C171.741 17.1237 170.731 17.1041 169.496 17.1041H167.251L167.115 17.4857ZM203.002 17.3217C202.839 17.4394 202.672 17.5624 202.631 17.5947C202.591 17.627 202.424 17.7334 202.261 17.8302C202.097 17.9274 201.926 18.0408 201.88 18.0823C201.834 18.1241 201.734 18.1991 201.658 18.2493C201.581 18.2995 201.285 18.4975 201 18.6893C200.714 18.8812 200.013 19.3461 199.442 19.7229C198.871 20.0993 198.387 20.4251 198.367 20.4465C198.346 20.4683 198.13 20.6161 197.885 20.7757C197.64 20.9349 197.423 21.0828 197.402 21.1037C197.382 21.1246 196.898 21.45 196.327 21.8268C195.756 22.2036 195.039 22.6768 194.733 22.8787C194.428 23.0806 194.14 23.2786 194.093 23.3187C194.047 23.3584 193.935 23.4404 193.843 23.5002C193.416 23.781 193.335 23.8874 193.142 24.4239C193.029 24.7352 192.891 25.0933 192.834 25.2193C192.777 25.3454 192.73 25.4845 192.73 25.5285C192.73 25.5857 194.797 25.6084 200.11 25.6084C205.423 25.6084 207.489 25.5857 207.489 25.5285C207.489 25.4845 207.538 25.3454 207.597 25.2193C207.701 25.0013 208.157 23.8525 208.157 23.8107C208.157 23.7998 206.421 23.791 204.3 23.791C202.179 23.791 200.445 23.7666 200.447 23.7365C200.449 23.7064 200.707 23.5172 201.022 23.3157C201.921 22.7391 203.666 21.5825 203.707 21.5359C203.727 21.5128 203.877 21.4151 204.041 21.3187C204.204 21.2223 204.375 21.1094 204.421 21.0679C204.467 21.0265 204.567 20.9515 204.644 20.9013C204.72 20.8507 205.016 20.6532 205.301 20.4613C205.587 20.2698 206.288 19.8054 206.859 19.4294C207.43 19.0535 207.914 18.7264 207.934 18.7024C207.955 18.6784 208.105 18.5803 208.268 18.4839C208.431 18.3875 208.605 18.2746 208.655 18.2332C208.859 18.0622 208.949 17.9998 209.232 17.8324C209.395 17.7356 209.546 17.6387 209.566 17.6165C209.586 17.5942 209.745 17.4817 209.918 17.3666C210.092 17.251 210.234 17.1451 210.234 17.1302C210.234 17.1158 208.673 17.1049 206.766 17.1058L203.299 17.108L203.002 17.3217Z" fill="#14181D"/>
</svg>
