<svg width="172" height="32" viewBox="0 0 172 32" fill="none" xmlns="http://www.w3.org/2000/svg">
<path fill-rule="evenodd" clip-rule="evenodd" d="M35.9243 2.29738C35.7785 2.38778 35.2276 2.86038 34.9534 3.13018C34.8058 3.27554 34.7059 3.35531 34.732 3.30744C34.758 3.25958 34.6976 3.30461 34.5985 3.40778C34.499 3.51059 34.4035 3.58115 34.3865 3.56448C34.3691 3.54746 34.3196 3.58965 34.2762 3.65772C34.2327 3.72579 34.1778 3.78181 34.1539 3.78181C34.13 3.78181 34.0041 3.88392 33.8739 4.00907C33.7437 4.13422 33.5932 4.25299 33.5396 4.2732C33.4861 4.2934 33.4423 4.3519 33.4423 4.40366C33.4423 4.45543 33.4206 4.4845 33.3942 4.46854C33.3678 4.45259 33.1931 4.58129 33.006 4.7543C32.8194 4.92767 32.6533 5.05672 32.6378 5.04147C32.6222 5.02623 32.5915 5.06913 32.5694 5.1372C32.5473 5.20491 32.5057 5.24639 32.4772 5.22902C32.4482 5.21165 32.403 5.23363 32.3759 5.27795C32.3491 5.32226 32.2525 5.40558 32.1617 5.46301C32.0709 5.52045 32.0069 5.58426 32.0199 5.60518C32.0326 5.6261 32.0051 5.67715 31.9591 5.71934C31.9128 5.76118 31.8748 5.77926 31.8748 5.7594C31.8748 5.73955 31.8379 5.75834 31.7927 5.80124C31.7475 5.84414 31.6078 5.95901 31.4816 6.0565C31.3557 6.154 31.1484 6.338 31.0211 6.46493C30.8938 6.5922 30.7896 6.678 30.7896 6.65567C30.7896 6.63333 30.6673 6.73473 30.5175 6.8815C30.3678 7.02828 30.2382 7.14209 30.2296 7.13429C30.1988 7.10699 29.9384 7.34275 29.7882 7.53385C29.7372 7.59873 29.713 7.6122 29.7343 7.56327C29.7662 7.4913 29.7586 7.49201 29.6938 7.56788C29.6497 7.61894 29.5393 7.70828 29.4485 7.76642C29.3577 7.82421 29.2981 7.89547 29.3165 7.92454C29.3346 7.95326 29.3089 7.97702 29.259 7.97702C29.2094 7.97702 29.1331 8.02559 29.0897 8.08515C29.0463 8.14471 28.9363 8.24079 28.8451 8.29858C28.754 8.35672 28.6795 8.4411 28.6795 8.48613C28.6795 8.53115 28.6585 8.56129 28.6328 8.55313C28.5811 8.53682 28.5279 8.57511 28.1343 8.91476C27.9129 9.10585 27.8568 9.19413 27.842 9.37636C27.8185 9.65999 27.7939 9.83832 27.778 9.83832C27.7552 9.83832 27.7194 10.073 27.6879 10.4293C27.6575 10.7715 27.6166 11.02 27.5909 11.02C27.5841 11.02 27.5728 11.0866 27.5656 11.1678C27.5511 11.3376 27.4708 11.8503 27.4314 12.0247C27.4061 12.1361 27.392 12.2492 27.3124 12.9699C27.2943 13.1327 27.2581 13.2922 27.2321 13.3245C27.206 13.3571 27.1662 13.5833 27.1438 13.8268C27.1033 14.2672 27.0707 14.5065 27.0516 14.5065C27.0367 14.5065 27.0096 14.694 26.9658 15.0971C26.9445 15.2921 26.9094 15.5048 26.888 15.5701C26.8667 15.635 26.8421 15.7945 26.8338 15.9246C26.8142 16.2292 26.7574 16.6014 26.7075 16.7517C26.6858 16.8166 26.663 16.9496 26.6565 17.0471C26.65 17.1446 26.6283 17.291 26.608 17.3722C26.5878 17.4534 26.5592 17.6395 26.5444 17.7859C26.5299 17.932 26.514 18.0518 26.5089 18.0518C26.5039 18.0518 26.4901 18.1316 26.4789 18.2291C26.4673 18.3266 26.4286 18.5925 26.3928 18.8197C26.2977 19.4239 26.2861 19.499 26.2405 19.8245C26.2174 19.9869 26.1855 20.1865 26.1696 20.2677C26.1537 20.3488 26.1316 20.4949 26.1208 20.5924C26.0625 21.1246 26.0169 21.4167 25.9844 21.4685C25.9641 21.5004 25.9399 21.6486 25.9301 21.7982C25.9204 21.9474 25.9073 22.0697 25.9008 22.0697C25.8939 22.0697 25.8838 22.1644 25.8777 22.2803C25.8715 22.3963 25.8466 22.5225 25.8223 22.5611C25.7981 22.5994 25.7937 22.6558 25.8129 22.6859C25.8321 22.7164 25.8216 22.7568 25.7901 22.776C25.7586 22.7951 25.733 22.8568 25.7333 22.9128C25.7355 23.2053 25.6718 23.701 25.6078 23.8921L25.5347 24.1083H17.8948H10.2546L10.0107 24.3299C9.87616 24.4519 9.63632 24.6579 9.47679 24.788C8.83178 25.3144 8.30036 25.786 8.30036 25.8321C8.30036 25.859 8.26165 25.881 8.21426 25.881C8.16723 25.881 8.07897 25.9423 8.01856 26.0175C7.95814 26.0926 7.86336 26.1792 7.80838 26.2096C7.69913 26.2699 7.17385 26.717 6.77339 27.0907C6.6352 27.2197 6.50461 27.3261 6.48326 27.3271C6.46228 27.3278 6.35376 27.4133 6.24234 27.5168C6.13056 27.6203 5.82234 27.8862 5.55717 28.1082C5.29201 28.3301 4.97981 28.6067 4.86369 28.7226C4.74756 28.8389 4.6054 28.9509 4.54715 28.9715C4.48927 28.992 4.44189 29.0512 4.44189 29.103C4.44189 29.1548 4.41475 29.1806 4.38146 29.1604C4.34818 29.1402 4.32106 29.1537 4.32106 29.1899C4.32106 29.2264 4.29211 29.2384 4.25666 29.2172C4.22157 29.1955 4.1778 29.2331 4.15971 29.3001C4.14198 29.3675 4.07759 29.438 4.01645 29.4568C3.95568 29.476 3.74586 29.643 3.55052 29.828C3.15403 30.2038 2.87187 30.4307 2.8006 30.4307C2.77492 30.4307 2.75357 30.4708 2.75357 30.5194C2.75357 30.5683 2.71341 30.608 2.66458 30.608C2.61538 30.608 2.5311 30.6746 2.47683 30.7558C2.42257 30.837 2.34045 30.9037 2.29451 30.9037C2.24857 30.9037 2.21094 30.9303 2.21094 30.9625C2.21094 31.0444 31.4914 31.0444 31.5431 30.9629C31.593 30.8838 31.644 30.6764 31.6668 30.4605C31.6961 30.1847 31.7504 29.8252 31.7869 29.6628C31.8054 29.5816 31.8303 29.3951 31.8423 29.2491C31.8542 29.1026 31.8922 28.8651 31.9262 28.7205C31.9602 28.5758 31.9725 28.4333 31.9537 28.4035C31.9349 28.3737 31.9479 28.3326 31.9823 28.3117C32.0166 28.2908 32.0608 28.0745 32.0799 27.8309C32.0995 27.587 32.1422 27.2814 32.1751 27.1513C32.2076 27.0215 32.2521 26.7024 32.2735 26.4422C32.2952 26.1823 32.3296 25.9562 32.3498 25.9402C32.3704 25.9239 32.391 25.8572 32.3954 25.7924C32.4091 25.5903 32.4815 25.0904 32.5195 24.9354C32.5394 24.8543 32.5633 24.6816 32.5727 24.5515C32.5824 24.4214 32.5944 24.315 32.5991 24.315C32.6041 24.315 32.6161 24.2487 32.6255 24.1675C32.6609 23.8665 32.7253 23.4244 32.755 23.2812C32.772 23.2 32.7987 23.0536 32.815 22.9561C32.8313 22.8586 32.8697 22.6459 32.9004 22.4835C32.9312 22.3208 32.9731 22.018 32.993 21.8106C33.0133 21.6028 33.0527 21.3734 33.0809 21.3011C33.1091 21.2284 33.1236 21.0944 33.1135 21.0026C33.1033 20.9111 33.1171 20.7683 33.1446 20.6849C33.1717 20.6016 33.2086 20.4272 33.226 20.2971C33.2437 20.167 33.2734 19.9943 33.2918 19.9131C33.3103 19.8319 33.337 19.6189 33.3508 19.4402C33.3645 19.2615 33.3805 19.1154 33.3866 19.1154C33.4137 19.1154 33.5027 18.4843 33.5219 18.155C33.5277 18.0497 33.5563 17.9632 33.5852 17.9632C33.6138 17.9632 33.6243 17.9135 33.608 17.8533C33.5921 17.793 33.6022 17.7026 33.6308 17.6523C33.6594 17.6023 33.6966 17.3573 33.7133 17.108C33.7303 16.8592 33.769 16.6096 33.799 16.5543C33.8294 16.4986 33.8482 16.3674 33.841 16.2628C33.8334 16.1579 33.8449 16.0721 33.8663 16.0721C33.8876 16.0721 33.9093 15.9682 33.9144 15.8413C33.9195 15.7144 33.9484 15.546 33.9792 15.4665C34.0099 15.3875 34.0258 15.2258 34.0146 15.1074C34.0034 14.9886 34.0135 14.8801 34.0374 14.8656C34.0609 14.8514 34.087 14.738 34.0946 14.6139C34.1025 14.4898 34.1347 14.3083 34.1658 14.2108C34.1973 14.1133 34.2385 13.8609 34.2577 13.6496C34.2953 13.2394 34.3243 13.0291 34.3431 13.0291C34.3496 13.0291 34.3666 12.9359 34.3811 12.8224C34.435 12.3952 34.4646 12.1914 34.5268 11.8177C34.5619 11.6064 34.6061 11.3142 34.6249 11.1678C34.6658 10.8502 34.6965 10.6654 34.7081 10.6654C34.7132 10.6654 34.7262 10.5991 34.7378 10.518C34.7927 10.1258 34.8398 9.75465 34.8647 9.51321C34.8799 9.36714 34.9168 9.16754 34.9465 9.07004C34.9979 8.90129 35.0814 8.35247 35.1035 8.03622C35.1093 7.95503 35.1198 7.87491 35.1266 7.85895C35.148 7.80967 35.1834 7.60617 35.2138 7.35658C35.2297 7.22647 35.2478 7.12011 35.2543 7.12011C35.2609 7.12011 35.2753 7.02722 35.2865 6.91341C35.2977 6.79961 35.3383 6.52059 35.3766 6.29298C35.415 6.06537 35.4501 5.79308 35.4544 5.68743C35.4587 5.58178 35.4786 5.49528 35.4989 5.49528C35.5191 5.49528 35.538 5.38218 35.5412 5.24426C35.5474 4.97446 35.5673 4.85038 35.6186 4.75678C35.6367 4.72416 35.6588 4.59263 35.6678 4.46464C35.6769 4.33666 35.7329 3.95199 35.7926 3.61022C35.852 3.26809 35.8954 2.91462 35.8892 2.82492C35.8827 2.73487 35.895 2.65404 35.9167 2.64517C35.9518 2.63099 36.0506 2.2442 36.0184 2.24632C36.0111 2.24668 35.9684 2.26972 35.9243 2.29738Z" fill="#FBAC18"/>
<path fill-rule="evenodd" clip-rule="evenodd" d="M4.65672 0.25101C4.63429 0.389279 4.57858 0.754803 4.53299 1.0636C4.42555 1.7943 4.28411 2.71821 4.16726 3.45671C4.11553 3.78182 4.03413 4.30688 3.98566 4.62384C3.93755 4.94043 3.85724 5.46585 3.80768 5.79061C3.75776 6.11572 3.67636 6.64752 3.6268 6.97262C3.57688 7.29738 3.49549 7.82918 3.44593 8.15429C3.396 8.47939 3.31461 9.0112 3.26505 9.33595C3.21513 9.66106 3.13373 10.1929 3.08417 10.518C3.03425 10.8427 2.95285 11.3745 2.90329 11.6996C2.85337 12.0247 2.77342 12.5498 2.72494 12.8668C2.67683 13.1834 2.59725 13.6953 2.54841 14.0041C2.49957 14.3129 2.41565 14.8447 2.36138 15.1858C2.30748 15.5272 2.22428 16.0721 2.17653 16.3972C2.12878 16.7223 2.04991 17.2406 2.0018 17.5494C1.90196 18.1904 1.76847 19.0552 1.63715 19.9131C1.58723 20.2379 1.50583 20.7697 1.45627 21.0948C1.40635 21.4199 1.32496 21.9517 1.2754 22.2764C1.22548 22.6016 1.14408 23.1334 1.09452 23.4585C1.0446 23.7832 0.963202 24.315 0.913642 24.6401C0.86372 24.9652 0.781236 25.5034 0.73059 25.8367C0.679583 26.1699 0.598191 26.695 0.549354 27.0038C0.500879 27.3123 0.420206 27.8309 0.370646 28.156C0.320724 28.4808 0.265016 28.8399 0.246928 28.9537C-0.0696076 30.9445 -0.0659939 30.8647 0.1677 30.653C0.248733 30.5796 0.488576 30.3733 0.700926 30.1946C0.913276 30.0156 1.13069 29.8298 1.18459 29.7809C1.2385 29.7319 1.45591 29.5458 1.66754 29.3671C1.87953 29.1884 2.1494 28.9605 2.26697 28.8601C2.3849 28.7602 2.57373 28.6006 2.68696 28.5056C2.79983 28.411 2.96443 28.2667 3.05197 28.1855C3.13988 28.1043 3.34536 27.9313 3.50887 27.8015C3.67238 27.6714 3.84892 27.5253 3.90137 27.4764C4.00049 27.3842 4.59703 26.8726 5.01124 26.5248C5.14255 26.4146 5.2934 26.2841 5.34622 26.2355C5.39904 26.1866 5.61609 26.0005 5.82772 25.8218C6.32043 25.4066 6.68218 25.0992 6.7672 25.0241C6.89164 24.9142 7.48383 24.4196 7.75659 24.1977C8.11328 23.9073 8.12992 23.8736 8.21819 23.2514C8.25943 22.9589 8.33359 22.4672 8.38243 22.1584C8.43163 21.8496 8.51591 21.3178 8.56981 20.9767C8.68413 20.2556 8.80641 19.4313 8.89865 18.7609C8.93447 18.5007 8.97751 18.2284 8.99415 18.155L9.02527 18.022H12.0163H15.0072L15.2286 17.8302C15.3505 17.7246 15.6233 17.4917 15.8353 17.313C16.0473 17.1343 16.2647 16.9482 16.3186 16.8996C16.3721 16.8507 16.591 16.6645 16.8044 16.4858C17.4769 15.9225 17.5399 15.869 17.703 15.7176C17.7909 15.6364 17.9957 15.4637 18.1581 15.3343C18.3209 15.2046 18.526 15.0319 18.6139 14.95C18.7022 14.8685 18.8661 14.7249 18.9782 14.6313C19.4547 14.2324 19.9047 13.8502 19.9958 13.7676C20.0497 13.7191 20.2672 13.5329 20.4788 13.3542C20.6908 13.1756 20.9606 12.9472 21.0782 12.8473C21.1961 12.7469 21.3843 12.5874 21.4968 12.4927C21.6093 12.3977 21.7315 12.2935 21.7688 12.2609C21.8057 12.2286 21.9457 12.1088 22.0799 11.995C22.9347 11.2689 23.0711 11.1462 23.0711 11.1005C23.0711 11.0725 20.1641 11.0498 16.5896 11.0498C13.0248 11.0498 10.1091 11.0296 10.1102 11.0055C10.1123 10.9505 10.2585 9.94823 10.3793 9.15868C10.4292 8.83393 10.5092 8.30851 10.5569 7.99191C10.6051 7.67496 10.6629 7.31581 10.6857 7.19421L10.727 6.97262H19.3689H28.0109L28.1813 6.80954C28.2746 6.71949 28.4844 6.54009 28.6468 6.41069C28.8096 6.28093 29.0144 6.10827 29.1023 6.02708C29.2654 5.87605 29.328 5.82216 30.0009 5.25881C30.2143 5.08012 30.4328 4.89399 30.4867 4.84542C30.5406 4.79649 30.758 4.61036 30.9697 4.43168C31.1817 4.25299 31.4515 4.02361 31.5691 3.92186C31.687 3.82011 31.8751 3.66057 31.9873 3.56732C32.0994 3.47408 32.2637 3.3312 32.3523 3.25002C32.4409 3.16883 32.6468 2.99617 32.8092 2.86641C32.972 2.73665 33.1771 2.56399 33.265 2.48245C33.3533 2.40091 33.5171 2.25767 33.6293 2.16443C33.7414 2.07119 33.9295 1.91165 34.0471 1.8099C34.165 1.70815 34.4342 1.47876 34.6451 1.30008C34.8564 1.12104 35.1052 0.907962 35.1982 0.826065C35.2912 0.744167 35.5158 0.558037 35.6978 0.412323C35.8794 0.266964 36.0292 0.114515 36.031 0.0737432C36.0331 0.0148905 32.8616 0 20.3659 0H4.69759L4.65672 0.25101Z" fill="#14181D"/>
<path fill-rule="evenodd" clip-rule="evenodd" d="M44.4836 11.5146C44.5321 11.5862 44.6236 11.6723 44.6869 11.7067C44.7506 11.7411 44.8233 11.8007 44.8486 11.8393C44.9575 12.0052 45.2693 12.2694 45.32 12.2389C45.3504 12.2204 45.3753 12.2335 45.3753 12.2679C45.3753 12.3023 45.4806 12.4367 45.6098 12.5672L45.8442 12.804L51.0209 12.7887C55.9089 12.7746 56.1972 12.7678 56.1893 12.6703C56.1846 12.6133 56.2066 12.5668 56.2381 12.5668C56.2696 12.5668 56.2786 12.5402 56.258 12.5076C56.2374 12.4753 56.254 12.4488 56.2945 12.4488C56.3354 12.4488 56.3506 12.431 56.3289 12.4098C56.3072 12.3885 56.3195 12.3353 56.3564 12.2917C56.3933 12.2481 56.4023 12.2123 56.3767 12.2123C56.351 12.2123 56.3774 12.1609 56.4353 12.0978C56.4935 12.035 56.5272 11.9616 56.5105 11.9347C56.3933 11.7489 56.6447 11.6847 56.8195 11.8556C56.92 11.9542 57.0217 12.035 57.0452 12.035C57.0687 12.035 57.2243 12.1818 57.3903 12.3612C57.5563 12.5406 57.7061 12.6742 57.7228 12.6576C57.9167 12.4679 57.8823 12.9986 57.6862 13.2294C57.6388 13.2851 57.6164 13.3727 57.6367 13.4244C57.6609 13.4861 57.6497 13.5038 57.6037 13.4762C57.5571 13.4478 57.5466 13.4663 57.5723 13.5322C57.5936 13.5861 57.5846 13.6304 57.5524 13.6304C57.5202 13.6304 57.4999 13.6503 57.5068 13.6747C57.514 13.6992 57.4858 13.779 57.4446 13.852C57.403 13.925 57.3842 13.9849 57.403 13.9849C57.4214 13.9849 57.3983 14.0449 57.3512 14.1179C57.2716 14.2427 57.1074 14.688 57.1175 14.7532C57.1201 14.7692 57.094 14.816 57.0593 14.8564C57.0249 14.8972 57.0181 14.9305 57.0437 14.9305C57.0694 14.9305 57.0416 14.9837 56.9815 15.0486C56.9215 15.1134 56.8936 15.1666 56.9193 15.1666C56.945 15.1666 56.9392 15.1999 56.9066 15.2407C56.8151 15.3538 56.5854 15.9937 56.6357 15.9948C56.6599 15.9955 56.6444 16.0178 56.6006 16.0451C56.5572 16.0721 56.5156 16.1317 56.5087 16.177C56.5015 16.2228 56.4754 16.2915 56.4508 16.3305C56.3948 16.4185 56.2269 16.8716 56.1951 17.0205C56.182 17.0814 56.1271 17.1977 56.0728 17.2789C56.0185 17.3601 56.007 17.4069 56.0467 17.3828C56.0865 17.3587 56.0493 17.4615 55.9635 17.6118C55.8782 17.7622 55.7953 17.9536 55.7798 18.0376C55.7642 18.1217 55.7266 18.2213 55.6962 18.2592C55.6304 18.3411 55.4158 18.9452 55.414 19.0544C55.4133 19.0963 55.3768 19.1523 55.333 19.1792C55.2889 19.2058 55.2574 19.2377 55.2628 19.2505C55.286 19.303 55.1825 19.6373 55.1058 19.7578C54.9116 20.0638 54.9521 20.0712 56.8227 20.0712C58.6347 20.0712 58.8355 20.0386 58.668 19.7734C58.6485 19.7422 58.6546 19.7167 58.6814 19.7167C58.736 19.7167 58.8724 19.4402 58.9082 19.2569C58.9209 19.1923 59.0149 18.9346 59.1173 18.6843C59.2197 18.434 59.2892 18.2064 59.2718 18.1787C59.2541 18.1511 59.2881 18.1011 59.3467 18.0674C59.4056 18.0341 59.4299 18.0057 59.4009 18.0047C59.372 18.0039 59.3821 17.9632 59.4234 17.9142C59.4646 17.8657 59.4841 17.8256 59.4668 17.8256C59.449 17.8256 59.5286 17.593 59.6437 17.3087C59.7583 17.0244 59.8564 16.745 59.8618 16.6883C59.8669 16.6315 59.8926 16.5847 59.9186 16.5847C59.9447 16.5847 59.9617 16.5649 59.9562 16.5404C59.9508 16.5163 59.9801 16.4163 60.021 16.3188C60.0622 16.2213 60.0995 16.0951 60.1038 16.0384C60.1085 15.9813 60.1353 15.9349 60.1631 15.9349C60.1914 15.9349 60.1986 15.9101 60.1794 15.8799C60.1606 15.8498 60.1729 15.808 60.2073 15.787C60.2413 15.7665 60.254 15.7246 60.2348 15.6945C60.2156 15.664 60.2279 15.6396 60.2619 15.6396C60.2959 15.6396 60.3082 15.5995 60.2894 15.5509C60.2702 15.502 60.2804 15.4623 60.3115 15.4623C60.3429 15.4623 60.4171 15.3091 60.4764 15.1223C60.5358 14.9355 60.6233 14.7096 60.6707 14.6203C60.7177 14.5309 60.7409 14.4575 60.7217 14.4575C60.7025 14.4575 60.7264 14.398 60.7749 14.3246C60.8237 14.2516 60.8762 14.1253 60.8921 14.0442C60.9076 13.963 60.9637 13.797 61.0165 13.6758C61.069 13.5545 61.1062 13.4347 61.0986 13.4099C61.0911 13.3851 61.1345 13.2915 61.1952 13.2025C61.256 13.1135 61.2907 13.0025 61.2727 12.9561C61.2546 12.91 61.2727 12.8597 61.3132 12.8444C61.3537 12.8292 61.4221 12.6806 61.4658 12.5147C61.5092 12.3484 61.5693 12.2084 61.5993 12.2034C61.7371 12.1811 61.7748 12.1857 61.7773 12.2247C61.7784 12.2477 61.9028 12.3874 62.0533 12.5349L62.3268 12.8033H64.361H66.3951L66.5076 12.5817C66.5695 12.4597 66.6255 12.3399 66.632 12.3158C66.6382 12.2913 66.6487 12.2647 66.6556 12.2566C66.6621 12.2484 66.6798 12.1765 66.6946 12.0967C66.7095 12.0169 66.7438 11.9372 66.7706 11.9194C66.8198 11.8872 66.9598 11.5287 66.9598 11.4351C66.9598 11.4075 61.8829 11.3851 55.6778 11.3851H44.3957L44.4836 11.5146ZM67.344 11.4302C67.3064 11.4543 67.2326 11.5933 67.1801 11.7397C66.9479 12.386 66.8893 12.5321 66.7775 12.7473C66.712 12.8728 66.6585 13.0178 66.6585 13.0692C66.6585 13.1202 66.6071 13.261 66.5445 13.3815C66.4816 13.5021 66.4306 13.6141 66.4309 13.6304C66.4313 13.6467 66.3875 13.763 66.334 13.8889C66.2804 14.0147 66.2363 14.1374 66.2363 14.1619C66.2363 14.1863 66.1838 14.3228 66.1198 14.465C66.0554 14.6072 66.008 14.7394 66.0142 14.7589C66.0203 14.778 65.9892 14.8369 65.9447 14.889C65.9006 14.9415 65.8818 15.012 65.9031 15.0461C65.9245 15.0797 65.9118 15.1078 65.8745 15.1078C65.8376 15.1078 65.8239 15.1343 65.8445 15.1666C65.8651 15.1992 65.8532 15.2258 65.8181 15.2258C65.7826 15.2258 65.7541 15.2723 65.7537 15.3293C65.7533 15.3861 65.7128 15.5084 65.6636 15.6013C65.6141 15.6942 65.5887 15.7938 65.6072 15.8229C65.6256 15.8519 65.6152 15.8757 65.5844 15.8757C65.5323 15.8757 65.426 16.2022 65.4444 16.3043C65.4491 16.3284 65.4256 16.3486 65.3923 16.3486C65.359 16.3486 65.3319 16.3876 65.3319 16.4351C65.3319 16.5227 65.2046 16.8389 65.0537 17.1247C65.0085 17.2101 64.9636 17.33 64.9542 17.3906C64.9445 17.4512 64.9202 17.5275 64.9003 17.5597C64.8801 17.5923 64.845 17.7054 64.8218 17.8111C64.7987 17.9167 64.7571 18.0029 64.7292 18.0029C64.7014 18.0029 64.6608 18.0894 64.6395 18.195C64.6182 18.3007 64.5643 18.467 64.5198 18.5645C64.4753 18.662 64.3935 18.8612 64.3378 19.0076C64.2825 19.1537 64.1992 19.3476 64.1526 19.4387C64.094 19.5536 64.0904 19.5905 64.1414 19.5596C64.1815 19.5352 64.1537 19.5908 64.0799 19.683C63.7644 20.0762 63.7431 20.0712 65.7468 20.0712H67.548L67.6808 19.7018C67.7538 19.4987 67.8385 19.2863 67.8692 19.2299C67.8996 19.1736 67.9246 19.0771 67.9246 19.0154C67.9246 18.9541 67.9637 18.8718 68.0114 18.8332C68.0592 18.7942 68.0834 18.7247 68.0653 18.6783C68.0472 18.6318 68.0653 18.5939 68.1055 18.5939C68.1456 18.5939 68.163 18.5542 68.1438 18.5053C68.125 18.4563 68.1373 18.4166 68.1713 18.4166C68.2053 18.4166 68.2165 18.39 68.1959 18.3574C68.1753 18.3252 68.1872 18.2986 68.2223 18.2986C68.2578 18.2986 68.2864 18.2379 68.2864 18.1638C68.2864 18.0897 68.3243 17.9759 68.371 17.9111C68.4567 17.7909 68.6181 17.3013 68.5985 17.2201C68.5928 17.1956 68.6148 17.1758 68.6481 17.1758C68.6814 17.1758 68.7085 17.1368 68.7085 17.0892C68.7085 17.0038 68.8312 16.6968 68.9813 16.4075C69.0232 16.3263 69.1007 16.1168 69.1535 15.942C69.2059 15.7672 69.2801 15.5878 69.3177 15.5431C69.3553 15.4988 69.3713 15.4623 69.3532 15.4623C69.325 15.4623 69.4516 15.1163 69.6455 14.6646C69.6737 14.5994 69.7005 14.5196 69.7059 14.4873C69.72 14.4005 69.9038 13.9807 70.0101 13.7928C70.0608 13.7034 70.0854 13.6035 70.0647 13.5712C70.0445 13.5389 70.0542 13.5124 70.0868 13.5124C70.1194 13.5124 70.1639 13.4322 70.1856 13.3344C70.2076 13.2365 70.2659 13.077 70.3154 12.9798L70.4055 12.8033H72.3583C74.421 12.8033 74.578 12.7806 74.4054 12.5065C74.3852 12.4746 74.3993 12.4488 74.4362 12.4488C74.4731 12.4488 74.4886 12.425 74.4706 12.3963C74.4525 12.3676 74.4792 12.3101 74.5299 12.2686C74.5809 12.2272 74.6087 12.1577 74.5914 12.1141C74.5744 12.0705 74.5809 12.035 74.6059 12.035C74.6699 12.035 74.8453 11.5486 74.8139 11.4589C74.7849 11.3763 67.4728 11.3483 67.344 11.4302ZM45.7422 13.2404C45.7035 13.2858 45.6608 13.3815 45.6467 13.4531C45.6325 13.5248 45.5946 13.6148 45.562 13.6531C45.5294 13.6914 45.4893 13.7974 45.4723 13.8885C45.4553 13.9796 45.4108 14.0906 45.3732 14.1353C45.3355 14.1796 45.3222 14.2438 45.3435 14.2778C45.3648 14.3118 45.3569 14.3395 45.3254 14.3395C45.2943 14.3395 45.2487 14.3994 45.2245 14.4724C45.2002 14.5455 45.1746 14.6185 45.167 14.6348C45.1597 14.6511 45.1333 14.7178 45.108 14.7826C45.0827 14.8475 44.9789 15.1106 44.8768 15.3666C44.7752 15.6229 44.692 15.8689 44.692 15.9133C44.692 15.9576 44.6743 15.9941 44.6526 15.9941C44.6142 15.9941 44.3859 16.6174 44.3823 16.7326C44.3812 16.7652 44.3639 16.8049 44.3436 16.8212C44.2666 16.8833 44.0687 17.3899 44.0832 17.487C44.0915 17.5434 44.0763 17.5895 44.0491 17.5895C43.9837 17.5895 43.682 18.3606 43.7225 18.4251C43.7402 18.4528 43.7279 18.4758 43.6954 18.4758C43.6628 18.4758 43.6179 18.5584 43.5951 18.6595C43.5724 18.7605 43.4884 18.9885 43.4085 19.1658C43.3285 19.343 43.2811 19.5171 43.3036 19.5525C43.326 19.5884 43.3162 19.5997 43.2808 19.5784C43.2088 19.5348 43.1259 19.6986 43.178 19.7809C43.1965 19.8107 43.1831 19.8348 43.148 19.8348C43.1129 19.8348 43.084 19.8879 43.084 19.9528C43.084 20.0684 43.1241 20.0712 44.837 20.0712C46.6643 20.0712 46.7634 20.0578 46.7276 19.8188C46.7193 19.7624 46.737 19.7167 46.7674 19.7167C46.7974 19.7167 46.8224 19.6635 46.8224 19.5983C46.8224 19.5334 46.8495 19.4802 46.8824 19.4802C46.9157 19.4802 46.9385 19.4604 46.9331 19.4359C46.9276 19.4114 46.9577 19.3118 46.9993 19.2143C47.0412 19.1168 47.081 19.0044 47.0879 18.9647C47.0944 18.9254 47.1172 18.8761 47.1378 18.8559C47.1588 18.8353 47.161 18.7814 47.1432 18.7357C47.1255 18.6903 47.1425 18.6531 47.1812 18.6531C47.2199 18.6531 47.2348 18.6265 47.2141 18.5939C47.1935 18.5613 47.2055 18.5347 47.2405 18.5347C47.276 18.5347 47.3046 18.5099 47.3046 18.4797C47.3046 18.4492 47.3361 18.3496 47.374 18.2581C47.4124 18.1663 47.45 18.0617 47.458 18.0252C47.4659 17.9887 47.5115 17.8692 47.5596 17.7593C47.6537 17.543 47.7875 17.1821 47.8085 17.0871C47.8154 17.0545 47.8675 16.9382 47.9239 16.8287C47.98 16.7191 48.0114 16.6064 47.9934 16.5777C47.9753 16.5493 47.9912 16.5259 48.0281 16.5259C48.065 16.5259 48.0784 16.4986 48.0578 16.4656C48.0321 16.4252 49.0414 16.4107 51.1591 16.4213L54.2987 16.4373L54.3971 16.1416C54.451 15.9792 54.5187 15.8172 54.5473 15.7817C54.5755 15.7463 54.5795 15.6984 54.556 15.675C54.5324 15.652 54.548 15.6119 54.5907 15.586C54.6334 15.5601 54.6757 15.5016 54.6851 15.4563C54.6945 15.4109 54.7332 15.2989 54.7716 15.207C54.8099 15.1156 54.841 15.0294 54.841 15.0152C54.841 15.001 53.4468 14.9893 51.7426 14.9893H48.6442L48.8185 14.5696C48.9144 14.3388 48.9929 14.1129 48.9929 14.0676C48.9929 14.0222 49.0215 13.9849 49.0566 13.9849C49.0916 13.9849 49.105 13.9601 49.0859 13.93C49.0667 13.8999 49.0786 13.8584 49.1123 13.8378C49.1459 13.8173 49.1738 13.7357 49.1738 13.6563C49.1738 13.5772 49.1998 13.5124 49.232 13.5124C49.2642 13.5124 49.2758 13.4751 49.2581 13.4297C49.2403 13.384 49.2552 13.3291 49.291 13.3074C49.4892 13.1872 49.1455 13.1578 47.5495 13.1578C46.135 13.1578 45.799 13.1731 45.7422 13.2404Z" fill="#14181D"/>
<path fill-rule="evenodd" clip-rule="evenodd" d="M80.102 11.4397C80.102 11.4698 80.1765 11.5517 80.2677 11.6219C80.3589 11.6918 80.6855 11.9864 80.9934 12.2761L81.5534 12.8033H85.7414C88.0451 12.8033 89.9294 12.8096 89.9294 12.8178C89.9291 12.8259 89.7815 13.2149 89.601 13.6818L89.2732 14.5313L89.5561 14.4976C89.7117 14.4791 90.1103 14.4203 90.4421 14.3667C91.6149 14.1771 92.0153 14.1147 92.5221 14.0424C93.1227 13.9562 93.1791 13.9129 93.3672 13.3939C93.4439 13.1826 93.5246 12.9834 93.5466 12.9507C93.5687 12.9185 93.6769 12.6526 93.7868 12.3601C93.8968 12.0676 94.01 11.7659 94.0386 11.69C94.0896 11.5553 94.1012 11.5613 94.4673 11.9013C94.6742 12.0938 94.9817 12.3753 95.151 12.5271L95.4589 12.8033H99.6277C101.921 12.8033 103.797 12.815 103.797 12.8291C103.797 12.8954 103.471 13.7254 103.426 13.775C103.398 13.8059 103.375 13.8725 103.374 13.9229C103.374 13.9732 103.334 14.0906 103.284 14.1838C103.234 14.2767 103.194 14.3792 103.194 14.4111C103.194 14.443 103.154 14.5532 103.105 14.6553C103.056 14.7578 102.839 15.307 102.622 15.8756C102.406 16.4447 102.202 16.963 102.169 17.0279C102.103 17.1615 101.686 18.2361 101.686 18.2741C101.686 18.2875 102.514 18.2985 103.526 18.2985C104.775 18.2985 105.364 18.2783 105.364 18.2361C105.364 18.2017 105.415 18.0621 105.477 17.9259C105.539 17.7894 105.746 17.2658 105.937 16.762C106.128 16.2582 106.332 15.7399 106.389 15.6097C106.447 15.48 106.65 14.9613 106.841 14.4575C107.032 13.9537 107.236 13.4354 107.294 13.3053C107.352 13.1755 107.528 12.7288 107.687 12.3126L107.975 11.5564L108.188 11.7513C108.304 11.8584 108.606 12.1392 108.857 12.3746L109.314 12.8029H113.489C116.125 12.8029 117.664 12.8242 117.664 12.86C117.664 12.9238 117.464 13.4421 117.33 13.7279C117.281 13.8303 117.242 13.9551 117.242 14.0051C117.242 14.0551 117.217 14.1111 117.186 14.1299C117.156 14.1484 117.112 14.2448 117.09 14.3441C117.068 14.4433 117.012 14.5961 116.966 14.6833C116.919 14.7702 116.881 14.8865 116.881 14.9414C116.881 14.9968 116.86 15.0538 116.835 15.0691C116.81 15.0843 116.723 15.2853 116.641 15.5158L116.493 15.9349H114.129H111.766L111.944 15.4768C112.042 15.2251 112.158 14.9393 112.203 14.8418C112.247 14.7443 112.371 14.4253 112.479 14.1328C112.586 13.8403 112.712 13.5169 112.758 13.4145C112.803 13.3124 112.841 13.2124 112.841 13.1929C112.841 13.1737 112.02 13.1578 111.016 13.1578H109.191L109.08 13.468C109.02 13.6385 108.935 13.858 108.893 13.9555C108.85 14.053 108.727 14.3721 108.62 14.6646C108.512 14.9571 108.376 15.3027 108.319 15.4325C108.261 15.5626 108.058 16.0809 107.867 16.5847C107.676 17.0885 107.468 17.6122 107.407 17.7487C107.345 17.8848 107.294 18.0362 107.294 18.0847C107.294 18.1333 107.267 18.1897 107.234 18.2099C107.2 18.2298 107.173 18.2911 107.173 18.3464C107.172 18.4013 107.132 18.5222 107.082 18.6155C107.033 18.7084 106.992 18.8108 106.992 18.8427C106.992 18.8747 106.953 18.9849 106.905 19.087C106.747 19.4217 106.57 19.8964 106.57 19.9847C106.57 20.0584 106.831 20.0712 108.37 20.0712H110.17L110.432 19.3767C110.576 18.9948 110.729 18.6162 110.772 18.5347C110.815 18.4535 110.85 18.3421 110.851 18.2872C110.851 18.2322 110.876 18.172 110.907 18.1535C110.937 18.1351 110.981 18.0344 111.005 17.9305C111.028 17.8263 111.069 17.7001 111.095 17.6504C111.122 17.6005 111.158 17.5132 111.176 17.4565C111.205 17.3643 111.303 17.353 112.076 17.353C113.072 17.353 112.932 17.2878 113.655 18.0886C113.887 18.3457 114.158 18.6396 114.257 18.7417C114.357 18.8438 114.679 19.1849 114.973 19.4993L115.507 20.0712H117.403C119.257 20.0712 119.297 20.0687 119.218 19.9585C119.174 19.8964 118.772 19.4674 118.325 19.0051C117.879 18.5432 117.344 17.989 117.136 17.7738L116.759 17.3824L118.172 17.3668C119.576 17.3509 119.586 17.3498 119.627 17.219C119.649 17.1463 119.704 17.0073 119.749 16.9098C119.794 16.8123 120.009 16.2674 120.225 15.6984C120.442 15.1297 120.646 14.6114 120.679 14.5461C120.711 14.4813 120.915 13.9629 121.131 13.3939C121.347 12.8252 121.55 12.3069 121.582 12.2417C121.614 12.1768 121.689 11.9985 121.748 11.8453L121.857 11.567L122.505 12.1917C123.21 12.8696 123.188 12.8171 122.971 13.3053C122.913 13.4354 122.817 13.6747 122.757 13.8371C122.697 13.9998 122.626 14.1579 122.598 14.1888C122.571 14.2196 122.548 14.281 122.548 14.3249C122.548 14.3689 122.497 14.5167 122.435 14.6529C122.373 14.7894 122.207 15.2066 122.066 15.5803C121.924 15.954 121.761 16.3663 121.704 16.4961C121.646 16.6262 121.55 16.8655 121.49 17.0279C121.43 17.1906 121.363 17.3502 121.341 17.3824C121.32 17.415 121.198 17.7206 121.071 18.0621C120.944 18.4031 120.818 18.7077 120.79 18.7385C120.762 18.7694 120.739 18.8321 120.739 18.8775C120.739 18.9229 120.7 19.0438 120.651 19.1462C120.516 19.4338 120.317 19.9507 120.317 20.0152C120.317 20.0517 120.979 20.0669 122.132 20.057L123.948 20.0414L124.189 19.3916C124.322 19.0342 124.465 18.6619 124.507 18.5644C124.549 18.4669 124.671 18.1479 124.778 17.8554C124.884 17.5629 124.996 17.2704 125.026 17.2051C125.055 17.1403 125.378 16.3025 125.743 15.3438C126.109 14.3852 126.431 13.5478 126.461 13.4825C126.491 13.4177 126.602 13.1252 126.709 12.8327C126.816 12.5402 126.938 12.2211 126.981 12.1236C127.023 12.0261 127.085 11.8666 127.118 11.7691C127.151 11.6716 127.197 11.5454 127.221 11.4883C127.261 11.3901 126.117 11.3851 103.683 11.3851C89.2327 11.3851 80.102 11.4064 80.102 11.4397ZM131.227 11.6067C131.186 11.7283 131.135 11.8549 131.111 11.8871C131.088 11.9198 131.006 12.119 130.929 12.3303C130.851 12.5416 130.77 12.7412 130.748 12.7735C130.726 12.8061 130.618 13.072 130.509 13.3645C130.399 13.657 130.263 14.0026 130.205 14.1328C130.148 14.2625 130.026 14.5685 129.934 14.812C129.841 15.056 129.72 15.3616 129.662 15.4917C129.605 15.6218 129.483 15.9274 129.391 16.1713C129.299 16.4149 129.173 16.7258 129.111 16.8623C129.05 16.9985 128.999 17.1381 128.999 17.1725C128.999 17.2069 128.977 17.2349 128.949 17.2349C128.898 17.2349 128.829 16.9878 128.37 15.1815C128.323 14.9946 128.158 14.3632 128.003 13.7782C127.849 13.1932 127.682 12.5551 127.634 12.3601C127.585 12.1651 127.53 11.9456 127.511 11.8726C127.46 11.6691 127.405 11.7109 127.281 12.0499C127.219 12.2204 127.132 12.4264 127.089 12.5076C127.045 12.5891 127.01 12.6891 127.01 12.7302C127.01 12.771 126.984 12.8508 126.954 12.9075C126.924 12.9639 126.838 13.1826 126.763 13.3939C126.689 13.6052 126.61 13.8048 126.588 13.8371C126.565 13.8697 126.486 14.0689 126.411 14.2802C126.337 14.4915 126.255 14.7053 126.228 14.755C126.08 15.0358 126.119 15.4474 126.382 16.378C126.4 16.4429 126.451 16.6556 126.495 16.8506C126.539 17.0456 126.62 17.3913 126.676 17.6189C126.731 17.8465 126.815 18.1986 126.863 18.4017C126.995 18.9686 127.117 19.4809 127.192 19.7904L127.26 20.0712H129.353C131.506 20.0712 131.589 20.0623 131.594 19.8376C131.595 19.7872 131.648 19.6397 131.712 19.5096C131.776 19.3799 131.83 19.2398 131.831 19.1987C131.832 19.1576 131.858 19.0778 131.888 19.0214C131.918 18.9651 131.989 18.786 132.046 18.6233C132.103 18.4609 132.184 18.2482 132.225 18.1507C132.267 18.0532 132.443 17.5877 132.616 17.1165C132.789 16.6453 132.954 16.2068 132.983 16.1415C133.104 15.8714 133.4 15.0762 133.401 15.0202C133.401 14.9872 133.439 14.8886 133.486 14.8011C133.532 14.7138 133.672 14.3561 133.797 14.0065C133.921 13.6566 134.059 13.3024 134.103 13.2195C134.147 13.1369 134.184 13.0419 134.184 13.0085C134.184 12.9518 134.484 12.147 134.602 11.8871C134.631 11.8223 134.673 11.718 134.693 11.6553C134.727 11.5539 134.763 11.5709 135.015 11.8084C135.172 11.9552 135.475 12.2392 135.689 12.4391L136.078 12.8033H145.393C152.638 12.8033 154.692 12.8189 154.635 12.8742C154.596 12.9132 154.563 12.9862 154.563 13.0365C154.562 13.0869 154.522 13.2042 154.472 13.2975C154.423 13.3904 154.382 13.4967 154.382 13.5336C154.381 13.5705 154.346 13.6673 154.304 13.7484C154.261 13.83 154.051 14.355 153.837 14.9156L153.449 15.9349H151.112C149.654 15.9349 148.775 15.9136 148.775 15.8781C148.775 15.8253 148.951 15.3502 149.072 15.0779C149.101 15.0131 149.212 14.7206 149.319 14.4281C149.427 14.1356 149.562 13.7899 149.62 13.6598C149.678 13.53 149.744 13.3634 149.767 13.2897L149.809 13.156L147.983 13.1716L146.158 13.1872L145.988 13.6304C145.895 13.8743 145.792 14.1267 145.76 14.1916C145.728 14.2568 145.524 14.7752 145.308 15.3438C145.092 15.9129 144.889 16.4312 144.856 16.4961C144.824 16.5613 144.62 17.0796 144.403 17.6483C144.186 18.2173 143.972 18.7623 143.927 18.8598C143.883 18.9573 143.799 19.17 143.741 19.3324C143.683 19.4951 143.598 19.7117 143.552 19.8142C143.507 19.9166 143.469 20.0163 143.469 20.0358C143.469 20.1127 147.147 20.0744 147.149 19.9971C147.15 19.9567 147.204 19.817 147.268 19.6869C147.332 19.5571 147.385 19.4057 147.386 19.3508C147.387 19.2958 147.413 19.2356 147.444 19.2171C147.475 19.1987 147.518 19.1023 147.54 19.003C147.562 18.9034 147.618 18.7509 147.665 18.6637C147.711 18.5765 147.749 18.463 147.75 18.4116C147.75 18.3602 147.77 18.2982 147.795 18.2741C147.82 18.25 147.911 18.0394 147.998 17.8064L148.157 17.3824L149.05 17.3661L149.942 17.3498L150.119 17.5434C150.216 17.6501 150.505 17.9631 150.761 18.2393C151.018 18.5155 151.333 18.8587 151.463 19.0019C151.593 19.1448 151.818 19.3841 151.962 19.5337C152.107 19.683 152.266 19.8649 152.316 19.9383L152.406 20.0712H154.299C155.44 20.0712 156.191 20.0489 156.191 20.0155C156.191 19.9617 155.758 19.4905 155.024 18.7456C154.83 18.5485 154.454 18.1542 154.188 17.8699L153.706 17.353H155.121H156.537L156.824 16.5996C156.982 16.1852 157.158 15.7399 157.216 15.6097C157.274 15.48 157.477 14.9613 157.668 14.4575C157.859 13.9537 158.063 13.4354 158.121 13.3053C158.24 13.0383 158.844 11.4574 158.844 11.4135C158.844 11.3979 152.647 11.3851 145.072 11.3851H131.3L131.227 11.6067ZM160.034 11.4199C160.015 11.439 160.166 11.6049 160.37 11.7889C160.574 11.9729 160.906 12.2768 161.109 12.4636L161.478 12.804L166.502 12.7887L171.526 12.7735L171.683 12.3303C171.77 12.0867 171.857 11.8605 171.877 11.8283C171.897 11.7957 171.932 11.6826 171.955 11.5769L171.997 11.3851H166.034C162.754 11.3851 160.054 11.4007 160.034 11.4199ZM81.3729 13.3794C81.3287 13.501 81.2455 13.7073 81.1876 13.8371C81.1298 13.9672 80.9261 14.4855 80.7351 14.9893C80.5441 15.4931 80.3408 16.0118 80.2829 16.1415C80.2254 16.2717 80.1295 16.511 80.0698 16.6733C80.0101 16.8361 79.9389 16.9942 79.911 17.025C79.8835 17.0559 79.8607 17.1225 79.8604 17.1729C79.86 17.2232 79.822 17.3356 79.7757 17.4228C79.7291 17.5101 79.673 17.6625 79.6509 17.7621C79.6285 17.8614 79.5851 17.9578 79.5547 17.9763C79.5239 17.9947 79.499 18.055 79.4986 18.1099C79.4983 18.1649 79.4632 18.2762 79.4205 18.3574C79.3774 18.4389 79.2787 18.6779 79.2005 18.8892C79.122 19.1005 79.0352 19.2987 79.0074 19.3295C78.9791 19.3604 78.9563 19.427 78.956 19.4774C78.9556 19.5277 78.9151 19.6451 78.8655 19.7379C78.6753 20.0957 78.2364 20.0712 84.7676 20.0712H90.76L90.8573 19.8702C90.9109 19.7596 90.9547 19.6429 90.9547 19.611C90.9547 19.5791 90.9952 19.4767 91.0447 19.3834C91.0943 19.2905 91.1348 19.1732 91.1352 19.1228C91.1352 19.0725 91.158 19.0058 91.1858 18.975C91.2133 18.9441 91.2846 18.786 91.3443 18.6233C91.4036 18.4609 91.4861 18.2482 91.5277 18.1507C91.5689 18.0532 91.685 17.7536 91.7856 17.4845L91.9683 16.996L91.6576 17.0314C91.4864 17.0509 91.3056 17.08 91.256 17.0963C91.2061 17.1123 90.8671 17.1619 90.5025 17.2069C89.6126 17.3161 89.0171 17.3973 88.5309 17.4753L88.1272 17.5398L88.023 17.8157C87.9658 17.9674 87.9 18.1181 87.8761 18.1507C87.8526 18.1833 87.8143 18.2961 87.7915 18.4017L87.7495 18.5939H85.3728C84.0488 18.5939 82.9961 18.5708 82.9961 18.5421C82.9961 18.4871 83.1267 18.1564 83.271 17.8462C83.3187 17.744 83.3578 17.6228 83.3578 17.5774C83.3578 17.532 83.3806 17.4696 83.4081 17.4388C83.436 17.4079 83.5886 17.0367 83.7471 16.6145C83.9059 16.1919 84.0723 15.7664 84.1168 15.669C84.1616 15.5715 84.3754 15.0265 84.5914 14.4575C84.8074 13.8888 85.0118 13.3772 85.045 13.3209C85.0787 13.2645 85.1062 13.2046 85.1062 13.1879C85.1062 13.1713 84.2843 13.1578 83.2793 13.1578H81.4525L81.3729 13.3794ZM94.9644 14.0884C94.7712 14.6 94.595 15.0457 94.5726 15.0779C94.5498 15.1106 94.4698 15.3098 94.3942 15.5211C94.3186 15.7324 94.2191 15.9891 94.1732 16.0916C94.1273 16.194 94.0896 16.3149 94.0896 16.3603C94.0896 16.4057 94.0672 16.4684 94.0393 16.4993C94.0119 16.5301 93.9406 16.6882 93.8809 16.8506C93.8216 17.0133 93.7391 17.2261 93.6975 17.3236C93.6559 17.4211 93.534 17.7401 93.4265 18.0326C93.3187 18.3251 93.1943 18.6442 93.1498 18.7417C93.0554 18.9488 92.6426 20.0106 92.6426 20.0467C92.6426 20.0606 95.3478 20.0648 98.6543 20.0567L104.666 20.0414L104.795 19.6869C104.866 19.4919 104.956 19.2575 104.994 19.1661C105.032 19.0746 105.063 18.9633 105.063 18.9186C105.063 18.8739 105.09 18.8208 105.123 18.8006C105.449 18.6031 105.266 18.5939 101.023 18.5939C98.7353 18.5939 96.8632 18.579 96.8632 18.5612C96.8632 18.5432 96.9138 18.4166 96.9761 18.2805C97.0379 18.144 97.2449 17.6203 97.4359 17.1165C97.6269 16.6127 97.8305 16.0944 97.8881 15.9643C97.9459 15.8345 98.1492 15.3158 98.3402 14.812C98.5313 14.3082 98.7353 13.7899 98.7932 13.6598C98.8514 13.53 98.9172 13.3638 98.94 13.2907L98.9816 13.1578H97.1483H95.3149L94.9644 14.0884ZM135.85 13.468C135.789 13.6385 135.687 13.8895 135.625 14.026C135.562 14.1622 135.511 14.3136 135.511 14.3621C135.511 14.4107 135.486 14.4657 135.455 14.4845C135.424 14.5029 135.381 14.5993 135.359 14.6986C135.337 14.7979 135.28 14.9507 135.234 15.0379C135.188 15.1247 135.15 15.2375 135.149 15.2878C135.149 15.3382 135.126 15.4048 135.098 15.4357C135.07 15.4665 134.983 15.6643 134.905 15.8756C134.827 16.0869 134.728 16.3263 134.685 16.4074C134.642 16.489 134.607 16.5964 134.607 16.6468C134.607 16.6971 134.583 16.7638 134.556 16.7946C134.528 16.8254 134.375 17.1963 134.216 17.6189C134.057 18.0415 133.88 18.4935 133.822 18.6233C133.704 18.8881 133.28 19.9992 133.28 20.0428C133.28 20.0584 135.299 20.0712 137.767 20.0712H142.254L142.293 19.8946C142.315 19.7975 142.358 19.7028 142.389 19.6841C142.419 19.6656 142.444 19.6139 142.444 19.5692C142.444 19.5245 142.476 19.4132 142.514 19.3217C142.552 19.2299 142.63 19.0289 142.686 18.8747L142.788 18.5939H140.14H137.492L137.532 18.4609C137.555 18.3879 137.611 18.2507 137.657 18.1564C137.704 18.0621 137.741 17.9557 137.742 17.9199C137.742 17.8844 137.78 17.7838 137.826 17.6969C137.873 17.6097 137.929 17.4569 137.951 17.3576C137.974 17.2583 138.017 17.1619 138.048 17.1435C138.078 17.1247 138.103 17.0715 138.103 17.025C138.103 16.9782 138.15 16.8336 138.208 16.7035L138.313 16.4667H140.615H142.917L142.99 16.2451C143.03 16.1231 143.079 15.9969 143.098 15.9643C143.16 15.8608 143.408 15.14 143.409 15.0634C143.409 15.0056 142.918 14.9893 141.154 14.9893H138.899L139.166 14.2951C139.313 13.9133 139.473 13.5169 139.522 13.4145C139.571 13.3124 139.611 13.2124 139.611 13.1929C139.611 13.1737 138.789 13.1578 137.786 13.1578H135.961L135.85 13.468ZM165.024 13.3347C164.891 13.4304 164.756 13.5304 164.722 13.5566C164.689 13.5829 164.554 13.6694 164.421 13.7481C164.288 13.8271 164.149 13.9193 164.112 13.953C164.074 13.987 163.993 14.048 163.931 14.0888C163.869 14.1296 163.628 14.2905 163.396 14.4465C163.164 14.6025 162.594 14.9804 162.13 15.2868C161.665 15.5927 161.272 15.8576 161.256 15.8749C161.239 15.8927 161.063 16.0129 160.864 16.1426C160.665 16.272 160.488 16.3922 160.472 16.4092C160.455 16.4262 160.062 16.6907 159.598 16.997C159.133 17.3034 158.55 17.688 158.301 17.8522C158.053 18.0163 157.819 18.1773 157.782 18.2099C157.744 18.2422 157.652 18.3088 157.578 18.3574C157.231 18.5857 157.165 18.6722 157.008 19.1083C156.917 19.3614 156.804 19.6525 156.757 19.755C156.711 19.8574 156.673 19.9705 156.673 20.0063C156.673 20.0528 158.353 20.0712 162.673 20.0712C166.992 20.0712 168.672 20.0528 168.672 20.0063C168.672 19.9705 168.711 19.8574 168.759 19.755C168.843 19.5777 169.214 18.6439 169.214 18.6098C169.214 18.601 167.803 18.5939 166.079 18.5939C164.355 18.5939 162.945 18.574 162.946 18.5495C162.948 18.5251 163.158 18.3712 163.414 18.2074C164.145 17.7387 165.563 16.7985 165.597 16.7606C165.613 16.7418 165.735 16.6624 165.868 16.584C166.001 16.5057 166.14 16.4138 166.177 16.3801C166.214 16.3465 166.296 16.2855 166.358 16.2447C166.42 16.2036 166.661 16.043 166.893 15.887C167.125 15.7314 167.695 15.3538 168.159 15.0482C168.623 14.7426 169.017 14.4767 169.033 14.4572C169.05 14.4377 169.172 14.3579 169.305 14.2795C169.437 14.2012 169.579 14.1094 169.619 14.0757C169.785 13.9367 169.858 13.886 170.089 13.7499C170.221 13.6712 170.343 13.5924 170.36 13.5744C170.376 13.5563 170.505 13.4648 170.646 13.3712C170.787 13.2773 170.902 13.1911 170.902 13.1791C170.902 13.1674 169.634 13.1585 168.084 13.1592L165.265 13.161L165.024 13.3347Z" fill="#14181D"/>
</svg>
