<svg width="20" height="20" viewBox="0 0 20 20" fill="none" xmlns="http://www.w3.org/2000/svg">
<path d="M15.5557 8.40887e-05C15.1875 8.40887e-05 14.889 0.298627 14.889 0.666781C14.889 1.03492 15.1875 1.33348 15.5557 1.33348H17.7224L14.8682 4.18764C13.8076 3.24381 12.4155 2.66671 10.8889 2.66671C10.0191 2.66671 9.1917 2.85241 8.44441 3.18754C7.69727 2.85241 6.86983 2.66671 5.99992 2.66671C2.69421 2.66671 0 5.36092 0 8.66663C0 11.7466 2.34017 14.2979 5.33326 14.6316V16.2218H3.55547C3.18732 16.2218 2.88877 16.5202 2.88877 16.8885C2.88877 17.2567 3.18731 17.5552 3.55547 17.5552H5.33326V19.333C5.33326 19.7012 5.6318 19.9997 5.99996 19.9997C6.3681 19.9997 6.66665 19.7012 6.66665 19.333V17.5552H8.44445C8.81259 17.5552 9.11114 17.2567 9.11114 16.8885C9.11114 16.5204 8.8126 16.2218 8.44445 16.2218H6.66665V14.6316C7.29244 14.5619 7.8912 14.3937 8.44445 14.1455C9.19158 14.4806 10.019 14.6663 10.8889 14.6663C14.1946 14.6663 16.8889 11.9721 16.8889 8.66643C16.8889 7.36498 16.4719 6.15825 15.7638 5.1735L18.6666 2.27085L18.6596 4.43756L19.993 4.44454L20 0.666693C20 0.48983 19.9298 0.320249 19.8047 0.195311C19.6798 0.0702212 19.5102 0 19.3333 0L15.5557 8.40887e-05ZM19.9929 4.44447H18.6665C18.6665 4.81261 18.965 5.11116 19.3332 5.11116C19.7013 5.11116 19.9999 4.81262 19.9999 4.44447H19.9929ZM6.00023 4.00007C6.34373 4.00007 6.67824 4.04146 7.00018 4.11121C5.7119 5.21302 4.88914 6.84462 4.88914 8.6667C4.88914 10.4888 5.7119 12.1204 7.00018 13.2222C6.67823 13.2919 6.34372 13.3333 6.00023 13.3333C3.41503 13.3333 1.33363 11.2519 1.33363 8.66673C1.33363 6.08153 3.41507 4.00013 6.00023 4.00013V4.00007ZM10.8891 4.00007C13.4743 4.00007 15.5557 6.08151 15.5557 8.66667C15.5557 11.2519 13.4742 13.3333 10.8891 13.3333C10.5456 13.3333 10.211 13.2919 9.88911 13.2221C11.1774 12.1203 12.0001 10.4887 12.0001 8.66664C12.0001 6.84452 11.1774 5.21292 9.88911 4.11115C10.2111 4.04139 10.5456 4 10.8891 4V4.00007ZM8.44456 4.6945C9.77717 5.51433 10.6668 6.98086 10.6668 8.66667C10.6668 10.3524 9.77717 11.8189 8.44456 12.6388C7.11196 11.819 6.22237 10.3523 6.22237 8.66667C6.22237 6.98098 7.11196 5.51441 8.44456 4.6945Z" fill="#14181D"/>
</svg>
