<svg width="135" height="45" viewBox="0 0 135 45" fill="none" xmlns="http://www.w3.org/2000/svg">
<path d="M128.801 44.835H6.7705C3.35226 44.835 0.566406 42.0264 0.566406 38.5675V6.2915C0.566406 2.83829 3.34657 0.0239258 6.7705 0.0239258H128.801C132.22 0.0239258 135 2.83253 135 6.2915V38.5732C135 42.0264 132.22 44.835 128.801 44.835ZM6.7705 0.59946C3.6656 0.59946 1.13611 3.15483 1.13611 6.2915V38.5732C1.13611 41.7099 3.6656 44.2653 6.7705 44.2653H128.801C131.906 44.2653 134.436 41.7099 134.436 38.5732V6.2915C134.436 3.15483 131.912 0.59946 128.801 0.59946H6.7705Z" fill="#14181D"/>
<path d="M28.2194 23.3507C28.1852 19.8917 31.028 18.2054 31.1534 18.1248C29.5468 15.7536 27.0572 15.4313 26.1799 15.4083C24.089 15.1838 22.0609 16.6745 20.9955 16.6745C19.9074 16.6745 18.2666 15.4313 16.5006 15.4658C14.2217 15.5004 12.0967 16.8356 10.9288 18.9018C8.51899 23.1147 10.3193 29.3074 12.6266 32.7146C13.7831 34.3837 15.1333 36.2426 16.8993 36.1793C18.6256 36.1045 19.2693 35.0685 21.3601 35.0685C23.4282 35.0685 24.0321 36.1793 25.8323 36.139C27.6839 36.1103 28.8518 34.4642 29.9684 32.7779C31.3072 30.8671 31.8427 28.9851 31.8598 28.8873C31.8085 28.87 28.2536 27.5003 28.2194 23.3507Z" fill="#14181D"/>
<path d="M24.8135 13.1628C25.7422 11.9887 26.3802 10.3887 26.2036 8.77148C24.8591 8.82904 23.1785 9.7096 22.21 10.8607C21.3554 11.8736 20.5863 13.5312 20.7857 15.0908C22.2955 15.206 23.845 14.3196 24.8135 13.1628Z" fill="#14181D"/>
<path d="M53.1881 35.9045H50.7839L49.4622 31.7147H44.8818L43.6227 35.9045H41.2812L45.8275 21.6486H48.6304L53.1881 35.9045ZM49.0691 29.9593L47.8784 26.2356C47.7531 25.8557 47.5138 24.9579 47.1663 23.5536H47.1264C46.984 24.1579 46.7618 25.0557 46.4542 26.2356L45.2806 29.9593H49.0691Z" fill="#14181D"/>
<path d="M64.8714 30.6355C64.8714 32.3851 64.4042 33.7664 63.4699 34.7794C62.6324 35.683 61.5899 36.1319 60.3536 36.1319C59.0148 36.1319 58.052 35.6427 57.4652 34.67H57.4253V40.0858H55.1636V29.0068C55.1636 27.9075 55.1351 26.7794 55.0781 25.6226H57.0664L57.1917 27.2514H57.2373C57.9893 26.0255 59.1344 25.4097 60.6669 25.4097C61.8633 25.4097 62.866 25.8874 63.6693 26.8485C64.4669 27.8096 64.8714 29.0701 64.8714 30.6355ZM62.5641 30.7161C62.5641 29.7147 62.3419 28.8917 61.8918 28.2413C61.4018 27.5679 60.7467 27.2284 59.9263 27.2284C59.368 27.2284 58.861 27.4183 58.4109 27.7866C57.9551 28.1607 57.6589 28.6499 57.5222 29.26C57.4538 29.542 57.4196 29.7722 57.4196 29.9564V31.6715C57.4196 32.4197 57.6475 33.047 58.0976 33.565C58.5533 34.083 59.1401 34.3362 59.8693 34.3362C60.7182 34.3362 61.3848 34.0082 61.8576 33.3463C62.3305 32.6787 62.5641 31.8039 62.5641 30.7161Z" fill="#14181D"/>
<path d="M76.5686 30.6358C76.5686 32.3854 76.1015 33.7667 75.1671 34.7796C74.3297 35.6832 73.2928 36.1321 72.0509 36.1321C70.7121 36.1321 69.7493 35.6429 69.1625 34.6703H69.1226V40.086H66.8608V29.007C66.8608 27.9077 66.8324 26.7797 66.7754 25.6229H68.7637L68.889 27.2516H68.9346C69.6866 26.0257 70.8317 25.4099 72.3642 25.4099C73.5606 25.4099 74.5633 25.8876 75.3665 26.8487C76.1698 27.8099 76.5686 29.0703 76.5686 30.6358ZM74.267 30.7163C74.267 29.7149 74.0448 28.8919 73.5948 28.2415C73.1048 27.5682 72.4497 27.2286 71.6293 27.2286C71.071 27.2286 70.5639 27.4185 70.1139 27.7869C69.6581 28.161 69.3619 28.6502 69.2251 29.2602C69.1511 29.5423 69.1169 29.7725 69.1169 29.9566V31.6717C69.1169 32.4199 69.3448 33.0473 69.7948 33.5652C70.2506 34.0832 70.8374 34.3365 71.5666 34.3365C72.4155 34.3365 73.082 34.0084 73.5549 33.3465C74.0277 32.6789 74.267 31.8041 74.267 30.7163Z" fill="#14181D"/>
<path d="M89.655 31.9023C89.655 33.1167 89.2391 34.1009 88.4016 34.8606C87.4844 35.6951 86.2026 36.1095 84.5618 36.1095C83.0464 36.1095 81.8272 35.816 80.9043 35.2232L81.4284 33.3181C82.4197 33.9224 83.5079 34.2275 84.6985 34.2275C85.5531 34.2275 86.2139 34.0318 86.6868 33.6462C87.1597 33.2548 87.3989 32.7368 87.3989 32.0865C87.3989 31.511 87.2052 31.0218 86.8121 30.6246C86.4247 30.2275 85.7696 29.8592 84.8637 29.5196C82.3912 28.5872 81.1607 27.2232 81.1607 25.4333C81.1607 24.2592 81.5936 23.2981 82.4596 22.5556C83.3255 21.8074 84.4763 21.4333 85.912 21.4333C87.1938 21.4333 88.2649 21.6578 89.1137 22.1125L88.5497 23.9715C87.7522 23.534 86.852 23.3153 85.8493 23.3153C85.0517 23.3153 84.4365 23.511 83.9864 23.9081C83.6104 24.2592 83.4224 24.6909 83.4224 25.1973C83.4224 25.7614 83.6389 26.2276 84.0719 26.5901C84.4479 26.9297 85.1315 27.298 86.1228 27.6894C87.3363 28.1844 88.2307 28.7599 88.8004 29.4218C89.3701 30.0951 89.655 30.9182 89.655 31.9023Z" fill="#14181D"/>
<path d="M97.1304 27.3393H94.6407V32.3292C94.6407 33.5954 95.0794 34.2342 95.9625 34.2342C96.367 34.2342 96.6974 34.1997 96.9651 34.1306L97.0278 35.863C96.5834 36.0299 95.9966 36.1162 95.2731 36.1162C94.3787 36.1162 93.6836 35.84 93.1823 35.2932C92.681 34.7407 92.4303 33.8198 92.4303 32.5191V27.3393H90.9434V25.6242H92.4303V23.7422L94.6521 23.0631V25.6242H97.1418V27.3393H97.1304Z" fill="#14181D"/>
<path d="M108.37 30.6758C108.37 32.2528 107.926 33.5535 107.032 34.5664C106.097 35.6081 104.85 36.1319 103.306 36.1319C101.813 36.1319 100.622 35.6312 99.7337 34.6297C98.8449 33.6283 98.4062 32.3679 98.4062 30.8485C98.4062 29.2542 98.862 27.9478 99.7792 26.9348C100.691 25.9161 101.921 25.4097 103.471 25.4097C104.964 25.4097 106.166 25.9104 107.071 26.9118C107.937 27.8902 108.37 29.1391 108.37 30.6758ZM106.023 30.7506C106.023 29.801 105.824 28.9895 105.414 28.3104C104.941 27.4931 104.263 27.0787 103.385 27.0787C102.474 27.0787 101.785 27.4873 101.312 28.3104C100.907 28.9895 100.708 29.8183 100.708 30.7909C100.708 31.7406 100.907 32.5521 101.312 33.2254C101.802 34.0427 102.485 34.4571 103.363 34.4571C104.223 34.4571 104.901 34.0427 105.391 33.2082C105.812 32.5175 106.023 31.7003 106.023 30.7506Z" fill="#14181D"/>
<path d="M115.714 27.6326C115.492 27.5923 115.252 27.5692 115.002 27.5692C114.21 27.5692 113.589 27.8743 113.156 28.4786C112.78 29.0138 112.592 29.693 112.592 30.5102V35.903H110.33L110.347 28.8642C110.347 27.6786 110.319 26.6024 110.262 25.6297H112.227L112.313 27.598H112.375C112.615 26.9189 112.991 26.3779 113.509 25.9693C114.01 25.6009 114.557 25.4167 115.144 25.4167C115.349 25.4167 115.543 25.434 115.708 25.457V27.6326H115.714Z" fill="#14181D"/>
<path d="M125.826 30.2734C125.826 30.682 125.798 31.0273 125.747 31.3093H118.967C118.99 32.3223 119.32 33.0993 119.947 33.6345C120.517 34.1122 121.257 34.3482 122.169 34.3482C123.172 34.3482 124.089 34.187 124.909 33.8647L125.262 35.4532C124.3 35.8733 123.166 36.0863 121.85 36.0863C120.272 36.0863 119.035 35.6143 118.135 34.6762C117.235 33.7381 116.785 32.4777 116.785 30.9007C116.785 29.3525 117.201 28.0576 118.044 27.0274C118.922 25.9281 120.107 25.3813 121.599 25.3813C123.063 25.3813 124.174 25.9281 124.932 27.0274C125.524 27.9137 125.826 28.9899 125.826 30.2734ZM123.667 29.6806C123.684 29.0072 123.536 28.4202 123.229 27.9252C122.835 27.2921 122.237 26.9756 121.428 26.9756C120.688 26.9756 120.089 27.2864 119.628 27.9079C119.252 28.4029 119.03 28.9899 118.961 29.6806H123.667Z" fill="#14181D"/>
<path d="M47.7947 16.7098H47.225L46.3306 14.4595H42.9466L42.0521 16.7098H41.4824L44.3196 9.54443H44.9519L47.7947 16.7098ZM43.1403 13.9645H46.1369L44.6329 10.0739L43.1403 13.9645Z" fill="#14181D"/>
<path d="M51.6621 11.2808H52.2318L49.9872 16.7081H49.4517L47.207 11.2808H47.8109L49.7365 16.144L51.6621 11.2808Z" fill="#14181D"/>
<path d="M55.8802 13.1344C55.8802 12.6625 55.7548 12.2999 55.5042 12.0409C55.2535 11.7819 54.8946 11.6496 54.4274 11.6496C54.0172 11.6496 53.6697 11.7359 53.3735 11.9143C53.0772 12.0927 52.8607 12.3863 52.7183 12.8006L52.2796 12.5186C52.4391 12.0927 52.7012 11.7589 53.0715 11.523C53.4418 11.287 53.8976 11.1719 54.4445 11.1719C54.8376 11.1719 55.1851 11.2409 55.4814 11.3848C55.7776 11.5287 56.0112 11.7359 56.1764 12.0064C56.3416 12.2827 56.4214 12.628 56.4214 13.0366V15.7531C56.4214 16.1387 56.5923 16.3287 56.9398 16.3287C57.0879 16.3287 57.219 16.3056 57.3272 16.2538L57.293 16.6855C57.1734 16.7488 57.0139 16.7833 56.8202 16.7833C56.655 16.7833 56.5011 16.7488 56.3587 16.6855C56.2163 16.6222 56.0967 16.5128 56.0112 16.3574C55.92 16.2078 55.8745 16.0006 55.8745 15.7359V15.4423L56.0226 15.4308C55.9599 15.7416 55.8175 16.0006 55.5953 16.2078C55.3788 16.415 55.1225 16.5646 54.8376 16.6625C54.5527 16.7603 54.2622 16.8121 53.9773 16.8121C53.6412 16.8121 53.3393 16.7603 53.0772 16.651C52.8095 16.5416 52.6044 16.3862 52.4505 16.179C52.3024 15.9718 52.2227 15.7186 52.2227 15.4136C52.2227 15.0107 52.3594 14.6826 52.6272 14.4294C52.8949 14.1762 53.2709 14.0093 53.7609 13.9114L55.9884 13.4683V13.9229L54.0343 14.3143C53.6127 14.4006 53.2937 14.5272 53.0886 14.6941C52.8835 14.8611 52.7753 15.0913 52.7753 15.379C52.7753 15.6783 52.8835 15.9085 53.1114 16.0812C53.3336 16.2538 53.6469 16.3344 54.0571 16.3344C54.2622 16.3344 54.4787 16.3056 54.6895 16.2481C54.906 16.1905 55.1054 16.0985 55.2877 15.9718C55.47 15.8452 55.6181 15.6841 55.7206 15.4941C55.8289 15.3042 55.8802 15.0682 55.8802 14.792V13.1344Z" fill="#14181D"/>
<path d="M58.0495 10.2287C57.9128 10.2287 57.8045 10.1884 57.7191 10.1021C57.6336 10.0215 57.5938 9.90641 57.5938 9.76829C57.5938 9.63016 57.6336 9.52081 57.7191 9.43448C57.7988 9.3539 57.9128 9.30786 58.0495 9.30786C58.1862 9.30786 58.2945 9.34815 58.3799 9.43448C58.4654 9.52081 58.5053 9.63016 58.5053 9.76829C58.5053 9.90641 58.4654 10.0158 58.3799 10.1021C58.2945 10.1827 58.1862 10.2287 58.0495 10.2287ZM58.3173 11.2819V16.7092H57.7818V11.2819H58.3173Z" fill="#14181D"/>
<path d="M60.0842 8.78271V15.4301C60.0842 15.7639 60.1412 15.9999 60.2551 16.138C60.369 16.2762 60.5513 16.3452 60.7906 16.3452C60.9387 16.3452 61.0641 16.3337 61.1495 16.3107C61.2407 16.2877 61.3432 16.2532 61.4686 16.2014L61.3945 16.679C61.3034 16.7193 61.1951 16.7596 61.0755 16.7826C60.9558 16.8057 60.8248 16.8229 60.6824 16.8229C60.3007 16.8229 60.0158 16.7136 59.8278 16.4891C59.6398 16.2704 59.543 15.9251 59.543 15.4532V8.78271H60.0842Z" fill="#14181D"/>
<path d="M65.177 13.1344C65.177 12.6625 65.0517 12.2999 64.801 12.0409C64.5504 11.7819 64.1914 11.6496 63.7243 11.6496C63.3141 11.6496 62.9666 11.7359 62.6703 11.9143C62.3741 12.0927 62.1576 12.3863 62.0152 12.8006L61.5765 12.5186C61.736 12.0927 61.9981 11.7589 62.3684 11.523C62.7387 11.287 63.1945 11.1719 63.7414 11.1719C64.1345 11.1719 64.482 11.2409 64.7782 11.3848C65.0745 11.5287 65.3081 11.7359 65.4733 12.0064C65.6385 12.2827 65.7183 12.628 65.7183 13.0366V15.7531C65.7183 16.1387 65.8892 16.3287 66.2367 16.3287C66.3848 16.3287 66.5158 16.3056 66.6241 16.2538L66.5899 16.6855C66.4703 16.7488 66.3107 16.7833 66.117 16.7833C65.9518 16.7833 65.798 16.7488 65.6556 16.6855C65.5132 16.6222 65.3935 16.5128 65.3081 16.3574C65.2169 16.2078 65.1713 16.0006 65.1713 15.7359V15.4423L65.3195 15.4308C65.2568 15.7416 65.1144 16.0006 64.8922 16.2078C64.6757 16.415 64.4193 16.5646 64.1345 16.6625C63.8496 16.7603 63.5591 16.8121 63.2742 16.8121C62.9381 16.8121 62.6362 16.7603 62.3741 16.651C62.1063 16.5416 61.9012 16.3862 61.7474 16.179C61.5993 15.9718 61.5195 15.7186 61.5195 15.4136C61.5195 15.0107 61.6563 14.6826 61.924 14.4294C62.1918 14.1762 62.5678 14.0093 63.0577 13.9114L65.2853 13.4683V13.9229L63.3312 14.3143C62.9096 14.4006 62.5906 14.5272 62.3855 14.6941C62.1747 14.8611 62.0721 15.0913 62.0721 15.379C62.0721 15.6783 62.1804 15.9085 62.4026 16.0812C62.6248 16.2538 62.9381 16.3344 63.3483 16.3344C63.5534 16.3344 63.7699 16.3056 63.9807 16.2481C64.1971 16.1905 64.3965 16.0985 64.5788 15.9718C64.7612 15.8452 64.9093 15.6841 65.0118 15.4941C65.1201 15.3042 65.1713 15.0682 65.1713 14.792V13.1344H65.177Z" fill="#14181D"/>
<path d="M69.6079 16.8172C69.2775 16.8172 68.9699 16.7539 68.6907 16.633C68.4059 16.5121 68.1666 16.3337 67.9729 16.1035C67.7735 15.8733 67.6311 15.6028 67.5399 15.292L67.614 15.2057L67.5741 16.7136H67.0898V8.78271H67.6254V12.7366L67.5627 12.6388C67.7051 12.1899 67.9615 11.833 68.3318 11.5683C68.7021 11.3036 69.1294 11.1712 69.6193 11.1712C70.0922 11.1712 70.5138 11.2805 70.8784 11.505C71.243 11.7295 71.5335 12.0518 71.75 12.4719C71.9665 12.892 72.0748 13.3985 72.0748 13.9913C72.0748 14.5783 71.9665 15.0848 71.75 15.505C71.5335 15.9309 71.243 16.2532 70.8727 16.4776C70.491 16.7021 70.0694 16.8172 69.6079 16.8172ZM69.5396 16.3395C70.1492 16.3395 70.6334 16.1265 70.9866 15.7121C71.3398 15.292 71.5164 14.7222 71.5164 13.9971C71.5164 13.2719 71.3398 12.7021 70.9923 12.282C70.6391 11.8618 70.1606 11.6546 69.551 11.6546C69.1807 11.6546 68.8445 11.7525 68.5483 11.9424C68.252 12.1323 68.0242 12.4086 67.8589 12.7654C67.6937 13.1222 67.614 13.5366 67.614 14.0143C67.614 14.492 67.6994 14.9064 67.8589 15.2575C68.0242 15.6086 68.252 15.8791 68.5426 16.069C68.8388 16.2474 69.1693 16.3395 69.5396 16.3395Z" fill="#14181D"/>
<path d="M73.4533 8.78271V15.4301C73.4533 15.7639 73.5103 15.9999 73.6242 16.138C73.7382 16.2762 73.9205 16.3452 74.1598 16.3452C74.3079 16.3452 74.4332 16.3337 74.5187 16.3107C74.6098 16.2877 74.7124 16.2532 74.8377 16.2014L74.7637 16.679C74.6725 16.7193 74.5643 16.7596 74.4446 16.7826C74.325 16.8057 74.1939 16.8229 74.0515 16.8229C73.6698 16.8229 73.385 16.7136 73.197 16.4891C73.009 16.2704 72.9121 15.9251 72.9121 15.4532V8.78271H73.4533Z" fill="#14181D"/>
<path d="M77.4076 16.8165C76.9119 16.8165 76.4733 16.7072 76.0859 16.4827C75.6985 16.2582 75.3965 15.9359 75.18 15.51C74.9636 15.0841 74.8496 14.5834 74.8496 13.9964C74.8496 13.4093 74.9579 12.9029 75.18 12.4827C75.4022 12.0626 75.6928 11.7345 76.0688 11.5101C76.4391 11.2856 76.8664 11.1763 77.3449 11.1763C77.8349 11.1763 78.2508 11.2856 78.5926 11.5043C78.9344 11.723 79.2022 12.0223 79.3902 12.4137C79.5782 12.7993 79.6693 13.2482 79.6693 13.7547C79.6693 13.818 79.6693 13.8813 79.6636 13.9446C79.6579 14.0079 79.6522 14.0597 79.6465 14.1115H75.1857V13.6223H79.4129L79.1452 13.6971C79.1395 13.0755 78.9743 12.5806 78.6552 12.2065C78.3362 11.8381 77.8975 11.654 77.3392 11.654C76.9518 11.654 76.61 11.746 76.3194 11.9302C76.0232 12.1144 75.7953 12.3849 75.6301 12.736C75.4649 13.087 75.3851 13.5072 75.3851 14.0021C75.3851 14.4856 75.4706 14.9057 75.6358 15.2626C75.801 15.6194 76.0403 15.8899 76.3422 16.0741C76.6442 16.2582 76.9974 16.3503 77.4019 16.3503C77.8178 16.3503 78.1767 16.2582 78.4729 16.0798C78.7692 15.9014 79.0028 15.6482 79.168 15.3316L79.6009 15.5791C79.4699 15.8381 79.299 16.0626 79.0825 16.2467C78.866 16.4309 78.6211 16.5748 78.3419 16.6726C78.0571 16.7647 77.7437 16.8165 77.4076 16.8165Z" fill="#14181D"/>
<path d="M85.4699 11.1719C85.9713 11.1719 86.4156 11.2812 86.7973 11.5057C87.179 11.7301 87.481 12.0524 87.6975 12.4783C87.914 12.9042 88.0279 13.4049 88.0279 13.992C88.0279 14.579 87.9197 15.0855 87.6975 15.5056C87.4753 15.9258 87.179 16.2538 86.7973 16.4783C86.4156 16.7028 85.9713 16.8121 85.4699 16.8121C84.9686 16.8121 84.5242 16.7028 84.1425 16.4783C83.7608 16.2538 83.4589 15.9315 83.2367 15.5056C83.0145 15.0798 82.9062 14.579 82.9062 13.992C82.9062 13.4049 83.0145 12.8985 83.2367 12.4783C83.4589 12.0582 83.7551 11.7301 84.1425 11.5057C84.5299 11.2812 84.9686 11.1719 85.4699 11.1719ZM85.4699 11.6381C85.0597 11.6381 84.7065 11.7301 84.4046 11.9201C84.1026 12.11 83.8691 12.3805 83.6981 12.7316C83.5272 13.0826 83.4475 13.5028 83.4475 13.9978C83.4475 14.4812 83.5329 14.9013 83.6981 15.2582C83.8634 15.615 84.1026 15.8855 84.4046 16.0754C84.7065 16.2654 85.0597 16.3574 85.4699 16.3574C85.8801 16.3574 86.2333 16.2654 86.5353 16.0754C86.8372 15.8855 87.0708 15.615 87.2417 15.2582C87.4069 14.9013 87.4924 14.4812 87.4924 13.9978C87.4924 13.5028 87.4069 13.0826 87.2417 12.7316C87.0708 12.3805 86.8372 12.11 86.5353 11.9201C86.2333 11.7301 85.8801 11.6381 85.4699 11.6381Z" fill="#14181D"/>
<path d="M88.9219 16.7074V11.2801H89.4061L89.446 12.6384L89.3606 12.5635C89.4631 12.2643 89.6112 12.0168 89.8106 11.8096C90.01 11.6024 90.2493 11.447 90.5284 11.3377C90.8076 11.2283 91.1095 11.1765 91.4286 11.1765C91.8274 11.1765 92.1863 11.2513 92.4939 11.4067C92.8016 11.5564 93.0465 11.7808 93.2174 12.0801C93.3941 12.3794 93.4795 12.7477 93.4795 13.1966V16.7132H92.944V13.3693C92.944 12.7765 92.7959 12.3391 92.5053 12.0628C92.2148 11.7866 91.8388 11.6485 91.3716 11.6485C91.0355 11.6485 90.7221 11.729 90.4316 11.8787C90.141 12.0341 89.9075 12.2585 89.7252 12.5578C89.5429 12.8571 89.4517 13.2139 89.4517 13.6456V16.7074H88.9219Z" fill="#14181D"/>
<path d="M100.112 11.2807V11.7469H96.4883V11.2807H100.112ZM98.1005 9.76709V15.275C98.1005 15.6145 98.1803 15.8735 98.3398 16.0519C98.4993 16.2303 98.7386 16.3167 99.0463 16.3167C99.2456 16.3167 99.4223 16.2821 99.5761 16.2131C99.7299 16.144 99.8666 16.0462 99.992 15.9138L100.197 16.357C100.06 16.4951 99.8894 16.6044 99.6786 16.6908C99.4678 16.7713 99.24 16.8174 98.9779 16.8174C98.6987 16.8174 98.4538 16.7656 98.2373 16.662C98.0208 16.5584 97.8556 16.3972 97.7359 16.1785C97.6163 15.9598 97.5593 15.6836 97.5593 15.3555V9.92824L98.1005 9.76709Z" fill="#14181D"/>
<path d="M100.617 16.7078V8.78271H101.153V12.3856C101.312 12 101.563 11.7007 101.916 11.4877C102.269 11.2748 102.674 11.1654 103.13 11.1654C103.528 11.1654 103.887 11.2402 104.195 11.3899C104.503 11.5395 104.748 11.764 104.918 12.0633C105.095 12.3625 105.181 12.7366 105.181 13.174V16.7021H104.645V13.3467C104.645 12.7597 104.497 12.328 104.206 12.0517C103.916 11.7755 103.54 11.6316 103.073 11.6316C102.736 11.6316 102.423 11.7122 102.133 11.8733C101.842 12.0345 101.608 12.2589 101.426 12.5582C101.244 12.8575 101.153 13.2143 101.153 13.646V16.7078H100.617Z" fill="#14181D"/>
<path d="M108.593 16.8167C108.098 16.8167 107.659 16.7074 107.271 16.4829C106.884 16.2585 106.582 15.9362 106.366 15.5103C106.149 15.0844 106.035 14.5837 106.035 13.9966C106.035 13.4096 106.143 12.9031 106.366 12.483C106.588 12.0628 106.878 11.7348 107.254 11.5103C107.625 11.2859 108.052 11.1765 108.53 11.1765C109.02 11.1765 109.436 11.2859 109.778 11.5046C110.12 11.7233 110.388 12.0226 110.576 12.4139C110.764 12.7995 110.855 13.2484 110.855 13.7549C110.855 13.8182 110.855 13.8815 110.849 13.9448C110.843 14.0081 110.838 14.0599 110.832 14.1117H106.371V13.6225H110.599L110.331 13.6974C110.325 13.0758 110.16 12.5808 109.841 12.2067C109.522 11.8384 109.083 11.6542 108.525 11.6542C108.137 11.6542 107.796 11.7463 107.505 11.9305C107.209 12.1146 106.981 12.3851 106.816 12.7362C106.65 13.0873 106.571 13.5074 106.571 14.0024C106.571 14.4858 106.656 14.906 106.821 15.2628C106.987 15.6196 107.226 15.8901 107.528 16.0743C107.83 16.2585 108.183 16.3506 108.587 16.3506C109.003 16.3506 109.362 16.2585 109.658 16.0801C109.955 15.9016 110.188 15.6484 110.354 15.3319L110.786 15.5794C110.655 15.8383 110.485 16.0628 110.268 16.247C110.052 16.4311 109.807 16.575 109.527 16.6729C109.237 16.765 108.929 16.8167 108.593 16.8167Z" fill="#14181D"/>
</svg>
