<svg width="135" height="45" viewBox="0 0 135 45" fill="none" xmlns="http://www.w3.org/2000/svg">
<path d="M128.235 44.835H6.20409C2.78586 44.835 0 42.0264 0 38.5675V6.2915C0 2.83829 2.78016 0.0239258 6.20409 0.0239258H128.235C131.653 0.0239258 134.433 2.83253 134.433 6.2915V38.5732C134.433 42.0264 131.653 44.835 128.235 44.835ZM6.20409 0.59946C3.0992 0.59946 0.569705 3.15483 0.569705 6.2915V38.5732C0.569705 41.7099 3.0992 44.2653 6.20409 44.2653H128.235C131.34 44.2653 133.869 41.7099 133.869 38.5732V6.2915C133.869 3.15483 131.346 0.59946 128.235 0.59946H6.20409Z" fill="#14181D"/>
<path d="M21.6894 23.6833L9.41797 35.9882V11.3899L21.6894 23.6833Z" fill="#14181D"/>
<path d="M25.0785 20.3023L21.9736 23.3987L10.2148 11.629L25.0785 20.3023Z" fill="#14181D"/>
<path d="M25.0806 27.0787L10.2227 35.7462L21.9757 23.9766L25.0065 27.0039L25.0806 27.0787Z" fill="#14181D"/>
<path d="M30.8945 23.6869L25.4311 26.8696L22.2578 23.6869L25.4311 20.5042L30.8945 23.6869Z" fill="#14181D"/>
<path d="M66.3709 23.8577C64.1434 23.8577 62.326 25.5671 62.326 27.9268C62.326 30.2692 64.1434 31.9958 66.3709 31.9958C68.5985 31.9958 70.4158 30.2692 70.4158 27.9268C70.4158 25.5671 68.5985 23.8577 66.3709 23.8577ZM66.3709 30.3958C65.1518 30.3958 64.0978 29.3771 64.0978 27.9325C64.0978 26.4707 65.1518 25.4692 66.3709 25.4692C67.5901 25.4692 68.6441 26.4707 68.6441 27.9325C68.6441 29.3771 67.5901 30.3958 66.3709 30.3958ZM57.5519 23.8577C55.3244 23.8577 53.507 25.5671 53.507 27.9268C53.507 30.2692 55.3244 31.9958 57.5519 31.9958C59.7795 31.9958 61.5968 30.2692 61.5968 27.9268C61.5968 25.5671 59.7795 23.8577 57.5519 23.8577ZM57.5519 30.3958C56.3327 30.3958 55.2788 29.3771 55.2788 27.9325C55.2788 26.4707 56.3327 25.4692 57.5519 25.4692C58.7711 25.4692 59.825 26.4707 59.825 27.9325C59.825 29.3771 58.7711 30.3958 57.5519 30.3958ZM47.0636 25.1066V26.8332H51.1541C51.0345 27.8059 50.7097 28.5138 50.2255 29.0088C49.633 29.6073 48.6987 30.2749 47.0693 30.2749C44.5512 30.2749 42.5858 28.226 42.5858 25.6822C42.5858 23.1383 44.5512 21.0894 47.0693 21.0894C48.4252 21.0894 49.4165 21.6304 50.1514 22.3211L51.3592 21.1009C50.3394 20.1168 48.9778 19.3571 47.075 19.3571C43.6283 19.3571 40.7285 22.1944 40.7285 25.6764C40.7285 29.1584 43.6283 31.9958 47.075 31.9958C48.938 31.9958 50.3394 31.38 51.439 30.2231C52.567 29.0836 52.9202 27.4778 52.9202 26.1829C52.9202 25.78 52.8917 25.4117 52.829 25.1066H47.0636ZM89.9681 26.4476C89.632 25.5383 88.6122 23.8577 86.5214 23.8577C84.4477 23.8577 82.7215 25.5095 82.7215 27.9268C82.7215 30.2059 84.4306 31.9958 86.7208 31.9958C88.5667 31.9958 89.632 30.8562 90.0764 30.1944L88.7034 29.2678C88.2476 29.9469 87.6209 30.39 86.7208 30.39C85.8207 30.39 85.1826 29.9757 84.7667 29.1584L90.1504 26.9081L89.9681 26.4476ZM84.4762 27.8059C84.4306 26.2347 85.6839 25.4347 86.5841 25.4347C87.2848 25.4347 87.883 25.7915 88.0767 26.298L84.4762 27.8059ZM80.0951 31.7483H81.8669V19.7887H80.0951V31.7483ZM77.1953 24.7671H77.1327C76.7339 24.2894 75.9705 23.8577 75.0134 23.8577C73.0023 23.8577 71.1565 25.6476 71.1565 27.944C71.1565 30.2231 73.0023 31.9958 75.0134 31.9958C75.9762 31.9958 76.7396 31.5641 77.1327 31.0692H77.1953V31.6562C77.1953 33.2102 76.3693 34.0447 75.0419 34.0447C73.9594 34.0447 73.2872 33.2562 73.0137 32.5943L71.4755 33.2389C71.9199 34.3152 73.0935 35.6447 75.0475 35.6447C77.1213 35.6447 78.876 34.413 78.876 31.4087V24.1052H77.1953V24.7671ZM75.1672 30.3958C73.948 30.3958 72.9226 29.3656 72.9226 27.944C72.9226 26.5109 73.9423 25.4635 75.1672 25.4635C76.375 25.4635 77.3207 26.5109 77.3207 27.944C77.3207 29.3598 76.375 30.3958 75.1672 30.3958ZM98.2573 19.7887H94.0244V31.7483H95.7905V27.2188H98.2573C100.217 27.2188 102.143 25.7858 102.143 23.5067C102.137 21.2218 100.211 19.7887 98.2573 19.7887ZM98.3029 25.5556H95.7905V21.4578H98.3029C99.6246 21.4578 100.377 22.5628 100.377 23.5067C100.371 24.4333 99.6246 25.5556 98.3029 25.5556ZM109.218 23.8347C107.937 23.8347 106.615 24.4045 106.068 25.6649L107.635 26.3268C107.971 25.6649 108.592 25.452 109.247 25.452C110.158 25.452 111.087 26.0045 111.104 26.9886V27.1095C110.785 26.9253 110.102 26.6491 109.264 26.6491C107.572 26.6491 105.852 27.5872 105.852 29.3426C105.852 30.9426 107.236 31.9728 108.791 31.9728C109.982 31.9728 110.631 31.4318 111.047 30.8044H111.11V31.7253H112.813V27.1383C112.813 25.0203 111.247 23.8347 109.218 23.8347ZM109.008 30.39C108.427 30.39 107.623 30.0965 107.623 29.3771C107.623 28.4562 108.626 28.0994 109.498 28.0994C110.272 28.0994 110.637 28.2663 111.11 28.5023C110.973 29.6073 110.027 30.39 109.008 30.39ZM119.029 24.0995L117.001 29.285H116.938L114.836 24.0995H112.933L116.083 31.3454L114.289 35.3742H116.129L120.989 24.0937H119.029V24.0995ZM103.111 31.7483H104.877V19.7887H103.111V31.7483Z" fill="#14181D"/>
<path d="M47.2283 14.3495H46.6586L45.7642 12.0992H42.3802L41.4857 14.3495H40.916L43.7531 7.18408H44.3855L47.2283 14.3495ZM42.5739 11.6042H45.5705L44.0665 7.71357L42.5739 11.6042Z" fill="#14181D"/>
<path d="M51.0957 8.91797H51.6654L49.4208 14.3453H48.8853L46.6406 8.91797H47.2445L49.1701 13.7812L51.0957 8.91797Z" fill="#14181D"/>
<path d="M55.3138 10.7812C55.3138 10.3092 55.1884 9.94666 54.9378 9.68767C54.6871 9.42868 54.3282 9.2963 53.861 9.2963C53.4508 9.2963 53.1033 9.38263 52.8071 9.56105C52.5108 9.73946 52.2943 10.033 52.1519 10.4474L51.7132 10.1654C51.8727 9.73947 52.1348 9.40565 52.5051 9.16968C52.8754 8.93371 53.3312 8.8186 53.8781 8.8186C54.2712 8.8186 54.6187 8.88767 54.915 9.03156C55.2112 9.17544 55.4448 9.38263 55.61 9.65314C55.7752 9.92939 55.855 10.2747 55.855 10.6833V13.3999C55.855 13.7855 56.0259 13.9754 56.3734 13.9754C56.5215 13.9754 56.6526 13.9524 56.7608 13.9006L56.7266 14.3322C56.607 14.3955 56.4475 14.4301 56.2538 14.4301C56.0886 14.4301 55.9347 14.3955 55.7923 14.3322C55.6499 14.2689 55.5303 14.1596 55.4448 14.0042C55.3536 13.8545 55.3081 13.6473 55.3081 13.3826V13.0891L55.4562 13.0776C55.3935 13.3884 55.2511 13.6473 55.0289 13.8545C54.8124 14.0617 54.556 14.2114 54.2712 14.3092C53.9863 14.407 53.6958 14.4588 53.4109 14.4588C53.0748 14.4588 52.7729 14.407 52.5108 14.2977C52.243 14.1883 52.038 14.033 51.8841 13.8258C51.736 13.6186 51.6562 13.3653 51.6562 13.0603C51.6562 12.6574 51.793 12.3294 52.0607 12.0761C52.3285 11.8229 52.7045 11.656 53.1945 11.5582L55.422 11.115V11.5697L53.4679 11.961C53.0463 12.0474 52.7273 12.174 52.5222 12.3409C52.3171 12.5078 52.2089 12.738 52.2089 13.0258C52.2089 13.325 52.3171 13.5553 52.545 13.7279C52.7672 13.9006 53.0805 13.9811 53.4907 13.9811C53.6958 13.9811 53.9123 13.9524 54.1231 13.8948C54.3396 13.8373 54.539 13.7452 54.7213 13.6186C54.9036 13.492 55.0517 13.3308 55.1542 13.1409C55.2625 12.9509 55.3138 12.715 55.3138 12.4387V10.7812Z" fill="#14181D"/>
<path d="M57.4831 7.86837C57.3464 7.86837 57.2381 7.82808 57.1527 7.74175C57.0672 7.66118 57.0273 7.54607 57.0273 7.40794C57.0273 7.26981 57.0672 7.16046 57.1527 7.07413C57.2324 6.99355 57.3464 6.94751 57.4831 6.94751C57.6198 6.94751 57.7281 6.9878 57.8135 7.07413C57.899 7.16046 57.9389 7.26981 57.9389 7.40794C57.9389 7.54607 57.899 7.65542 57.8135 7.74175C57.7281 7.82808 57.6198 7.86837 57.4831 7.86837ZM57.7509 8.9216V14.3489H57.2153V8.9216H57.7509Z" fill="#14181D"/>
<path d="M59.5178 6.42236V13.0698C59.5178 13.4036 59.5748 13.6396 59.6887 13.7777C59.8026 13.9158 59.9849 13.9849 60.2242 13.9849C60.3723 13.9849 60.4977 13.9734 60.5831 13.9504C60.6743 13.9273 60.7768 13.8928 60.9022 13.841L60.8281 14.3187C60.737 14.359 60.6287 14.3993 60.5091 14.4223C60.3894 14.4453 60.2584 14.4626 60.116 14.4626C59.7343 14.4626 59.4494 14.3532 59.2614 14.1288C59.0734 13.9101 58.9766 13.5647 58.9766 13.0928V6.42236H59.5178Z" fill="#14181D"/>
<path d="M64.6106 10.7812C64.6106 10.3092 64.4853 9.94666 64.2346 9.68767C63.984 9.42868 63.625 9.2963 63.1579 9.2963C62.7477 9.2963 62.4002 9.38263 62.1039 9.56105C61.8077 9.73946 61.5912 10.033 61.4488 10.4474L61.0101 10.1654C61.1696 9.73947 61.4317 9.40565 61.802 9.16968C62.1723 8.93371 62.6281 8.8186 63.175 8.8186C63.5681 8.8186 63.9156 8.88767 64.2118 9.03156C64.5081 9.17544 64.7417 9.38263 64.9069 9.65314C65.0721 9.92939 65.1518 10.2747 65.1518 10.6833V13.3999C65.1518 13.7855 65.3228 13.9754 65.6703 13.9754C65.8184 13.9754 65.9494 13.9524 66.0577 13.9006L66.0235 14.3322C65.9039 14.3955 65.7443 14.4301 65.5506 14.4301C65.3854 14.4301 65.2316 14.3955 65.0892 14.3322C64.9468 14.2689 64.8271 14.1596 64.7417 14.0042C64.6505 13.8545 64.6049 13.6473 64.6049 13.3826V13.0891L64.7531 13.0776C64.6904 13.3884 64.548 13.6473 64.3258 13.8545C64.1093 14.0617 63.8529 14.2114 63.5681 14.3092C63.2832 14.407 62.9927 14.4588 62.7078 14.4588C62.3717 14.4588 62.0697 14.407 61.8077 14.2977C61.5399 14.1883 61.3348 14.033 61.181 13.8258C61.0329 13.6186 60.9531 13.3653 60.9531 13.0603C60.9531 12.6574 61.0898 12.3294 61.3576 12.0761C61.6254 11.8229 62.0014 11.656 62.4913 11.5582L64.7189 11.115V11.5697L62.7648 11.961C62.3432 12.0474 62.0242 12.174 61.8191 12.3409C61.6083 12.5078 61.5057 12.738 61.5057 13.0258C61.5057 13.325 61.614 13.5553 61.8362 13.7279C62.0583 13.9006 62.3717 13.9811 62.7819 13.9811C62.987 13.9811 63.2035 13.9524 63.4142 13.8948C63.6307 13.8373 63.8301 13.7452 64.0124 13.6186C64.1947 13.492 64.3429 13.3308 64.4454 13.1409C64.5537 12.9509 64.6049 12.715 64.6049 12.4387V10.7812H64.6106Z" fill="#14181D"/>
<path d="M69.0415 14.4581C68.7111 14.4581 68.4035 14.3948 68.1243 14.274C67.8395 14.1531 67.6002 13.9747 67.4065 13.7445C67.2071 13.5143 67.0647 13.2438 66.9735 12.933L67.0476 12.8466L67.0077 14.3546H66.5234V6.42944H67.059V10.3834L66.9963 10.2855C67.1387 9.8366 67.3951 9.47977 67.7654 9.21503C68.1357 8.95028 68.563 8.81791 69.0529 8.81791C69.5258 8.81791 69.9474 8.92727 70.312 9.15748C70.6766 9.38194 70.9671 9.70423 71.1836 10.1244C71.4001 10.5445 71.5084 11.051 71.5084 11.6438C71.5084 12.2308 71.4001 12.7373 71.1836 13.1574C70.9671 13.5833 70.6766 13.9056 70.3063 14.1301C69.9246 14.3488 69.503 14.4581 69.0415 14.4581ZM68.9732 13.9805C69.5828 13.9805 70.067 13.7675 70.4202 13.3531C70.7734 12.933 70.95 12.3632 70.95 11.638C70.95 10.9129 70.7734 10.3431 70.4259 9.92294C70.0727 9.5028 69.5941 9.2956 68.9846 9.2956C68.6143 9.2956 68.2781 9.39344 67.9819 9.58337C67.6856 9.7733 67.4577 10.0496 67.2925 10.4064C67.1273 10.7632 67.0476 11.1776 67.0476 11.6553C67.0476 12.133 67.133 12.5474 67.2925 12.8985C67.4521 13.2495 67.6856 13.52 67.9762 13.7099C68.2724 13.8884 68.6029 13.9805 68.9732 13.9805Z" fill="#14181D"/>
<path d="M72.8869 6.42236V13.0698C72.8869 13.4036 72.9439 13.6396 73.0578 13.7777C73.1718 13.9158 73.3541 13.9849 73.5934 13.9849C73.7415 13.9849 73.8668 13.9734 73.9523 13.9504C74.0434 13.9273 74.146 13.8928 74.2713 13.841L74.1972 14.3187C74.1061 14.359 73.9978 14.3993 73.8782 14.4223C73.7586 14.4453 73.6275 14.4626 73.4851 14.4626C73.1034 14.4626 72.8186 14.3532 72.6306 14.1288C72.4426 13.9101 72.3457 13.5647 72.3457 13.0928V6.42236H72.8869Z" fill="#14181D"/>
<path d="M76.8412 14.4575C76.3455 14.4575 75.9069 14.3482 75.5195 14.1237C75.1321 13.8992 74.8301 13.577 74.6136 13.1511C74.3971 12.7252 74.2832 12.2244 74.2832 11.6374C74.2832 11.0504 74.3914 10.5439 74.6136 10.1237C74.8301 9.69785 75.1264 9.37555 75.5024 9.15109C75.8727 8.92663 76.3 8.81152 76.7785 8.81152C77.2685 8.81152 77.6843 8.92088 78.0262 9.13958C78.368 9.35829 78.6358 9.65756 78.8238 10.0489C79.0118 10.4345 79.1029 10.8834 79.1029 11.3899C79.1029 11.4532 79.1029 11.5165 79.0972 11.5798C79.0915 11.6432 79.0858 11.695 79.0801 11.7468H74.6193V11.2575H78.8465L78.5788 11.3324C78.5731 10.7108 78.4079 10.2158 78.0888 9.84173C77.7698 9.47339 77.3311 9.28922 76.7728 9.28922C76.3854 9.28922 76.0436 9.3813 75.753 9.56547C75.4568 9.74964 75.2289 10.0201 75.0637 10.3712C74.8985 10.7223 74.8187 11.1424 74.8187 11.6374C74.8187 12.1208 74.9042 12.541 75.0694 12.8978C75.2346 13.2547 75.4739 13.5251 75.7758 13.7093C76.0778 13.8935 76.431 13.9856 76.8355 13.9856C77.2514 13.9856 77.6103 13.8935 77.9065 13.7151C78.2028 13.5367 78.4364 13.2834 78.6016 12.9669L79.0345 13.2144C78.9035 13.4733 78.7326 13.6978 78.5161 13.882C78.2996 14.0662 78.0547 14.21 77.7755 14.3079C77.4906 14.4115 77.1773 14.4575 76.8412 14.4575Z" fill="#14181D"/>
<path d="M84.9035 8.81152C85.4049 8.81152 85.8492 8.92087 86.2309 9.15109C86.6126 9.37555 86.9146 9.69785 87.1311 10.1237C87.3476 10.5496 87.4615 11.0504 87.4615 11.6374C87.4615 12.2244 87.3533 12.7309 87.1311 13.1511C86.9146 13.577 86.6126 13.8992 86.2309 14.1237C85.8492 14.3482 85.4049 14.4575 84.9035 14.4575C84.4022 14.4575 83.9578 14.3482 83.5761 14.1237C83.1944 13.8992 82.8925 13.577 82.6703 13.1511C82.4538 12.7252 82.3398 12.2244 82.3398 11.6374C82.3398 11.0504 82.4481 10.5439 82.6703 10.1237C82.8868 9.69785 83.1887 9.37555 83.5761 9.15109C83.9635 8.92663 84.4022 8.81152 84.9035 8.81152ZM84.9035 9.2777C84.4933 9.2777 84.1401 9.36979 83.8382 9.55972C83.5362 9.74965 83.3026 10.0201 83.1317 10.3712C82.9608 10.7223 82.8811 11.1424 82.8811 11.6374C82.8811 12.1208 82.9665 12.541 83.1317 12.8978C83.2969 13.2547 83.5362 13.5252 83.8382 13.7151C84.1401 13.905 84.4933 13.9971 84.9035 13.9971C85.3137 13.9971 85.6669 13.905 85.9689 13.7151C86.2708 13.5252 86.5044 13.2547 86.6753 12.8978C86.8405 12.541 86.926 12.1208 86.926 11.6374C86.926 11.1424 86.8405 10.7223 86.6753 10.3712C86.5044 10.0201 86.2708 9.74965 85.9689 9.55972C85.6669 9.37555 85.3137 9.2777 84.9035 9.2777Z" fill="#14181D"/>
<path d="M88.3555 14.3495V8.9222H88.8397L88.8796 10.2805L88.7941 10.2056C88.8967 9.90637 89.0448 9.65889 89.2442 9.45169C89.4436 9.2445 89.6829 9.08911 89.962 8.97976C90.2412 8.87041 90.5431 8.8186 90.8622 8.8186C91.261 8.8186 91.6199 8.89343 91.9275 9.04882C92.2352 9.19846 92.4801 9.42292 92.651 9.7222C92.8277 10.0215 92.9131 10.3898 92.9131 10.8387V14.3553H92.3776V11.0114C92.3776 10.4186 92.2295 9.98119 91.9389 9.70493C91.6484 9.42867 91.2724 9.29055 90.8052 9.29055C90.4691 9.29055 90.1557 9.37112 89.8652 9.52076C89.5746 9.67615 89.3411 9.90061 89.1588 10.1999C88.9765 10.4992 88.8853 10.856 88.8853 11.2877V14.3495H88.3555Z" fill="#14181D"/>
<path d="M99.5452 8.92147V9.38765H95.9219V8.92147H99.5452ZM97.5341 7.41357V12.9214C97.5341 13.261 97.6139 13.52 97.7734 13.6984C97.9329 13.8768 98.1722 13.9631 98.4798 13.9631C98.6792 13.9631 98.8558 13.9286 99.0097 13.8596C99.1635 13.7905 99.3002 13.6926 99.4256 13.5603L99.6306 14.0034C99.4939 14.1416 99.323 14.2509 99.1122 14.3373C98.9014 14.4178 98.6735 14.4639 98.4115 14.4639C98.1323 14.4639 97.8873 14.4121 97.6709 14.3085C97.4544 14.2049 97.2892 14.0437 97.1695 13.825C97.0499 13.6063 96.9929 13.3301 96.9929 13.002V7.57472L97.5341 7.41357Z" fill="#14181D"/>
<path d="M100.051 14.3475V6.42236H100.586V10.0252C100.746 9.6396 100.996 9.34032 101.35 9.12737C101.703 8.91443 102.107 8.80508 102.563 8.80508C102.962 8.80508 103.321 8.87989 103.629 9.02953C103.936 9.17917 104.181 9.40363 104.352 9.70291C104.529 10.0022 104.614 10.3763 104.614 10.8137V14.3417H104.079V10.9863C104.079 10.3993 103.93 9.96765 103.64 9.69139C103.349 9.41514 102.973 9.27126 102.506 9.27126C102.17 9.27126 101.857 9.35183 101.566 9.51298C101.276 9.67413 101.042 9.89859 100.86 10.1979C100.677 10.4971 100.586 10.854 100.586 11.2856V14.3475H100.051Z" fill="#14181D"/>
<path d="M108.027 14.4575C107.531 14.4575 107.092 14.3482 106.705 14.1237C106.318 13.8992 106.016 13.577 105.799 13.1511C105.583 12.7252 105.469 12.2244 105.469 11.6374C105.469 11.0504 105.577 10.5439 105.799 10.1237C106.016 9.69785 106.312 9.37555 106.688 9.15109C107.058 8.92663 107.486 8.81152 107.964 8.81152C108.454 8.81152 108.87 8.92088 109.212 9.13958C109.554 9.35829 109.821 9.65756 110.009 10.0489C110.197 10.4345 110.288 10.8834 110.288 11.3899C110.288 11.4532 110.288 11.5165 110.283 11.5798C110.277 11.6432 110.271 11.695 110.266 11.7468H105.805V11.2575H110.032L109.764 11.3324C109.759 10.7108 109.593 10.2158 109.274 9.84173C108.955 9.47339 108.517 9.28922 107.958 9.28922C107.571 9.28922 107.229 9.3813 106.939 9.56547C106.642 9.74964 106.414 10.0201 106.249 10.3712C106.084 10.7223 106.004 11.1424 106.004 11.6374C106.004 12.1208 106.09 12.541 106.255 12.8978C106.42 13.2547 106.659 13.5251 106.961 13.7093C107.263 13.8935 107.617 13.9856 108.021 13.9856C108.437 13.9856 108.796 13.8935 109.092 13.7151C109.388 13.5367 109.622 13.2834 109.787 12.9669L110.22 13.2144C110.089 13.4733 109.918 13.6978 109.702 13.882C109.485 14.0662 109.24 14.21 108.961 14.3079C108.67 14.4115 108.363 14.4575 108.027 14.4575Z" fill="#14181D"/>
</svg>
